<svg xmlns="http://www.w3.org/2000/svg" version="1.1" viewBox="40.2613525390625 52.409217834472656 1276.315673828125 1568.0907821655273">
<path d="M0 0 C10.0483785 -0.47084665 19.46448578 0.95923423 29.3125 2.6875 C30.92056661 2.96431075 32.52863959 3.24108447 34.13671875 3.51782227 C78.37632043 11.19932075 115.126557 25.57781843 148.3046875 56.515625 C150.45837784 58.50076566 152.6423073 60.41650377 154.86328125 62.32421875 C158.91778172 65.86191317 162.64713562 69.62644004 166.3125 73.5625 C166.95985107 74.25649902 167.60720215 74.95049805 168.27416992 75.66552734 C174.2525893 82.1499664 179.75055742 88.9170681 185 96 C185.43151367 96.57991699 185.86302734 97.15983398 186.30761719 97.75732422 C211.47548691 131.77429952 226.23375254 168.4304789 232.55664062 210.13037109 C233.32363373 215.09470863 234.16389762 220.04690778 235 225 C236.02416016 225.22349121 237.04832031 225.44698242 238.10351562 225.67724609 C248.79394934 228.06727117 259.13092146 231.10702972 269.5 234.625 C270.27758667 234.88666962 271.05517334 235.14833923 271.85632324 235.41793823 C325.63215621 253.54235008 377.40054871 278.43170883 419.609375 316.828125 C421.21457172 318.28644098 422.8293543 319.7342691 424.453125 321.171875 C433.36039809 329.07077755 441.76721312 337.18332376 449.1875 346.5 C449.66952881 347.09965576 450.15155762 347.69931152 450.64819336 348.31713867 C454 352.62958771 454 352.62958771 454 356 C442.36176627 359.47610114 430.72023673 362.91809416 418.9375 365.875 C418.13666992 366.07762451 417.33583984 366.28024902 416.51074219 366.48901367 C401.26632536 370.24500195 387.82322983 369.23880483 373.36474609 363.1003418 C361.20517868 357.93906729 350.0104455 355.56255627 336.87219238 354.54644775 C331.71328667 354.14376609 326.56458844 353.63371182 321.4140625 353.13671875 C319.91014954 352.99502258 319.91014954 352.99502258 318.37585449 352.85046387 C297.91014239 350.88415868 278.17141336 346.04382141 258.390625 340.56323242 C255.922671 339.88533906 255.922671 339.88533906 253 340 C256.10446634 343.51896299 259.05461731 345.15894802 263.37109375 346.94921875 C263.98593124 347.20434738 264.60076874 347.45947601 265.23423767 347.72233582 C271.74294624 350.38008567 278.3805618 352.63228107 285.0625 354.8125 C286.3583428 355.24096847 287.65407607 355.66976832 288.94970703 356.09887695 C296.81496528 358.6919961 304.71566893 361.15041534 312.64086914 363.55322266 C327.65788694 368.11478295 341.20740837 373.39438399 355 380.8125 C376.35028215 392.29140607 398.73307178 400.6781908 422.65332031 404.54150391 C443.74584454 408.01669428 462.13926211 417.48111656 481.06542969 427.05151367 C491.57259011 432.34453053 502.24405765 437.23646734 513 442 C510.75867742 437.95778942 508.56589576 434.20464235 505.625 430.625 C504.94179687 429.78324219 504.25859375 428.94148438 503.5546875 428.07421875 C501.55418633 425.66688784 499.53682171 423.27766512 497.5078125 420.89453125 C496.5804126 419.79407471 496.5804126 419.79407471 495.63427734 418.67138672 C494.40672291 417.21607147 493.17045131 415.76805073 491.92431641 414.32861328 C485.25367004 406.40152865 482.56214871 398.97340764 481.4375 388.75 C481.19432656 386.80725207 480.95082859 384.86454474 480.70703125 382.921875 C480.47018599 380.94805649 480.23449782 378.97409877 480 377 C476.34683133 346.36188124 464.07023309 318.09804164 442.51953125 295.6328125 C440.43284333 293.4523045 438.4510227 291.2377511 436.5 288.9375 C429.64478474 281.04660474 422.07039186 273.63966835 414 267 C413.51192871 266.59813477 413.02385742 266.19626953 412.52099609 265.78222656 C386.21992799 244.26674271 355.80328257 230.30394085 324.23657227 218.3359375 C320.48266304 216.91190722 316.73941463 215.46173551 313 214 C312.35446167 213.75038513 311.70892334 213.50077026 311.04382324 213.24359131 C309.12395637 212.49476084 307.21374356 211.72513892 305.3046875 210.94921875 C304.18819824 210.50280029 303.07170898 210.05638184 301.92138672 209.59643555 C296.76820506 206.78040222 294.60724799 202.61070977 292.265625 197.38671875 C291.53436401 195.77385986 291.53436401 195.77385986 290.78833008 194.12841797 C290.28068115 192.99291504 289.77303223 191.85741211 289.25 190.6875 C288.17753471 188.32862908 287.1033195 185.97055298 286.02734375 183.61328125 C285.24786377 181.90325928 285.24786377 181.90325928 284.45263672 180.15869141 C281.47412813 173.68206215 278.31374948 167.3109416 275 161 C274.67 160.36513672 274.34 159.73027344 274 159.07617188 C252.54356255 118.15451938 216.51805943 83.48007581 178.25 58.25 C177.54765228 57.78354065 176.84530457 57.3170813 176.12167358 56.83648682 C163.17677518 48.24449312 149.94034458 40.25471106 136.49462891 32.47558594 C133.58199097 30.75274549 130.77900343 28.92946352 128 27 C131.91189564 25.69603479 133.16241828 26.61260705 136.93359375 28.17578125 C138.12952148 28.66860596 139.32544922 29.16143066 140.55761719 29.66918945 C141.85136637 30.21588435 143.14465072 30.76368037 144.4375 31.3125 C145.0927063 31.58798676 145.7479126 31.86347351 146.42297363 32.14730835 C189.4236367 50.24535645 225.4582538 75.42895105 258.375 108.25 C258.89710052 108.76942169 259.41920105 109.28884338 259.9571228 109.82400513 C265.85619652 115.70013202 271.63800169 121.62187956 277 128 C277.48839355 128.57105469 277.97678711 129.14210937 278.47998047 129.73046875 C288.31136717 141.31639009 295.98326845 153.8212951 303.40234375 167.046875 C303.97992432 168.07619141 304.55750488 169.10550781 305.15258789 170.16601562 C306.27523818 172.17612454 307.39068066 174.19028127 308.49780273 176.20898438 C314.46429979 187.02612194 314.46429979 187.02612194 325.0625 192.9375 C326.10579468 193.30560791 326.10579468 193.30560791 327.17016602 193.68115234 C330.19953768 194.74342126 333.24500849 195.75288559 336.29589844 196.75146484 C363.74346584 205.74091845 389.34105723 219.02502534 412 237 C412.78020508 237.60247559 413.56041016 238.20495117 414.36425781 238.82568359 C422.47564346 245.23795418 429.72594805 252.42129127 437.00732422 259.74658203 C439.1211762 261.8711568 441.24551542 263.98482061 443.37109375 266.09765625 C466.03639057 288.73959242 485.31657385 316.1615684 495 347 C495.23058105 347.7213916 495.46116211 348.4427832 495.69873047 349.18603516 C501.39154017 367.56025994 502.23917204 386.86382109 502 406 C502.6911792 406.26409668 503.3823584 406.52819336 504.09448242 406.80029297 C507.30779942 408.12709237 510.38160856 409.6347699 513.48828125 411.1953125 C514.10343094 411.50359482 514.71858063 411.81187714 515.35237122 412.12950134 C517.34002344 413.12613494 519.32626046 414.12555444 521.3125 415.125 C522.69179449 415.81717529 524.07118947 416.50915039 525.45068359 417.20092773 C528.13476494 418.54720857 530.8183636 419.8944427 533.50146484 421.24267578 C537.37350342 423.18761184 541.24854255 425.12638956 545.125 427.0625 C545.99366699 427.49840454 545.99366699 427.49840454 546.87988281 427.94311523 C551.03397642 430.02621596 555.20051483 432.08289768 559.37109375 434.1328125 C600.43511875 454.38562251 637.91337288 478.14633248 671.79296875 509.015625 C673.72169753 510.74977406 675.6871317 512.41252881 677.6875 514.0625 C681.55059704 517.35828909 684.74635242 521.11444566 688 525 C688.74765625 525.84820313 689.4953125 526.69640625 690.265625 527.5703125 C697.87309892 536.41211165 703.82822327 545.99076256 703 558 C701.6444197 561.91612087 700.6868727 563.5573487 697.1875 565.8125 C686.98535215 569.61330018 676.81327374 568.24953162 666.45703125 565.75390625 C659.17820922 564.16654732 652.07714512 563.83829382 644.65625 563.75390625 C642.6679641 563.72098248 640.67968296 563.68777059 638.69140625 563.65429688 C635.5910144 563.60688952 632.49064381 563.56238174 629.39013672 563.52319336 C626.37448521 563.48329368 623.35919748 563.43181736 620.34375 563.37890625 C619.42581665 563.3704921 618.5078833 563.36207794 617.56213379 563.35340881 C608.62940653 563.18341789 602.21593406 561.94263635 595.625 555.6875 C588.15253809 549.0108124 581.22830839 544.56823935 571 544 C572.922745 561.13895108 584.88921476 578.08007382 598.21875 588.78125 C602.02672223 591.40928717 605.94085793 593.47519434 610.125 595.4375 C624.03401678 602.25184 627.95834491 616.99868911 633.33789062 630.51757812 C636.08024685 638.00842091 636.08024685 638.00842091 641 644 C644.0887265 644.71208637 647.08927983 644.79027619 650.25 644.8125 C651.51070312 644.85020508 651.51070312 644.85020508 652.796875 644.88867188 C654.86408228 644.94739935 656.93209111 644.97659774 659 645 C659.54221411 674.06870087 650.80115109 702.85157982 630.57421875 724.609375 C627.31485222 727.6989258 624.85759961 729.71933104 620.5625 731.125 C618 731 618 731 616 729 C616.26398127 723.43936229 618.73787973 718.76415753 621.0625 713.8125 C621.88176837 712.02415135 622.69943899 710.23507001 623.515625 708.4453125 C623.93005859 707.53942383 624.34449219 706.63353516 624.77148438 705.70019531 C634.53818664 685.1629716 634.53818664 685.1629716 638 663 C637.67837891 663.69971924 637.35675781 664.39943848 637.02539062 665.12036133 C635.5291823 668.35689898 634.01473161 671.58459237 632.5 674.8125 C631.9946875 675.91271484 631.489375 677.01292969 630.96875 678.14648438 C619.59551401 702.24352813 599.83626833 719.04689783 575 728 C565.11695806 731.42806503 555.14210342 734.58314421 545.16690063 737.7303009 C539.84788294 739.40906877 534.53947387 741.11736629 529.23828125 742.8515625 C527.85312407 743.30359519 526.46795185 743.75558182 525.08276367 744.20751953 C522.54172998 745.03674241 520.00169442 745.86881979 517.4621582 746.70263672 C488.60237057 756.06679135 457.64926549 761.1536555 428.46411133 750.12060547 C419.61534758 746.85025455 410.51643128 746.84314399 401.171875 746.83203125 C400.17923645 746.82870285 399.1865979 746.82537445 398.16387939 746.82194519 C396.08321593 746.81691889 394.00254453 746.81453552 391.921875 746.81469727 C388.74465822 746.8124963 385.56778122 746.7942556 382.390625 746.77539062 C380.35937618 746.77245865 378.32812572 746.77047254 376.296875 746.76953125 C375.35301941 746.76234573 374.40916382 746.75516022 373.43670654 746.74775696 C368.55114605 746.76467955 364.58444672 747.08253094 360 749 C361.32682127 759.41400419 367.19400639 768.23667981 374 776 C374.55558594 776.63808594 375.11117187 777.27617188 375.68359375 777.93359375 C386.02207246 789.03611707 402.19429547 794.17018175 417 795 C447.5005431 795.72270106 476.56153955 783.87047256 505.05471802 774.28735352 C515.82151132 770.67022003 526.61892309 767.19546657 537.5 763.9375 C539.28615723 763.40104858 539.28615723 763.40104858 541.10839844 762.85375977 C576.29059455 752.43210067 576.29059455 752.43210067 590 758 C597.96473516 763.19001695 603.03814965 770.87442002 605.5 779.98046875 C608.39693783 797.47525736 605.7226513 818.44142266 595.75 833.25 C591.81933849 838.45109224 587.47582733 843.26595186 583 848 C582.38640625 848.66644531 581.7728125 849.33289063 581.140625 850.01953125 C568.96055481 862.79819464 554.10237572 871.44307547 538.97167969 880.26660156 C536.34213254 881.80043206 533.71982565 883.34545346 531.1015625 884.8984375 C525.86313355 888.00183007 520.62524707 891.10228476 515.30859375 894.0703125 C502.9492403 900.97542954 491.84013352 908.87607502 481 918 C480.37738281 918.47566406 479.75476562 918.95132813 479.11328125 919.44140625 C465.58298896 930.00701911 457.96990259 946.59988467 452.5625 962.4375 C452.31532227 963.15832764 452.06814453 963.87915527 451.81347656 964.62182617 C450.16325914 969.74256147 449.45941547 974.64015287 449 980 C448.01 980 447.02 980 446 980 C432.99351039 954.45153826 431.59307504 915.44259095 439 888 C439.30599121 886.82703369 439.30599121 886.82703369 439.61816406 885.63037109 C442.7251907 873.93718715 446.83845028 862.93393373 452 852 C426.16094573 868.50193289 404.44992027 898.7438352 397.66796875 928.61328125 C394.54787256 943.30101765 392.25059209 958.15830919 390 973 C388.68 973 387.36 973 386 973 C381.13669115 966.57885075 378.40069872 959.18882065 375.4375 951.75 C374.96892578 950.59886719 374.50035156 949.44773437 374.01757812 948.26171875 C372.6428955 944.85096773 371.28462405 941.44590037 370 938 C369.65967239 937.14584 369.31934479 936.29167999 368.96870422 935.41163635 C365.97281551 927.36800586 365.37208181 920.09746807 365.36328125 911.55859375 C365.35291257 910.18310523 365.34184334 908.80762184 365.3301239 907.43214417 C365.31081524 904.55691351 365.30722127 901.68216752 365.3137207 898.80688477 C365.31847074 895.91998935 365.29811072 893.03521216 365.25219727 890.14868164 C364.94155207 870.371044 366.88388417 853.0087093 373 834 C373.30284409 833.0365416 373.60568817 832.07308319 373.91770935 831.08042908 C378.44708095 816.68634437 378.44708095 816.68634437 381 812 C375.80572583 814.65738813 372.71332922 817.03731392 369.1875 821.8125 C368.77081055 822.37364502 368.35412109 822.93479004 367.92480469 823.51293945 C363.03579398 830.17352988 358.47389234 837.05633858 354 844 C353.45730469 844.82628906 352.91460938 845.65257812 352.35546875 846.50390625 C334.01810144 875.5507002 326.84493444 908.71532877 323.30541992 942.34570312 C323.22540741 943.09859116 323.1453949 943.85147919 323.06295776 944.62718201 C322.91197895 946.05848794 322.76455145 947.4901741 322.62112427 948.92225647 C322.11051977 953.77896046 322.11051977 953.77896046 321 956 C320.34 956 319.68 956 319 956 C311.6667674 941.08835073 305.81817941 926.00778972 301.75 909.875 C301.39893188 908.48293335 301.39893188 908.48293335 301.04077148 907.06274414 C300.31315252 904.05085526 299.6536129 901.02878116 299 898 C298.72857178 896.87319824 298.45714355 895.74639648 298.17749023 894.58544922 C295.29189486 881.0667734 295.50739608 867.39395287 295.55395508 853.63720703 C295.56311411 850.80617612 295.55628017 847.97597242 295.53344727 845.14501953 C295.39408638 827.75199996 296.10645272 811.02974133 300 794 C300.15838348 793.29083435 300.31676697 792.5816687 300.47994995 791.85101318 C301.43950806 787.61841702 302.5307031 783.43249454 303.6875 779.25 C304.0285376 778.00049561 304.3695752 776.75099121 304.72094727 775.46362305 C312.85727516 745.98887389 323.2847979 719.80623527 340.94140625 694.796875 C342.07244658 692.87702795 342.57133311 691.1770498 343 689 C335.06832811 691.46625423 327.79310157 694.40510111 320.5625 698.5 C319.91345703 698.86730225 319.26441406 699.23460449 318.59570312 699.61303711 C314.75691056 701.84199756 311.14790879 704.28104337 307.56079102 706.89306641 C305.67556513 708.23009349 303.72872375 709.35545323 301.6875 710.4375 C298.54983129 712.12984393 295.51839587 713.91639393 292.5 715.8125 C271.0941305 728.6892091 247.92843381 735.30318843 223 736 C222.2270459 736.02191406 221.4540918 736.04382813 220.65771484 736.06640625 C185.12295033 736.90268233 152.93067296 731.54433309 126.36010742 706.25146484 C124.90157267 704.8396269 123.45048952 703.42010217 122 702 C121.32453125 701.37480469 120.6490625 700.74960937 119.953125 700.10546875 C105.44553571 686.42973664 97.5746111 669.21789545 92.60205078 650.27001953 C92.09177561 648.34603797 91.53346196 646.43489692 90.96484375 644.52734375 C83.24729223 615.55960386 92.20795245 587.26842203 104.375 561.1875 C104.8088501 560.24487305 105.2427002 559.30224609 105.68969727 558.33105469 C111.2903615 546.62327772 119.01203206 537.518669 128.25 528.5 C129.57644531 527.18128906 129.57644531 527.18128906 130.9296875 525.8359375 C140.88594228 516 140.88594228 516 144 516 C144.33 514.68 144.66 513.36 145 512 C122.10180453 522.14477014 103.45677576 537.46155257 85.8125 554.875 C85.30221252 555.37529724 84.79192505 555.87559448 84.26617432 556.39105225 C66.09390829 574.2706067 54.32755986 595.34488029 43 618 C42.34 618 41.68 618 41 618 C40.61108732 610.3492761 41.69195533 603.59183614 43.5625 596.1875 C43.96903809 594.55433838 43.96903809 594.55433838 44.38378906 592.88818359 C51.97804697 563.08831557 63.80796296 540.28873302 85 518 C85.63035156 517.30519531 86.26070312 516.61039063 86.91015625 515.89453125 C98.79036601 503.23101096 114.49824076 494.27163734 129.12084961 485.20825195 C130.93496884 484.13581323 130.93496884 484.13581323 132 483 C126.90046711 483.57099017 122.36196704 484.7172458 117.5625 486.5625 C116.87510742 486.82426025 116.18771484 487.08602051 115.47949219 487.35571289 C107.72371779 490.38801259 100.34174938 494.08479923 93 498 C92.00871094 498.51949219 91.01742187 499.03898437 89.99609375 499.57421875 C75.60242535 507.52176583 62.30584694 517.93829108 50.58886719 529.44189453 C48.8879281 531.1099021 47.16683741 532.75560716 45.4453125 534.40234375 C34.24196376 545.23109415 25.41976234 556.88179567 17.32421875 570.17578125 C16.75840088 571.10318115 16.75840088 571.10318115 16.18115234 572.04931641 C15.33450315 573.44756508 14.49736504 574.85158988 13.66650391 576.25927734 C13.22612793 576.99227051 12.78575195 577.72526367 12.33203125 578.48046875 C11.93346924 579.15360107 11.53490723 579.8267334 11.12426758 580.52026367 C10.75325928 581.00857666 10.38225098 581.49688965 10 582 C9.34 582 8.68 582 8 582 C5.31059777 548.75600019 25.19740742 510.03490599 44 484 C44.41314453 483.42685059 44.82628906 482.85370117 45.25195312 482.26318359 C48.05831447 478.41722325 50.99712331 474.69363058 54 471 C54.81984375 469.97519531 55.6396875 468.95039062 56.484375 467.89453125 C63.09058043 459.82286045 70.38352358 452.43291501 77.75 445.0625 C78.24559418 444.56590881 78.74118835 444.06931763 79.25180054 443.55767822 C84.98893792 437.82184611 90.82091924 432.25974586 97 427 C98.08323484 426.05085103 99.1653131 425.10038008 100.24609375 424.1484375 C108.49617531 416.95207669 117.02272112 410.19111995 125.796875 403.64550781 C127.25894699 402.55349039 128.71733183 401.45651792 130.171875 400.35449219 C156.88183449 380.14187446 188.00461066 364.61284746 218.92651367 351.89111328 C220.99464678 351.00230063 222.99711835 350.02646624 225 349 C215.45648844 348.51303356 206.35674192 349.99932828 197 351.625 C196.20865662 351.76004944 195.41731323 351.89509888 194.60198975 352.03424072 C179.95241711 354.53831226 165.43831203 357.46413014 151 361 C149.86062988 361.27505371 148.72125977 361.55010742 147.54736328 361.83349609 C129.78419281 366.17331988 112.61303151 371.65696664 95.42651367 377.87133789 C94.6368219 378.15199097 93.84713013 378.43264404 93.0335083 378.72180176 C91.54998653 379.24930959 90.06991507 379.78666396 88.59417725 380.33557129 C84.68317608 381.71709574 81.99404554 382.29587599 78 381 C77.87995605 380.28682617 77.75991211 379.57365234 77.63623047 378.83886719 C70.6780084 338.0583183 57.74805745 302.98855455 22.984375 277.81640625 C4.5374151 265.7986208 -18.59493264 259.33270127 -40.43432617 263.46386719 C-59.08864535 267.3222506 -59.08864535 267.3222506 -75 277 C-74.175 277.15557373 -73.35 277.31114746 -72.5 277.47143555 C-35.38929961 284.52547144 -35.38929961 284.52547144 -23 291 C-23 291.99 -23 292.98 -23 294 C-29.77857019 296.50860472 -36.58112678 298.87714827 -43.46875 301.0703125 C-46.19013342 301.95787926 -46.19013342 301.95787926 -49 304 C-47.94425781 304.43699219 -47.94425781 304.43699219 -46.8671875 304.8828125 C-44.76379532 305.75602231 -42.66240462 306.63406127 -40.5625 307.515625 C-38.1948299 308.50215421 -35.81974027 309.47106858 -33.4375 310.421875 C-12.09801417 319.12613896 3.87010153 334.88236781 13 356 C15.93231732 363.33569684 16.35600461 372.60328366 14.41796875 380.31640625 C10.46807243 388.08994649 1.14606645 393.70885888 -5.51953125 399 C-12.34758102 404.50545116 -18.35722715 410.29920724 -24 417 C-24.91487996 418.04323625 -25.83170755 419.08476628 -26.75 420.125 C-38.46308448 433.45662669 -47.7129915 447.31277196 -56 463 C-56.37431152 463.69416016 -56.74862305 464.38832031 -57.13427734 465.10351562 C-62.35060205 474.79728253 -66.04487556 484.40971348 -69 495 C-69.39571418 496.3728063 -69.79284683 497.74520454 -70.19140625 499.1171875 C-71.14385802 502.40695917 -72.07750254 505.70168504 -73 509 C-74.6640625 509.78515625 -74.6640625 509.78515625 -77 510 C-79.5234375 508.18359375 -79.5234375 508.18359375 -82.375 505.4375 C-82.89102783 504.94443359 -83.40705566 504.45136719 -83.9387207 503.94335938 C-85.63909749 502.30872339 -87.3194712 500.65501614 -89 499 C-90.19380621 497.84484101 -91.38781914 496.68989562 -92.58203125 495.53515625 C-99.5680311 488.72021511 -105.96892513 481.6855137 -112 474 C-112.66257812 473.22785156 -113.32515625 472.45570313 -114.0078125 471.66015625 C-119.60800439 465.06071444 -123.70276107 457.91091949 -127.76416016 450.31152344 C-129.06378704 447.88069228 -130.38182084 445.46030218 -131.69921875 443.0390625 C-151.32816957 406.6226001 -165.66554682 363.57881782 -154 322 C-142.56196799 283.93816274 -115.56560208 255.33681945 -81.28027344 236.21386719 C-52.83523789 220.97987863 -24.13997348 216.75370901 7.10546875 225.6640625 C41.96964368 236.33436384 72.10462299 261.54404852 89.79248047 293.56274414 C97.76543959 308.75164485 107 329.65308313 107 347 C107.66 347 108.32 347 109 347 C109.26554688 346.41863281 109.53109375 345.83726562 109.8046875 345.23828125 C111.90535957 341.30466982 114.95518067 338.22714384 118 335 C118.82951172 334.11248047 118.82951172 334.11248047 119.67578125 333.20703125 C129.39577129 323.7887704 143.42965599 319.22823596 155.9050293 314.70141602 C163.60042577 312.34959058 163.60042577 312.34959058 169 307 C168.26394531 307.144375 167.52789063 307.28875 166.76953125 307.4375 C165.79371094 307.623125 164.81789063 307.80875 163.8125 308 C162.84957031 308.185625 161.88664063 308.37125 160.89453125 308.5625 C158.2065794 308.96877612 155.71228981 309.07933572 153 309 C156.65214951 304.96451418 160.31351899 302.51051422 165.25 300.1875 C165.95036377 299.84984619 166.65072754 299.51219238 167.37231445 299.16430664 C168.84525222 298.4561099 170.32030965 297.75230628 171.79736328 297.05273438 C173.90801703 296.0439626 175.99985641 295.00391719 178.08984375 293.953125 C185.71660788 290.16715105 193.44236687 286.94637558 201.5 284.1875 C202.29301514 283.90962646 203.08603027 283.63175293 203.90307617 283.34545898 C219.14420968 278.33419502 234.51187246 277.35734219 250.4375 277.375 C251.40155762 277.37353973 252.36561523 277.37207947 253.35888672 277.37057495 C268.51281444 277.40208815 281.94067686 278.82926929 296.29785156 284.02539062 C298.94846344 284.98141182 301.61368196 285.83725298 304.3046875 286.671875 C335.05880778 296.44823236 361.37003441 315.06945102 384.6875 337.03125 C386.92111081 339.18158918 386.92111081 339.18158918 390 340 C378.25093051 320.81481057 360.96476493 303.58369988 342.85302734 290.35693359 C340.82029259 288.86840398 338.8112527 287.35047706 336.80078125 285.83203125 C321.56352874 274.44683664 305.22766063 265.03719709 288 257 C287.26217285 256.65259766 286.5243457 256.30519531 285.76416016 255.94726562 C264.2611065 245.94333922 241.67272784 238.88053688 218.5 234 C217.82779419 233.85802185 217.15558838 233.7160437 216.4630127 233.56976318 C195.71472699 229.24342989 175.13801016 227.78480593 154 227.8125 C153.1431662 227.81310425 152.2863324 227.8137085 151.40353394 227.81433105 C132.3364376 227.85071907 113.92110859 229.18437993 95.15063477 232.67871094 C89.32443325 233.74213218 83.92425433 234.1824719 78 234 C78 233.34 78 232.68 78 232 C78.6612085 231.64695801 79.32241699 231.29391602 80.00366211 230.93017578 C82.98476692 229.33427054 85.96115606 227.72976533 88.9375 226.125 C89.97841797 225.56941406 91.01933594 225.01382813 92.09179688 224.44140625 C93.57583008 223.63896484 93.57583008 223.63896484 95.08984375 222.8203125 C96.00628662 222.32805176 96.92272949 221.83579102 97.86694336 221.32861328 C100.12902542 220.17758138 100.12902542 220.17758138 101 218 C33.99519058 176.42682535 -48.2935214 184.23033973 -121.79101562 201.26831055 C-125.53222518 202.16018304 -129.26730226 203.07318217 -133 204 C-134.1535498 204.28536621 -135.30709961 204.57073242 -136.49560547 204.86474609 C-168.3993391 212.89845149 -199.83550362 223.89560352 -230 237 C-231.17949219 237.50885742 -232.35898437 238.01771484 -233.57421875 238.54199219 C-264.64280951 251.98085995 -293.86335391 268.05366264 -322.09423828 286.74121094 C-323.99318727 287.99550007 -325.90005781 289.23692203 -327.80859375 290.4765625 C-345.90409659 302.29408159 -362.39054113 315.76215338 -378.22265625 330.44140625 C-380.6813141 332.70641454 -383.17634928 334.91874448 -385.6875 337.125 C-396.06208861 346.45877228 -406.22921021 356.28114535 -414.84375 367.28125 C-416.92149784 369.90101902 -419.08054986 372.41742832 -421.28076172 374.93359375 C-426.30706483 380.68892712 -431.08960125 386.58352443 -435.6875 392.6875 C-436.20481689 393.37094482 -436.72213379 394.05438965 -437.25512695 394.75854492 C-437.73167725 395.39896729 -438.20822754 396.03938965 -438.69921875 396.69921875 C-439.12033936 397.26471436 -439.54145996 397.83020996 -439.9753418 398.4128418 C-441.18629245 400.14408277 -441.18629245 400.14408277 -442 403 C-434.65322902 398.133598 -427.34729827 393.20884557 -420.0546875 388.26171875 C-417.27392453 386.37777251 -414.49294062 384.49415281 -411.71191406 382.6105957 C-409.83049225 381.33521191 -407.94994812 380.05853236 -406.0703125 378.78051758 C-394.50154698 370.91711909 -382.84554569 363.29885304 -370.84368896 356.11198425 C-368.10499754 354.46019711 -365.39707701 352.76158465 -362.6875 351.0625 C-345.20695289 340.31697665 -327.1120106 330.62715506 -309 321 C-307.56599854 320.23453857 -307.56599854 320.23453857 -306.10302734 319.45361328 C-299.43640251 315.90065719 -292.73334533 312.42475516 -286 309 C-284.36224609 308.1639624 -284.36224609 308.1639624 -282.69140625 307.31103516 C-249.85718682 290.66770542 -215.43070036 277.53485429 -181.09814453 264.34739685 C-177.06759764 262.79887342 -173.04170127 261.23916709 -169.02062988 259.66619873 C-165.99421693 258.48247224 -162.96559606 257.30441299 -159.9375 256.125 C-158.86032715 255.70154297 -157.7831543 255.27808594 -156.67333984 254.84179688 C-155.69703613 254.46345703 -154.72073242 254.08511719 -153.71484375 253.6953125 C-152.87042725 253.36547363 -152.02601074 253.03563477 -151.15600586 252.69580078 C-149 252 -149 252 -146 252 C-146.61068434 255.22094666 -147.68658644 257.23380703 -149.66015625 259.8359375 C-150.20260986 260.56312988 -150.74506348 261.29032227 -151.30395508 262.03955078 C-151.8842749 262.81024902 -152.46459473 263.58094727 -153.0625 264.375 C-164.02767929 279.26517262 -173.13420207 295.70019836 -179.6015625 313.05859375 C-183.25318038 320.73923137 -188.42802865 326.86409864 -194.45483398 332.77954102 C-195.17598389 333.49952271 -195.89713379 334.21950439 -196.64013672 334.96130371 C-199.00187032 337.31590848 -201.37393693 339.65980699 -203.74609375 342.00390625 C-205.4029985 343.65266227 -207.05916021 345.30216531 -208.71461487 346.95237732 C-213.06033979 351.28104596 -217.4145617 355.60105927 -221.77111816 359.91882324 C-228.74138072 366.82973183 -235.69894187 373.753421 -242.65583992 380.67777824 C-245.07642979 383.08449821 -247.50084653 385.4873083 -249.92588806 387.88954163 C-251.42260302 389.37622452 -252.91923515 390.86299081 -254.41577148 392.34985352 C-255.41583977 393.33745918 -255.41583977 393.33745918 -256.43611145 394.34501648 C-260.25905549 398.15005104 -263.88712425 402.06682106 -267.40045261 406.15998745 C-270.1298212 409.2996709 -273.0136169 412.29364643 -275.875 415.3125 C-280.79040063 420.53466634 -285.44520096 425.84899232 -289.921875 431.453125 C-292.05718453 434.0700833 -294.28530363 436.56842779 -296.5625 439.0625 C-300.21039558 443.07075962 -303.63153757 447.20339732 -306.98828125 451.45703125 C-309.02824833 454.03570808 -311.10169827 456.58328532 -313.1875 459.125 C-322.46667457 470.44846776 -331.71824595 481.78800962 -340.70898438 493.34277344 C-341.96343168 494.95305867 -343.22365214 496.55868878 -344.484375 498.1640625 C-354.55393525 511.08773377 -363.78065583 524.54422694 -372.75 538.25 C-373.44681885 539.31436279 -374.1436377 540.37872559 -374.86157227 541.4753418 C-379.7004912 548.90946716 -384.38380019 556.42636762 -389 564 C-389.56130615 564.9192627 -390.1226123 565.83852539 -390.70092773 566.78564453 C-393.67063632 571.66405147 -396.46799499 576.61476558 -399.1796875 581.640625 C-401.06346222 585.11711911 -402.97267923 588.57874182 -404.88549805 592.03930664 C-406.81421452 595.5340947 -408.7316343 599.03502079 -410.64794922 602.53662109 C-411.84217267 604.71244533 -413.04706702 606.88194511 -414.25390625 609.05078125 C-421.12534899 621.55690145 -426.77453788 634.62541408 -432.5234375 647.67260742 C-433.90497288 650.78585902 -435.31403607 653.88477072 -436.734375 656.98046875 C-438.45710855 660.75664534 -440.05274421 664.54541569 -441.5 668.4375 C-443.02452812 672.47773552 -444.6080973 676.47006093 -446.3125 680.4375 C-460.68928968 714.95072492 -471.11025751 751.93280732 -476.52783203 788.8984375 C-476.98778505 791.91976282 -477.49735149 794.92774114 -478.02734375 797.9375 C-481.09008019 815.54032607 -482.61554917 833.20151294 -484 851 C-483.34 851 -482.68 851 -482 851 C-481.61714844 849.14955078 -481.61714844 849.14955078 -481.2265625 847.26171875 C-477.18462026 829.12252964 -470.71025863 811.30573207 -464 794 C-463.65839844 793.11860352 -463.31679688 792.23720703 -462.96484375 791.32910156 C-449.44995258 756.90602543 -432.27789633 723.86836607 -414.76171875 691.34375 C-412.73150882 687.49040254 -410.80109711 683.59357423 -408.875 679.6875 C-406.29752275 674.46373838 -403.54189339 669.46080424 -400.46875 664.5078125 C-398.79737303 661.65402524 -397.37413103 658.72889669 -395.9375 655.75 C-392.27769261 648.2915086 -388.07296713 641.19750371 -383.79467773 634.07910156 C-380.52188268 628.62560037 -377.38747028 623.12112764 -374.36450195 617.52514648 C-371.41275164 612.06263916 -368.33868129 606.66791572 -365.28027344 601.26464844 C-364.41705545 599.7377205 -363.55576806 598.20969973 -362.69628906 596.68066406 C-349.05689352 572.42294462 -334.51336822 548.87883581 -318.91796875 525.83886719 C-316.84712825 522.77372802 -314.79725397 519.69539163 -312.75439453 516.61157227 C-308.22071401 509.76833347 -303.58458558 502.99797694 -298.921875 496.2421875 C-296.86025699 493.25382579 -294.80965359 490.25823259 -292.765625 487.2578125 C-279.05062446 467.12808896 -264.97138116 447.42851672 -249 429 C-248.67 429.66 -248.34 430.32 -248 431 C-248.92114258 433.46411133 -248.92114258 433.46411133 -250.39453125 436.58203125 C-250.93279541 437.73010254 -251.47105957 438.87817383 -252.02563477 440.06103516 C-252.31673126 440.67199036 -252.60782776 441.28294556 -252.90774536 441.91241455 C-253.82158815 443.83158612 -254.72430601 445.75566475 -255.62475586 447.68115234 C-258.24251242 453.26401935 -260.89132685 458.82787817 -263.671875 464.33203125 C-280.3612573 497.5796746 -291.24962276 535.37110214 -297 572 C-297.18933105 573.19302734 -297.37866211 574.38605469 -297.57373047 575.61523438 C-300.17386919 592.15957696 -302.15693391 608.23170669 -302.203125 625 C-302.20595238 625.70642639 -302.20877975 626.41285278 -302.21169281 627.14068604 C-302.22659797 630.89359899 -302.23587702 634.64647451 -302.24023438 638.39941406 C-302.24458043 641.43795027 -302.2583326 644.47619633 -302.28125 647.51464844 C-302.42432407 666.89614006 -301.72391464 685.76588659 -299 705 C-298.82960205 706.24889008 -298.82960205 706.24889008 -298.65576172 707.52301025 C-297.97734026 712.46758926 -297.20992614 717.3920747 -296.375 722.3125 C-296.19041733 723.41248825 -296.19041733 723.41248825 -296.00210571 724.53469849 C-281.69394443 808.99488342 -247.99161923 892.8128853 -195 988 C-194.48002441 988.84739746 -193.96004883 989.69479492 -193.42431641 990.56787109 C-184.02153455 1005.85290623 -173.83804641 1020.56904367 -163.34960938 1035.12353516 C-161.91047821 1037.12446897 -160.47854279 1039.13043915 -159.046875 1041.13671875 C-151.8990616 1051.12578798 -144.53076074 1060.92846227 -137.0625 1070.6796875 C-133.04714237 1075.92624164 -129.08122481 1081.20878178 -125.125 1086.5 C-120.36273759 1092.86454174 -115.56492596 1099.19638114 -110.70703125 1105.48828125 C-100.79449675 1118.3330676 -90.99707547 1131.25893364 -81.4140625 1144.3515625 C-79.17927834 1147.40385745 -76.92435909 1150.4392037 -74.6484375 1153.4609375 C-59.69444014 1173.37945476 -45.81970988 1194.06055993 -34 1216 C-33.55624023 1216.82129395 -33.11248047 1217.64258789 -32.65527344 1218.48876953 C-18.76003963 1244.36525158 -5.77415489 1270.81011138 6.7890625 1297.35546875 C9.75740836 1303.62154611 12.86078081 1309.81798814 16 1316 C16.77529796 1271.54958388 4.42032129 1227.10789665 -14 1187 C-14.39767578 1186.13149414 -14.79535156 1185.26298828 -15.20507812 1184.36816406 C-25.7504148 1161.66268027 -39.38625027 1140.65401387 -53.25 1119.875 C-53.79317871 1119.06082611 -54.33635742 1118.24665222 -54.89599609 1117.4078064 C-61.97772999 1106.81476628 -69.22167782 1096.34733431 -76.6072998 1085.96418762 C-79.04394252 1082.52768099 -81.45761018 1079.0750612 -83.875 1075.625 C-88.79358449 1068.63341843 -93.84590837 1061.74570764 -98.92919922 1054.87329102 C-103.58146378 1048.58045043 -108.17229049 1042.24946626 -112.68652344 1035.85693359 C-113.58830359 1034.58203771 -114.49274545 1033.30902165 -115.39941406 1032.03759766 C-136.74308291 1002.10166185 -157.65328185 971.45038408 -175 939 C-175.43038574 938.195625 -175.86077148 937.39125 -176.30419922 936.5625 C-179.61265938 930.35059942 -182.84948131 924.10316741 -186.05749512 917.83886719 C-187.07961563 915.84466651 -188.10481939 913.85206442 -189.12988281 911.859375 C-204.70101811 881.53782295 -216.63157049 850.90175878 -227.4446106 818.59988403 C-229.08372791 813.70719299 -230.7468993 808.82534919 -232.45703125 803.95703125 C-242.77569676 774.42101213 -248.57945895 743.74132835 -254 713 C-254.13533142 712.23375305 -254.27066284 711.4675061 -254.41009521 710.67803955 C-261.47220851 670.47840229 -264.78952181 627.62625734 -259 587 C-258.90763062 586.35067505 -258.81526123 585.7013501 -258.72009277 585.03234863 C-252.74924995 543.39788719 -243.70702062 501.94627471 -225 464 C-224.33069683 462.62241154 -223.66142693 461.24480692 -222.9921875 459.8671875 C-219.722611 453.18800982 -216.34376397 446.66937737 -212.421875 440.34375 C-210.89933126 437.83406252 -209.5086164 435.27620165 -208.125 432.6875 C-199.5621182 416.87738751 -199.5621182 416.87738751 -194.74609375 411.46875 C-187.06773797 402.78767513 -187.7784838 393.04658207 -188 382 C-187.34 382 -186.68 382 -186 382 C-182.44879189 390.92784833 -179.2997651 399.92841103 -176.31997681 409.05838013 C-171.13991016 425.00487668 -171.13991016 425.00487668 -164.93017578 440.57299805 C-161.85867705 447.87759089 -162.71119638 454.0413883 -164.9765625 461.41796875 C-165.40187972 462.83683364 -165.82691693 464.25578248 -166.25170898 465.67480469 C-166.58826004 466.7781012 -166.58826004 466.7781012 -166.93161011 467.90368652 C-185.13064602 527.84572479 -190.88531723 598.32727842 -177 660 C-176.7721582 661.03866211 -176.54431641 662.07732422 -176.30957031 663.14746094 C-170.73027521 688.15479023 -163.31774674 713.64267861 -152.08935547 736.74609375 C-150.82585105 739.36031894 -149.60250262 741.99186643 -148.37890625 744.625 C-143.04656989 756.03170097 -137.44887215 767.18362287 -131 778 C-130.62053223 778.64453125 -130.24106445 779.2890625 -129.85009766 779.953125 C-123.35363531 790.9309308 -115.91397834 801.00787154 -108 811 C-107.24460937 811.9590625 -106.48921875 812.918125 -105.7109375 813.90625 C-103.82254964 816.2836626 -101.91544674 818.64435743 -100 821 C-99.28457031 821.88945313 -98.56914063 822.77890625 -97.83203125 823.6953125 C-93.40179848 829.17019568 -88.84029876 834.4811686 -84.09765625 839.6875 C-82.30492554 841.66384372 -80.55204773 843.6645673 -78.8125 845.6875 C-75.29383211 849.72531561 -71.65035942 853.64411891 -68 857.5625 C-67.12758667 858.50065552 -67.12758667 858.50065552 -66.23754883 859.45776367 C-63.37727015 862.51738171 -60.48454524 865.52609929 -57.5 868.46484375 C-55.17493996 870.7690986 -52.99526121 873.13166943 -50.875 875.625 C-45.5944867 881.74238036 -39.74404378 887.32334445 -34 893 C-20.95316878 905.89376784 -20.95316878 905.89376784 -15.6328125 912.14453125 C-12.43953632 915.77325418 -8.94702988 919.11463434 -5.5 922.5 C-0.66154227 927.25190214 4.0271412 932.04155807 8.42578125 937.20703125 C10.04675879 939.05325629 11.74593149 940.78046648 13.5 942.5 C16.43837658 945.39954341 19.18393644 948.4055935 21.875 951.53515625 C23.52791792 953.4524195 25.19524121 955.35255737 26.875 957.24609375 C35.04581049 966.49874061 42.64911348 976.08599007 50 986 C50.52029785 986.69931641 51.0405957 987.39863281 51.57666016 988.11914062 C95.74367342 1047.70540704 128.25431963 1114.91857786 146 1187 C146.40774658 1188.61817627 146.40774658 1188.61817627 146.82373047 1190.26904297 C154.3166574 1220.29815085 156.23093935 1250.89580856 156.1875 1281.75 C156.18656342 1282.62018768 156.18562683 1283.49037537 156.18466187 1284.38693237 C156.09772087 1321.82252767 149.72346615 1357.21656668 133 1391 C132.54463867 1391.92312988 132.08927734 1392.84625977 131.62011719 1393.79736328 C120.39897202 1416.34235563 107.1551027 1436.99631937 91 1456.3125 C90.55519287 1456.84601074 90.11038574 1457.37952148 89.65209961 1457.92919922 C87.31328295 1460.66996506 84.98534089 1462.97522018 82 1465 C83.59308099 1459.18665183 85.52972871 1453.6041072 87.75 1448 C118.08410773 1368.92456171 106.70909493 1279.28148364 73.24194336 1203.25610352 C70.73086031 1197.65437676 68.20896743 1192.24216465 65 1187 C66.04296782 1193.99726957 67.15258875 1200.9796637 68.3671875 1207.94921875 C81.34618061 1282.70139372 83.400007 1358.01046981 59.25 1474.5 C59.06554321 1475.23561157 58.88108643 1475.97122314 58.69104004 1476.72912598 C54.33072358 1493.98208548 47.59932278 1502.66748025 33.74609375 1513.75390625 C31.11914983 1515.90254459 28.61931675 1518.13723058 26.125 1520.4375 C22.26845208 1523.94233075 18.29715931 1527.23767908 14.1875 1530.4375 C13.64818848 1530.86281006 13.10887695 1531.28812012 12.55322266 1531.72631836 C9.50224123 1534.06830891 6.64654228 1535.76651157 3 1537 C3.61468669 1530.60369497 5.61354273 1524.93240862 7.6875 1518.875 C10.85425072 1509.31189847 13.35428979 1499.74358474 15.375 1489.875 C15.61307373 1488.71597168 15.85114746 1487.55694336 16.09643555 1486.36279297 C18.86321537 1472.33233574 20.38422634 1458.64914585 20.3125 1444.375 C20.31100952 1443.63565216 20.30951904 1442.89630432 20.3079834 1442.134552 C20.26377495 1429.88006825 19.4400933 1418.03481362 17 1406 C16.86078125 1405.27151855 16.7215625 1404.54303711 16.578125 1403.79248047 C7.93742844 1359.31889527 -18.60582703 1322.34971266 -49 1290 C-49.61004883 1289.35015137 -50.22009766 1288.70030273 -50.84863281 1288.03076172 C-56.8984864 1281.58966193 -62.95324076 1275.15323504 -69.0390625 1268.74609375 C-75.29907098 1262.13761716 -81.34555795 1255.5084601 -87.01953125 1248.38671875 C-89.46443744 1245.44029335 -92.10736483 1242.77812271 -94.8828125 1240.14453125 C-97.41577328 1237.57885695 -99.74932396 1234.86911385 -102.11279297 1232.14770508 C-105.16608805 1228.67295258 -108.32746317 1225.3031994 -111.5 1221.9375 C-112.18634521 1221.20797119 -112.87269043 1220.47844238 -113.57983398 1219.72680664 C-118.90039311 1214.09960809 -124.33096992 1208.59263894 -129.86328125 1203.17358398 C-132.70334998 1200.37549262 -135.4188766 1197.54657947 -137.99609375 1194.50390625 C-143.92794783 1187.63287639 -150.55339486 1181.38176859 -157 1175 C-172.35551668 1159.79892099 -172.35551668 1159.79892099 -177.5 1153.72265625 C-180.32464584 1150.47872705 -183.43068386 1147.51001137 -186.5 1144.5 C-190.85152312 1140.19012077 -195.12394191 1135.89224332 -199.07421875 1131.20703125 C-201.32301307 1128.62981261 -203.66306398 1126.15058695 -206.01049805 1123.66333008 C-211.52564608 1117.81887637 -216.86607572 1111.92532822 -221.8828125 1105.640625 C-224.07908365 1102.9013643 -226.34813571 1100.23501612 -228.625 1097.5625 C-245.75790375 1077.00831981 -261.02125056 1054.7930855 -275 1032 C-275.42684082 1031.30471191 -275.85368164 1030.60942383 -276.29345703 1029.89306641 C-301.94558084 987.9599643 -321.09047456 942.75089909 -336 896 C-336.35529785 894.89849609 -336.7105957 893.79699219 -337.07666016 892.66210938 C-350.09404101 851.45019083 -353.48319626 805.99066154 -353 763 C-353.66 763 -354.32 763 -355 763 C-355.23364258 764.04849121 -355.46728516 765.09698242 -355.70800781 766.17724609 C-355.86396423 766.87701569 -356.01992065 767.57678528 -356.18060303 768.29776001 C-356.53664508 769.89949175 -356.89128399 771.50153589 -357.24468994 773.10385132 C-358.19601946 777.41305284 -359.1637127 781.71686735 -360.17382812 786.01269531 C-366.63195304 813.77255333 -368.84357991 840.54718118 -368.6875 868.9375 C-368.68244698 870.1085667 -368.68244698 870.1085667 -368.67729187 871.30329132 C-368.56674679 894.52645333 -367.28182766 917.04070021 -362.875 939.875 C-362.72349487 940.66615204 -362.57198975 941.45730408 -362.41589355 942.27243042 C-356.08098587 975.10678338 -345.31829219 1005.79420139 -331 1036 C-330.63648438 1036.77617676 -330.27296875 1037.55235352 -329.8984375 1038.35205078 C-320.62151785 1058.03712285 -309.67595061 1077.80596844 -296.43310547 1095.12353516 C-294.68051595 1097.41832273 -292.95276215 1099.73118564 -291.22265625 1102.04296875 C-283.77300185 1111.95372498 -276.20928645 1121.70623025 -268 1131 C-267.19175781 1131.91910156 -266.38351562 1132.83820313 -265.55078125 1133.78515625 C-259.6733858 1140.32859651 -253.51817943 1146.5817012 -247.3125 1152.8125 C-246.51650391 1153.61316895 -245.72050781 1154.41383789 -244.90039062 1155.23876953 C-240.09452099 1160.03165573 -235.15452933 1164.5863336 -230 1169 C-228.18309051 1170.59917067 -226.36984367 1172.20252615 -224.5625 1173.8125 C-223.71816406 1174.56144531 -222.87382812 1175.31039063 -222.00390625 1176.08203125 C-220 1178 -220 1178 -219 1180 C-224.89052534 1178.43111825 -229.63797568 1175.39507216 -234.75 1172.1875 C-236.13892456 1171.32016235 -236.13892456 1171.32016235 -237.5559082 1170.43530273 C-249.95171665 1162.60720815 -261.64801952 1153.88631922 -273.25 1144.9375 C-274.25776489 1144.16224976 -274.25776489 1144.16224976 -275.28588867 1143.37133789 C-277.54628168 1141.6070694 -279.77685884 1139.81103385 -282 1138 C-282.97283936 1137.20811279 -283.94567871 1136.41622559 -284.94799805 1135.6003418 C-295.08908945 1127.19481367 -304.36646748 1117.9388942 -313.65161133 1108.60913086 C-316.31824216 1105.93173466 -318.99546052 1103.26525895 -321.67382812 1100.59960938 C-338.03732837 1084.25009609 -338.03732837 1084.25009609 -345 1075 C-345.4962085 1074.36312256 -345.99241699 1073.72624512 -346.50366211 1073.07006836 C-359.3191955 1056.50353489 -369.93097626 1038.32607339 -380 1020 C-380.36544922 1019.33532715 -380.73089844 1018.6706543 -381.10742188 1017.98583984 C-395.92677054 990.63648634 -406.5545588 959.97330231 -413.9375 929.875 C-414.20796143 928.77542969 -414.47842285 927.67585937 -414.75708008 926.54296875 C-418.72593734 909.53537758 -420.46546865 892.83179022 -420.3984375 875.38671875 C-420.40046861 873.4749999 -420.40338854 871.56328181 -420.40713501 869.65156555 C-420.41151297 865.67754619 -420.40527795 861.70373153 -420.39111328 857.72973633 C-420.37405711 852.70730324 -420.38415513 847.68534803 -420.40142155 842.66293144 C-420.47261593 818.36317296 -420.49943823 794.57764888 -413.8125 771 C-412.10787053 764.85849806 -410.59993502 759.4010397 -411 753 C-411.66 753 -412.32 753 -413 753 C-427.43143472 783.51690208 -439.05408028 816.92912849 -446 850 C-446.31003918 851.31989997 -446.62396378 852.63889222 -446.94140625 853.95703125 C-449.22804535 863.57015668 -451.00987696 873.26348086 -452.6875 883 C-452.90204834 884.20938232 -453.11659668 885.41876465 -453.33764648 886.66479492 C-454.4342069 893.20519781 -455.20324993 899.65282417 -455.55297852 906.27050781 C-455.59471821 907.04761234 -455.6364579 907.82471687 -455.67946243 908.62537003 C-456.12335187 917.53463732 -456.18336427 926.44072374 -456.203125 935.359375 C-456.20595238 936.24214363 -456.20877975 937.12491226 -456.21169281 938.03443146 C-456.22652537 942.70231912 -456.2358561 947.37017713 -456.24023438 952.03808594 C-456.24462263 955.83896463 -456.25855029 959.6396168 -456.28125 963.44042969 C-456.56032995 992.85556036 -456.56032995 992.85556036 -453 1022 C-452.68434082 1023.85238281 -452.68434082 1023.85238281 -452.36230469 1025.7421875 C-451.68575629 1029.68696709 -450.94409605 1033.61677884 -450.1875 1037.546875 C-450.01734375 1038.47242188 -449.8471875 1039.39796875 -449.671875 1040.3515625 C-449.5181543 1041.15416504 -449.36443359 1041.95676758 -449.20605469 1042.78369141 C-448.98876252 1045.1208695 -449.29487169 1046.7759872 -450 1049 C-456.38933016 1042.63755685 -460.25984574 1035.38184912 -464.25 1027.375 C-464.9083039 1026.07336855 -465.56749598 1024.77218594 -466.22753906 1023.47143555 C-467.54741248 1020.86579413 -468.86038842 1018.25685023 -470.16796875 1015.64501953 C-471.76547491 1012.45800304 -473.39269487 1009.28723718 -475.03125 1006.12109375 C-494.50970648 968.26692939 -508.42285841 927.64267861 -517.34130859 886.05126953 C-517.97376154 883.12154494 -518.63412457 880.19944662 -519.30078125 877.27734375 C-526.38844809 845.64469191 -528.8536433 814.9403076 -528.70678711 782.59619141 C-528.68852758 778.45898755 -528.69535404 774.32315516 -528.72729492 770.18603516 C-529.02379409 731.7077557 -525.04112852 695.18233241 -515 658 C-514.44956495 655.87264293 -513.90007308 653.74504158 -513.3515625 651.6171875 C-504.99144732 619.85270492 -492.36113412 589.45028149 -476 561 C-475.26112549 559.70618408 -475.26112549 559.70618408 -474.50732422 558.38623047 C-467.80584538 546.71446974 -460.46350541 535.7051643 -452.421875 524.91699219 C-450.49765974 522.32273769 -448.62664243 519.6912888 -446.75 517.0625 C-440.74843304 508.8339365 -434.20513334 501.09603666 -427.3359375 493.58203125 C-426.07075909 492.18356481 -424.811671 490.77896345 -423.58862305 489.34350586 C-418.558129 483.45876263 -413.13879006 477.98649032 -407.6574707 472.52709961 C-406.06541034 470.94040054 -404.4787701 469.34842258 -402.89257812 467.75585938 C-397.97181209 462.83187612 -393.01367273 457.99996214 -387.71899414 453.47387695 C-385.13993835 451.26257745 -382.67337655 448.94051578 -380.1875 446.625 C-375.59440625 442.38689299 -370.88729778 438.34399807 -366.015625 434.42578125 C-363.80357784 432.64640135 -361.60793161 430.85369447 -359.421875 429.04296875 C-349.97572138 421.24420517 -340.25786925 413.88952977 -330.34082031 406.70117188 C-328.13374148 405.09719552 -325.93670443 403.480476 -323.7421875 401.859375 C-313.31279796 394.19541777 -302.60302052 386.99732364 -291.7734375 379.91503906 C-291.19968887 379.53741928 -290.62594025 379.1597995 -290.0348053 378.77073669 C-288.46085677 377.7348579 -286.88371998 376.70382817 -285.30639648 375.6730957 C-282.91071252 374.20592185 -282.91071252 374.20592185 -282 372 C-289.32639807 374.83778547 -296.27083606 378.10139552 -303.15966797 381.85229492 C-306.98154656 383.93078445 -310.82645162 385.93242043 -314.73120117 387.85083008 C-318.16781388 389.54018705 -321.58468484 391.26808147 -325 393 C-325.70060547 393.35271973 -326.40121094 393.70543945 -327.12304688 394.06884766 C-345.01563741 403.17992195 -361.45619509 414.68526835 -378 426 C-378.96292969 426.65806641 -379.92585937 427.31613281 -380.91796875 427.99414062 C-393.45722246 436.60626543 -405.41353816 445.82062956 -416.9375 455.75 C-417.54029785 456.26876709 -418.1430957 456.78753418 -418.76416016 457.32202148 C-422.36289024 460.45982311 -425.75413808 463.73890628 -429.10266113 467.14091492 C-430.88362182 468.88596821 -432.71635699 470.50699933 -434.61474609 472.12231445 C-439.53122203 476.39996054 -444.12159208 480.97789218 -448.72265625 485.58984375 C-449.62696884 486.49319962 -450.53128143 487.39655548 -451.46299744 488.32728577 C-453.36434943 490.22796068 -455.26467553 492.12959608 -457.16333008 494.03295898 C-459.57585861 496.45118392 -461.99285081 498.86488958 -464.41121769 501.27727413 C-466.74664575 503.60818401 -469.07822177 505.94293956 -471.41015625 508.27734375 C-472.26762955 509.13279282 -473.12510284 509.98824188 -474.00856018 510.86961365 C-478.3647163 515.2426279 -482.57849183 519.67902746 -486.59494019 524.36712646 C-488.35348967 526.41080382 -490.21027881 528.3537856 -492.0625 530.3125 C-497.74864896 536.60025517 -502.61358048 543.48718569 -507.58984375 550.33984375 C-510.31463424 554.08746479 -513.12482674 557.7419557 -516 561.375 C-530.25546498 579.80393992 -542.54324275 599.80749093 -552.109375 621.04248047 C-552.94696762 622.88343925 -553.81621778 624.70990067 -554.6875 626.53515625 C-555.4609375 628.15744141 -555.4609375 628.15744141 -556.25 629.8125 C-556.68828125 630.72644531 -557.1265625 631.64039063 -557.578125 632.58203125 C-561.89496646 642.95905399 -564.45280181 653.67118353 -566.88671875 664.61132812 C-567.13292969 665.68189453 -567.37914062 666.75246094 -567.6328125 667.85546875 C-567.95596436 669.30409302 -567.95596436 669.30409302 -568.28564453 670.78198242 C-568.52138184 671.51392822 -568.75711914 672.24587402 -569 673 C-569.66 673.33 -570.32 673.66 -571 674 C-572.67841616 670.64316769 -572.1627136 666.85599616 -572.16796875 663.1640625 C-572.17452484 661.81813774 -572.17452484 661.81813774 -572.18121338 660.44502258 C-572.32316636 619.92550258 -570.47520782 578.67609718 -558.359375 539.66796875 C-557.20120137 535.92230631 -556.39064764 532.16272351 -555.61328125 528.3203125 C-554.0658493 520.91758492 -551.86826888 513.84286859 -549.4375 506.6875 C-549.22035339 506.04348236 -549.00320679 505.39946472 -548.77947998 504.7359314 C-542.68108765 486.68177899 -535.46231045 469.13660481 -527.8125 451.6875 C-527.3376416 450.59671143 -526.8627832 449.50592285 -526.37353516 448.38208008 C-523.48923995 441.90111549 -520.26185262 435.77256357 -516.60766602 429.69165039 C-515.04590759 427.07686123 -513.57226093 424.42952923 -512.125 421.75 C-511.39023437 420.40035156 -511.39023437 420.40035156 -510.640625 419.0234375 C-509.77563751 417.42938913 -508.91166733 415.83476487 -508.05664062 414.23535156 C-491.77586651 383.86241804 -468.52910065 357.21285612 -444.08666992 333.10791016 C-441.5132816 330.55889185 -439.05345259 327.98277085 -436.75 325.1875 C-434.17542597 322.07406164 -431.267569 319.55059933 -428.19140625 316.94140625 C-425.74059942 314.77019236 -423.47342971 312.46889306 -421.1875 310.125 C-416.09732977 304.98848528 -410.64720122 300.5049102 -405 296 C-403.79118682 295.00345965 -402.58425864 294.00462978 -401.37890625 293.00390625 C-370.59120595 267.51130192 -336.14334205 245.27407686 -301.08691406 226.14648438 C-297.68449404 224.27730276 -294.30910408 222.36157255 -290.9375 220.4375 C-289.81214844 219.79683594 -288.68679688 219.15617188 -287.52734375 218.49609375 C-285.14329598 217.2260576 -285.14329598 217.2260576 -284 216 C-316.46682408 219.01774967 -348.63002448 231.3684729 -378 245 C-379.00047363 245.45455566 -380.00094727 245.90911133 -381.03173828 246.37744141 C-411.42783911 260.20678961 -439.73693559 278.10101643 -464.41796875 300.6640625 C-465.81643519 301.92924091 -467.22103655 303.188329 -468.65649414 304.41137695 C-474.54123737 309.441871 -480.01350968 314.86120994 -485.47290039 320.3425293 C-487.05959946 321.93458966 -488.65157742 323.5212299 -490.24414062 325.10742188 C-495.70516296 330.56461053 -501.02585069 336.08956067 -506 342 C-506.73605469 342.85464844 -507.47210938 343.70929688 -508.23046875 344.58984375 C-518.46582747 356.86818824 -527.41809358 369.92887368 -535 384 C-535.66 384 -536.32 384 -537 384 C-536.44242641 377.76661318 -535.00062214 372.37300674 -532.875 366.5 C-532.56369141 365.62778809 -532.25238281 364.75557617 -531.93164062 363.85693359 C-527.64482438 352.03368739 -522.49532011 340.70213129 -516.77734375 329.50390625 C-515.61562204 327.21365489 -514.48144735 324.90916515 -513.37890625 322.58984375 C-500.44024442 295.44460538 -483.82368398 269.40768992 -465 246 C-464.24332031 245.05125 -463.48664063 244.1025 -462.70703125 243.125 C-458.40658197 237.79569969 -453.95634862 232.63615912 -449.3359375 227.58203125 C-448.07459517 226.18780503 -446.81907332 224.78768873 -445.59960938 223.35668945 C-440.47729223 217.36535222 -434.96555524 211.77942331 -429.39501953 206.2097168 C-427.76172552 204.57424118 -426.1366153 202.93092292 -424.51171875 201.28710938 C-418.77765802 195.52251132 -412.93524614 190.13238472 -406.56152344 185.06494141 C-404.09980941 183.08046016 -401.74890406 181.01740214 -399.40625 178.89453125 C-394.95564454 174.89946067 -390.29410509 171.25955034 -385.5 167.6875 C-384.63197754 167.04014893 -383.76395508 166.39279785 -382.86962891 165.72583008 C-341.75437289 135.3491853 -293.28447397 113.38452051 -243 104 C-242.02659668 103.81453613 -241.05319336 103.62907227 -240.05029297 103.43798828 C-199.89507497 95.93387132 -155.55525196 94.71321989 -115 100 C-113.75895508 100.16129395 -112.51791016 100.32258789 -111.23925781 100.48876953 C-65.37833618 106.57907486 -21.68409392 117.81057879 20.18798828 137.68310547 C25.72576826 140.27650581 31.35173004 142.65853536 37 145 C32.39123727 139.45508234 27.58787491 134.55482241 22 130 C21.09894531 129.26136719 20.19789063 128.52273437 19.26953125 127.76171875 C10.71223599 120.96143468 1.62797515 115.17980315 -7.67041016 109.45068359 C-9.83360062 108.10362032 -11.97285955 106.72685041 -14.10546875 105.33203125 C-23.98827305 98.90562263 -34.23275999 93.7795592 -45 89 C-46.00522705 88.54246338 -46.00522705 88.54246338 -47.03076172 88.07568359 C-60.53236858 81.95718212 -74.68165558 77.65153493 -88.91521645 73.59456444 C-90.88436135 73.03297926 -92.85180619 72.46544283 -94.81913757 71.89753723 C-120.29857886 64.7754882 -145.01647377 63.76963578 -171.37231445 64.01196289 C-176.94803019 64.06317042 -182.52115038 64.04653157 -188.09690475 64.01148319 C-224.44929409 63.82198566 -256.33080192 68.85429544 -291 80 C-293.40734436 80.76237498 -295.81490031 81.52408212 -298.22265625 82.28515625 C-304.15582188 84.16755144 -310.08095282 86.07369662 -316 88 C-316 87.01 -316 86.02 -316 85 C-313.73825121 83.32063611 -311.53673255 81.87338863 -309.125 80.4375 C-308.40828125 80.00203857 -307.6915625 79.56657715 -306.953125 79.11791992 C-304.64534998 77.72771505 -302.32557221 76.36020392 -300 75 C-299.25202148 74.56139648 -298.50404297 74.12279297 -297.73339844 73.67089844 C-288.66433043 68.39542751 -279.50710439 63.70130822 -269.8359375 59.63671875 C-266.1442443 58.08354025 -262.54518678 56.36513148 -258.9375 54.625 C-248.85255178 49.85594965 -238.46221472 45.85673274 -228 42 C-227.0812207 41.6582373 -226.16244141 41.31647461 -225.21582031 40.96435547 C-210.76537582 35.69161752 -196.02571683 32.28303865 -181 29.125 C-180.08633667 28.93164062 -179.17267334 28.73828125 -178.23132324 28.5390625 C-172.17024049 27.26665726 -166.09887429 26.07736809 -160 25 C-159.31593079 24.87915039 -158.63186157 24.75830078 -157.92706299 24.63378906 C-144.2310348 22.34287649 -130.3211603 22.69290778 -116.47949219 22.73925781 C-113.05668695 22.75067294 -109.63419493 22.74405198 -106.21140099 22.73211288 C-102.87788981 22.72304104 -99.54445748 22.72943965 -96.2109375 22.734375 C-95.00738617 22.73032654 -93.80383484 22.72627808 -92.56381226 22.72210693 C-81.22186478 22.78346933 -70.04053202 24.01982733 -59.02734375 26.76953125 C-58.37149796 26.93241135 -57.71565216 27.09529144 -57.03993225 27.2631073 C-55.68080603 27.60279526 -54.32266441 27.94644889 -52.96557617 28.29418945 C-50.93744758 28.8125134 -48.9057205 29.31428689 -46.87304688 29.81445312 C-34.60359466 32.88075185 -22.77159968 36.94776535 -11.25 42.1875 C-10.41436523 42.56551758 -9.57873047 42.94353516 -8.71777344 43.33300781 C2.35484287 48.43350112 13.01236713 54.355582 23.24707031 60.97558594 C25.13401855 62.15891869 25.13401855 62.15891869 28 63 C28.53882813 63.55558594 29.07765625 64.11117187 29.6328125 64.68359375 C33.02804881 68.00599496 36.92822646 70.43857393 40.875 73.0625 C53.17719707 81.37318236 64.53366728 90.28488496 75.33666992 100.46411133 C76.55457803 101.58870548 77.7889667 102.69552272 79.0324707 103.79174805 C86.51780657 110.40012125 93.56694404 117.41483412 100.61450195 124.48413086 C102.69044426 126.56545189 104.77170422 128.64134813 106.85351562 130.71679688 C108.19823752 132.06217938 109.54264929 133.40787194 110.88671875 134.75390625 C111.49730637 135.36246964 112.10789398 135.97103302 112.73698425 136.59803772 C116.47232242 140.35340588 120.01795749 144.22934605 123.47621155 148.24153137 C125.51076705 150.58943079 127.63138917 152.85297252 129.75 155.125 C135.03944858 160.92736481 139.86952371 167.03044063 144.65185547 173.25341797 C145.94550654 174.92940127 147.25327307 176.59316413 148.56640625 178.25390625 C172 208.03371839 172 208.03371839 172 216 C180.91 215.01 189.82 214.02 199 213 C195.08415809 190.28811691 185.34491044 169.4193415 175 149 C174.62488281 148.24477051 174.24976563 147.48954102 173.86328125 146.71142578 C164.71823317 128.31183431 152.18398636 111.54565452 138.265625 96.4765625 C136.41767481 94.45656178 134.62825533 92.40728519 132.84375 90.33203125 C122.31586264 78.27363327 110.74323903 66.7054954 98 57 C96.95199765 56.15404252 95.90658101 55.3048753 94.86328125 54.453125 C83.34860906 45.11339089 71.10696105 36.36301918 57.91796875 29.5390625 C55.62995102 28.33226333 53.40533385 27.08148519 51.17578125 25.7734375 C36.04776806 16.97332348 20.06332884 10.18096253 3.41162109 4.81005859 C1 4 1 4 -1 3 C-0.67 2.01 -0.34 1.02 0 0 Z M391 581 C390.01725098 581.19722656 389.03450195 581.39445313 388.02197266 581.59765625 C367.44314367 585.8060315 348.48800942 592.12724812 329.92919922 601.97802734 C327.88871323 603.05895298 325.8377825 604.11811052 323.78515625 605.17578125 C322.41874845 605.88701814 321.05284521 606.5992254 319.6875 607.3125 C319.05859863 607.63798828 318.42969727 607.96347656 317.78173828 608.29882812 C313.44734025 610.59251115 313.44734025 610.59251115 310 614 C310 614.66 310 615.32 310 616 C313.77937152 615.47045274 316.88454 614.21423364 320.31518555 612.57495117 C329.36667498 608.25693361 338.69381469 604.87487209 348.1875 601.6875 C350.03782837 601.05726929 350.03782837 601.05726929 351.92553711 600.41430664 C372.69330855 593.55693263 392.78716481 592.81287456 414.40991211 592.81469727 C417.29881538 592.81251036 420.18733554 592.7942655 423.07617188 592.77539062 C444.41688779 592.70992483 464.33200421 594.94968275 484.73046875 601.34375 C488.03825517 602.30021836 491.37755646 602.96920651 494.765625 603.57421875 C497 604 497 604 500 604.9375 C506.08013718 605.06416952 511.71506347 601.17793146 516.4375 597.5625 C519.14624611 594.85375389 520.64891072 592.5764128 522 589 C521.1749861 586.76201111 521.1749861 586.76201111 518.73217773 586.23852539 C477.30959638 576.48147716 433.06036059 572.41463061 391 581 Z M456.203125 629.9453125 C418.00976251 630.05201029 373.587251 645.82580679 343 668 C341.60473201 668.98387514 340.20893627 669.96700249 338.8125 670.94921875 C337.54094459 671.86097298 336.27009633 672.77371434 335 673.6875 C334.34644531 674.14705078 333.69289063 674.60660156 333.01953125 675.08007812 C328.56661893 678.25114718 328.56661893 678.25114718 326 683 C330.22317955 682.38875674 333.38445621 680.92107837 337.12890625 678.90234375 C338.33050189 678.26251244 339.5323343 677.62312565 340.734375 676.98413086 C341.35892578 676.64960907 341.98347656 676.31508728 342.62695312 675.97042847 C361.43055919 665.93565213 380.27199522 658.18178413 401 653 C401.69586716 652.81917877 402.39173431 652.63835754 403.10868835 652.45205688 C410.94739531 650.6359526 418.76500965 650.70904642 426.76171875 650.734375 C428.28090985 650.73302363 429.80010052 650.7310792 431.31929016 650.72857666 C434.49211779 650.72564308 437.66483213 650.72986273 440.83764648 650.73925781 C444.86037414 650.75060228 448.88283332 650.74411347 452.90555096 650.73211288 C456.04154902 650.72480423 459.17748596 650.72722377 462.3134861 650.73236847 C463.79432013 650.73368279 465.2751601 650.73213714 466.75598717 650.72740936 C475.56997095 650.70545191 484.10008903 651.22715711 492.81404114 652.57794189 C499.8750119 653.51334002 505.1768291 652.67267864 511.0703125 648.58984375 C514.46673135 645.79157964 517.70901682 642.78012224 520 639 C520.25124826 636.33238236 520.25124826 636.33238236 520 634 C512.04351069 630.70117766 512.04351069 630.70117766 503.6015625 630.51171875 C498.00913593 631.24849876 492.49111474 630.85577191 486.875 630.5625 C484.63029152 630.46039413 482.38549902 630.36011792 480.140625 630.26171875 C479.07263672 630.21450684 478.00464844 630.16729492 476.90429688 630.11865234 C469.99708166 629.8364645 463.11072874 630.04480473 456.203125 629.9453125 Z " fill="#1C3A21" transform="translate(613,53)"/>
<path d="M0 0 C2.72457352 2.40720561 4.10255908 4.89417598 5.671875 8.15625 C6.17203125 9.17976562 6.6721875 10.20328125 7.1875 11.2578125 C8.214 13.38780001 9.24005547 15.51800182 10.265625 17.6484375 C15.21238633 27.76910736 21.05049019 37.04684935 27.875 46 C28.39255859 46.68368652 28.91011719 47.36737305 29.44335938 48.07177734 C34.7795808 55.08504982 40.32028241 61.90596886 46.08203125 68.57421875 C46.61699219 69.19409668 47.15195312 69.81397461 47.703125 70.45263672 C48.74501008 71.65668413 49.79036737 72.85773934 50.83984375 74.05517578 C51.32195313 74.61060059 51.8040625 75.16602539 52.30078125 75.73828125 C52.72528564 76.22337158 53.14979004 76.70846191 53.5871582 77.20825195 C54.053396 77.79952881 54.51963379 78.39080566 55 79 C55.99459229 80.16752808 55.99459229 80.16752808 57.00927734 81.35864258 C60.30822357 86.41301812 60.64186227 92.68548856 61.55078125 98.5234375 C61.77322915 99.87012252 61.99740102 101.21652377 62.22319031 102.56265259 C63.05380008 107.53759573 63.85361225 112.51738827 64.65332031 117.49737549 C67.64313105 136.08453522 71.20190756 154.03518946 77 172 C77.40440252 173.30490248 77.80662822 174.61048335 78.20581055 175.91699219 C93.26450317 224.61286455 116.58499822 272.64057891 147.64208984 313.21386719 C149.09984514 315.13133172 150.53016064 317.06726847 151.95703125 319.0078125 C157.52984682 326.56464366 163.2913974 333.87679451 169.421875 340.98828125 C171.81615062 343.78523049 174.13366568 346.62849428 176.4375 349.5 C184.15295166 358.96208689 192.59644079 367.75063761 201.33203125 376.26953125 C203.27395738 378.25694906 205.05089167 380.22430312 206.8371582 382.33935547 C211.7502703 387.97179425 217.08440238 393.17934814 222.39158249 398.43618202 C224.31292141 400.33990311 226.23050163 402.24733983 228.14712524 404.1558075 C233.59213983 409.57657216 239.04278409 414.99164889 244.49804688 420.40209961 C247.84970399 423.72674186 251.19628197 427.05643014 254.53993607 430.3891201 C255.80329744 431.64633876 257.06854374 432.90166661 258.33582687 434.15493202 C264.9697701 440.71614184 271.31551145 447.28215405 277.0921936 454.623703 C279.04861972 457.06055903 281.11506684 459.34394122 283.25 461.625 C289.66696964 468.68700298 295.2881936 476.36762284 301 484 C301.56912109 484.75490723 302.13824219 485.50981445 302.72460938 486.28759766 C315.92449596 503.80914202 328.25541953 521.86251445 339 541 C339.45020508 541.79889648 339.90041016 542.59779297 340.36425781 543.42089844 C367.50852164 591.81173477 400.84524748 652.92904146 402.3515625 709.38671875 C402.38717537 710.59083405 402.38717537 710.59083405 402.42350769 711.8192749 C402.49747511 714.4418904 402.5628404 717.0645789 402.625 719.6875 C402.65719131 721.03933884 402.65719131 721.03933884 402.69003296 722.41848755 C403.93438502 777.38029994 403.93438502 777.38029994 398 796 C397.7436377 796.86286621 397.48727539 797.72573242 397.22314453 798.61474609 C385.80315722 836.9565774 366.31798706 871.2020085 341 902 C339.88395386 903.37309326 339.88395386 903.37309326 338.74536133 904.77392578 C331.88073463 913.1195344 324.46656076 920.81257439 316.79223633 928.41357422 C314.79897736 930.38839756 312.81401675 932.37128631 310.83007812 934.35546875 C304.72559149 940.44318561 298.62705891 946.47528944 292 952 C291.48219971 952.4448877 290.96439941 952.88977539 290.4309082 953.34814453 C289.04767865 954.53598977 287.64934512 955.70618284 286.25 956.875 C285.34765625 957.63554688 284.4453125 958.39609375 283.515625 959.1796875 C281.20688717 960.85029593 279.77873933 961.59747234 277 962 C278.4792455 958.61229787 280.40833753 956.30508899 282.9375 953.625 C288.66545872 947.35976058 293.84137418 940.73100696 299 934 C299.55961426 933.27554688 300.11922852 932.55109375 300.69580078 931.8046875 C316.26227496 911.61404223 330.42209069 890.74340715 342 868 C342.60400635 866.82074951 342.60400635 866.82074951 343.22021484 865.61767578 C354.92878887 842.51909505 363.28581308 817.96483626 370 793 C370.17656128 792.3543811 370.35312256 791.70876221 370.53503418 791.0435791 C376.55179128 768.96564084 377.8996913 748.11273785 377.12939453 725.28320312 C377.00903726 721.6506747 376.98177904 718.02541702 376.99609375 714.390625 C376.69681066 639.89407493 330.92721534 571.12884432 285.44433594 515.76025391 C284.14855163 514.18104416 282.85902202 512.59670714 281.5703125 511.01171875 C277.13912913 505.56341322 272.63442366 500.18320436 268.08325195 494.83520508 C265.19081537 491.43017203 262.36171074 487.98256237 259.5625 484.5 C255.18315122 479.11426586 250.49955162 474.05183201 245.765625 468.98046875 C243.67089076 466.73401311 241.62670331 464.45526572 239.625 462.125 C236.17705073 458.14202412 232.59091987 454.29114722 229 450.4375 C228.12722412 449.49898193 228.12722412 449.49898193 227.23681641 448.54150391 C224.37681483 445.48209823 221.48429941 442.47365865 218.5 439.53515625 C216.1136603 437.17031212 213.87307165 434.73871983 211.6875 432.1875 C207.38254933 427.20029152 202.69097937 422.62096475 198 418 C192.63807199 412.71810077 187.38606413 407.42951776 182.48388672 401.71533203 C180.59573443 399.53268017 178.6067312 397.47400253 176.5625 395.4375 C175.88316406 394.75558594 175.20382812 394.07367187 174.50390625 393.37109375 C172.60820911 391.57594841 170.69987307 389.89530794 168.7109375 388.2109375 C162.2173001 382.53804225 156.20961277 376.35329933 150.12109375 370.25390625 C148.78180764 368.91529513 147.44237324 367.57683237 146.10279846 366.23851013 C143.30657004 363.4437495 140.51214141 360.64720514 137.71899414 357.84936523 C134.15631983 354.28099423 130.58917403 350.71713236 127.02065945 347.154603 C124.25718 344.39475402 121.49610758 341.63250678 118.73573494 338.8695507 C117.42208093 337.55523429 116.10769667 336.24164731 114.7925396 334.92883492 C102.38506172 322.53863151 102.38506172 322.53863151 97.32569885 316.54588318 C95.18672324 314.05164671 92.850739 311.79542749 90.5 309.5 C86.11597067 305.16118978 81.94295753 300.7439923 78 296 C77.33991943 295.21061035 77.33991943 295.21061035 76.66650391 294.40527344 C63.93118043 279.12955953 51.6199844 263.45317236 42 246 C41.54947266 245.19175781 41.09894531 244.38351562 40.63476562 243.55078125 C27.36166508 219.55641791 17.68074554 194.29118421 10 168 C9.71286133 167.0311084 9.42572266 166.0622168 9.12988281 165.06396484 C3.0463973 144.00659251 0.84202738 122.06532905 -1.72009277 100.36065674 C-1.95908532 98.34506257 -2.20579733 96.33038621 -2.45410156 94.31591797 C-6.01630261 64.75914847 -7.87552804 28.95414721 0 0 Z " fill="#1D3B22" transform="translate(469,552)"/>
<path d="M0 0 C-1.56870195 3.66598825 -3.80508853 6.20551258 -6.5 9.125 C-6.96776855 9.63434082 -7.43553711 10.14368164 -7.91748047 10.66845703 C-10.99281846 13.97534531 -14.16783305 17.15769466 -17.4140625 20.296875 C-32.48354234 34.90088828 -43.84221938 48.25080314 -44.24194336 70.15014648 C-44.37813632 107.76003902 -24.25870195 139.12839503 -3.79516602 169.30981445 C6.84198142 185.06602019 16.78089349 201.37510998 26 218 C26.48033691 218.86351074 26.96067383 219.72702148 27.45556641 220.61669922 C49.18530035 260.02701669 61.8466923 302.27625111 66 347 C66.07202637 347.75684082 66.14405273 348.51368164 66.21826172 349.29345703 C66.63367839 353.85863276 66.86932204 358.41918052 67 363 C67.02723145 363.86786133 67.05446289 364.73572266 67.08251953 365.62988281 C68.49312996 417.920058 56.00941689 471.09579269 33 518 C32.65146973 518.71091797 32.30293945 519.42183594 31.94384766 520.15429688 C27.49018759 529.11550028 22.4686677 537.71484396 17.25 546.25 C16.70698242 547.14388428 16.16396484 548.03776855 15.60449219 548.95874023 C12.76842882 553.52267564 10.00747472 557.40811526 6 561 C7.18741574 555.01485638 8.78444367 549.41249501 10.9765625 543.72265625 C11.56723229 542.15512588 12.15763537 540.58749499 12.74780273 539.01977539 C13.05450897 538.21105988 13.36121521 537.40234436 13.67721558 536.56912231 C28.95089862 496.17454124 39.01028501 455.30245374 43.3125 412.3125 C43.38895752 411.55501465 43.46541504 410.7975293 43.54418945 410.01708984 C44.56799909 398.32634284 44.02389747 386.71394111 42.8125 375.0625 C42.6794043 373.77762695 42.54630859 372.49275391 42.40917969 371.16894531 C37.9557034 329.51741296 27.20933874 292.72497629 8.65722656 255.34960938 C7.20950201 252.42344838 5.78275064 249.48867862 4.3671875 246.546875 C-2.0579713 233.28827847 -9.42607573 220.63062658 -17 208 C-17.59925293 206.99936523 -18.19850586 205.99873047 -18.81591797 204.96777344 C-25.09602331 194.50715978 -31.49718404 184.14261168 -38.16650391 173.92578125 C-49.63088076 156.32356648 -59.92490494 137.9430033 -69 119 C-69.41362793 118.14229004 -69.82725586 117.28458008 -70.25341797 116.40087891 C-81.14080485 93.69130942 -89.46972359 70.5587487 -96.375 46.375 C-96.62821014 45.48870911 -96.88142029 44.60241821 -97.14230347 43.68927002 C-99.72668687 34.59601059 -102.19856349 25.47978321 -104.4140625 16.2890625 C-104.59166107 15.56504242 -104.76925964 14.84102234 -104.95223999 14.09506226 C-105.34838081 12.4070288 -105.68135491 10.70436199 -106 9 C-103.83662102 6.83662102 -99.54179099 7.81339563 -96.62573242 7.81054688 C-90.38530813 7.87420253 -84.23829854 8.49942042 -78.05126953 9.28833008 C-67.83008106 10.53354538 -57.81719289 10.12928091 -47.625 8.8125 C-46.09057251 8.61720703 -46.09057251 8.61720703 -44.52514648 8.41796875 C-31.49437811 6.65583641 -18.31658852 4.18766 -6.00561523 -0.52929688 C-3.66419458 -1.07881106 -2.25780017 -0.751651 0 0 Z " fill="#1D3B22" transform="translate(875,812)"/>
<path d="M0 0 C-1.39794111 3.87378108 -3.21511417 7.03565324 -5.52734375 10.4375 C-6.23181641 11.48631348 -6.93628906 12.53512695 -7.66210938 13.61572266 C-8.21934692 14.44272675 -8.21934692 14.44272675 -8.7878418 15.28643799 C-34.92844149 54.24892134 -48.00669752 95.07076045 -47 142 C-46.98743164 142.76538086 -46.97486328 143.53076172 -46.96191406 144.31933594 C-46.25265004 180.23125515 -32.29770649 213.8299901 -18.47363281 246.51513672 C-17.12484443 249.7047665 -15.7909638 252.90017097 -14.4609375 256.09765625 C-10.05313883 266.62368724 -5.30988157 276.89990957 0 287 C0.72848145 288.3931543 0.72848145 288.3931543 1.47167969 289.81445312 C19.12664989 323.45822574 38.94281706 356.62814785 62.72314453 386.36035156 C64.91254516 389.17182663 66.9498112 392.08598843 69 395 C68.67 395.66 68.34 396.32 68 397 C60.29162301 391.27175655 53.52663561 384.71910199 46.75 377.9375 C45.89889648 377.08704102 45.04779297 376.23658203 44.17089844 375.36035156 C39.81550284 370.96751215 35.61002963 366.50252234 31.57763672 361.81176758 C29.65761025 359.60679753 27.64904317 357.50001741 25.62719727 355.38891602 C-1.83730639 326.50857225 -18.27128877 286.82115479 -36.1953125 251.75 C-40.60389636 243.16155982 -45.02894966 234.68916959 -50.25 226.5625 C-58.1577397 214.23011717 -64.11479058 201.57961631 -68.25585938 187.51367188 C-68.76725161 185.78621306 -69.29556444 184.06370146 -69.83789062 182.34570312 C-75.23232605 165.09081599 -75.78181604 148.97275653 -75 131 C-74.95311035 129.69530762 -74.9062207 128.39061523 -74.85791016 127.04638672 C-74.26622334 111.53040533 -73.15292237 96.72263535 -68 82 C-67.77296387 81.34580078 -67.54592773 80.69160156 -67.31201172 80.01757812 C-61.14822165 62.71540557 -52.65076435 45.67373035 -40.05859375 32.2109375 C-38.42545697 30.4569424 -36.91579515 28.69396655 -35.4375 26.8125 C-32.90765629 23.89344956 -30.23281548 21.47745328 -27.29296875 18.984375 C-24.68600919 16.7282669 -22.19757301 14.36326417 -19.6875 12 C-6.5315367 0 -6.5315367 0 0 0 Z " fill="#1F3C24" transform="translate(638,500)"/>
<path d="M0 0 C50.63653952 -0.02337636 101.27307846 -0.04074684 151.9096224 -0.05106533 C158.01746638 -0.05231463 164.12531034 -0.05360909 170.2331543 -0.05493164 C172.05554743 -0.05532511 172.05554743 -0.05532511 173.91475659 -0.05572652 C190.72930501 -0.05944933 207.54385095 -0.06555909 224.35839777 -0.0737354 C324.02031189 -0.12215329 423.68054882 -0.10259929 523.34139895 0.40981603 C528.43768558 0.43598577 533.53397664 0.46113389 538.63026984 0.48598422 C621.18587113 0.88972913 621.18587113 0.88972913 661 2 C661 3.32 661 4.64 661 6 C442.87 6 224.74 6 0 6 C0 4.02 0 2.04 0 0 Z " fill="#6E6E6E" transform="translate(456,1614)"/>
<path d="M0 0 C0.66 0 1.32 0 2 0 C2.13462646 0.63574951 2.26925293 1.27149902 2.40795898 1.92651367 C13.76846431 54.880899 36.36277065 100.39578057 65.04736328 145.89746094 C67.63821089 150.01405151 70.21305995 154.14053042 72.78759766 158.26733398 C77.96461305 166.56506118 83.15651439 174.85328828 88.375 183.125 C88.85694824 183.89110596 89.33889648 184.65721191 89.83544922 185.4465332 C92.10969886 189.05206048 94.40976819 192.63462761 96.77734375 196.1796875 C97.2067627 196.8279248 97.63618164 197.47616211 98.07861328 198.14404297 C99.22768298 199.87242204 100.38876561 201.59279798 101.55078125 203.3125 C102.26814453 204.6428125 102.26814453 204.6428125 103 206 C102.67 206.99 102.34 207.98 102 209 C80.87416556 194.2246168 60.92638953 176.2972683 45 156 C44.10678573 154.89606852 43.21219238 153.79325181 42.31640625 152.69140625 C10.43952318 113.23563726 -5.87726697 55.44290905 -0.77612305 4.77636719 C-0.55154089 3.17907378 -0.28232955 1.58810372 0 0 Z " fill="#1F3C24" transform="translate(688,755)"/>
<path d="M0 0 C2.81263045 0.01087198 5.62464285 -0.00003356 8.43725586 -0.01269531 C10.23217914 -0.01137614 12.02710204 -0.00881879 13.82202148 -0.00488281 C15.07815498 -0.01095551 15.07815498 -0.01095551 16.35966492 -0.01715088 C20.27946264 0.01471719 22.25706265 0.0377488 25.59155273 2.26074219 C17.46873516 4.3731103 9.3305042 6.16781545 1.09155273 7.76074219 C-9.15722467 9.76289773 -19.37444451 11.88560933 -29.58032227 14.09667969 C-31.92079926 14.60131952 -34.26129418 15.10587624 -36.60180664 15.61035156 C-40.11594865 16.36811346 -43.62916164 17.12930021 -47.14013672 17.90161133 C-50.46203437 18.63203501 -53.78647192 19.34974858 -57.11157227 20.06542969 C-58.5976297 20.39781143 -58.5976297 20.39781143 -60.1137085 20.73690796 C-66.30003022 22.05384133 -72.08753206 22.53322701 -78.40844727 22.26074219 C-77.40844727 19.26074219 -77.40844727 19.26074219 -75.74804688 18.22094727 C-75.02625244 17.9105249 -74.30445801 17.60010254 -73.56079102 17.28027344 C-72.32921265 16.74672241 -72.32921265 16.74672241 -71.07275391 16.20239258 C-70.17290771 15.82977295 -69.27306152 15.45715332 -68.34594727 15.07324219 C-67.41580811 14.68322021 -66.48566895 14.29319824 -65.52734375 13.89135742 C-58.42269435 10.96959322 -51.23888954 8.30923185 -43.97094727 5.82324219 C-42.55446899 5.32884644 -42.55446899 5.32884644 -41.109375 4.82446289 C-27.54227699 0.33026631 -14.14559557 -0.06529702 0 0 Z " fill="#203E26" transform="translate(809.408447265625,313.7392578125)"/>
<path d="M0 0 C-0.50972289 5.56387657 -1.97140218 9.64197596 -4.5625 14.5625 C-4.91892578 15.25432373 -5.27535156 15.94614746 -5.64257812 16.65893555 C-6.74589195 18.78145734 -7.86828599 20.89249923 -9 23 C-9.34015137 23.63486328 -9.68030273 24.26972656 -10.03076172 24.92382812 C-14.79467801 33.72808694 -19.87379576 42.87379576 -27 50 C-29.125 49.625 -29.125 49.625 -31 49 C-28.60844049 35.02825762 -20.21864634 17.93048495 -10 8 C-8.93845703 6.88625 -8.93845703 6.88625 -7.85546875 5.75 C-2.31510417 0 -2.31510417 0 0 0 Z " fill="#1F3E24" transform="translate(1303,637)"/>
<path d="M0 0 C0.33 0 0.66 0 1 0 C1 25.08 1 50.16 1 76 C0.34 76 -0.32 76 -1 76 C-2.0186878 69.27787444 -2.14542755 62.70616898 -2.1328125 55.9140625 C-2.13376923 54.77593109 -2.13472595 53.63779968 -2.13571167 52.46517944 C-2.13638925 50.07330266 -2.13456453 47.68142399 -2.13037109 45.28955078 C-2.12498706 41.61616952 -2.13034561 37.94290888 -2.13671875 34.26953125 C-2.13605848 31.94270806 -2.13477837 29.61588495 -2.1328125 27.2890625 C-2.13483673 26.18704498 -2.13686096 25.08502747 -2.13894653 23.94961548 C-2.13579437 22.93450897 -2.13264221 21.91940247 -2.12939453 20.87353516 C-2.12859894 19.9783316 -2.12780334 19.08312805 -2.12698364 18.16079712 C-2 16 -2 16 -1 14 C-0.76970044 11.62876754 -0.58880058 9.25258057 -0.4375 6.875 C-0.35371094 5.59367188 -0.26992187 4.31234375 -0.18359375 2.9921875 C-0.09271484 1.51105469 -0.09271484 1.51105469 0 0 Z " fill="#98A79C" transform="translate(155,969)"/>
<path d="M0 0 C0.66 0 1.32 0 2 0 C2.06058594 1.14339844 2.12117187 2.28679687 2.18359375 3.46484375 C2.26798428 4.95574305 2.35263302 6.44662775 2.4375 7.9375 C2.47681641 8.69224609 2.51613281 9.44699219 2.55664062 10.22460938 C2.44038024 13.91944187 2.44038024 13.91944187 4 17 C4.10009365 18.99016386 4.13081153 20.98388417 4.1328125 22.9765625 C4.13474609 24.81927734 4.13474609 24.81927734 4.13671875 26.69921875 C4.13285156 27.99472656 4.12898437 29.29023437 4.125 30.625 C4.12886719 31.89730469 4.13273438 33.16960937 4.13671875 34.48046875 C4.13542969 35.71667969 4.13414062 36.95289063 4.1328125 38.2265625 C4.13168457 39.35658691 4.13055664 40.48661133 4.12939453 41.65087891 C3.99387535 45.15852437 3.55364134 48.53575564 3 52 C2.67 52 2.34 52 2 52 C1.34 34.84 0.68 17.68 0 0 Z " fill="#506A59" transform="translate(845,1246)"/>
<path d="M0 0 C1.21242575 3.63727724 0.92024685 6.75544072 0.66015625 10.51171875 C0.61434921 11.23994339 0.56854218 11.96816803 0.52134705 12.71846008 C0.37392486 15.04186674 0.2183175 17.36464274 0.0625 19.6875 C-0.03895139 21.26363721 -0.13986928 22.83980887 -0.24023438 24.41601562 C-0.48730309 28.27777046 -0.74171347 32.13897988 -1 36 C-1.66 36 -2.32 36 -3 36 C-3 28.74 -3 21.48 -3 14 C-2.34 14 -1.68 14 -1 14 C-1.01160156 13.15695312 -1.02320313 12.31390625 -1.03515625 11.4453125 C-1.04417969 10.34960938 -1.05320312 9.25390625 -1.0625 8.125 C-1.07410156 7.03445313 -1.08570313 5.94390625 -1.09765625 4.8203125 C-1 2 -1 2 0 0 Z " fill="#59705E" transform="translate(591,605)"/>
<path d="M0 0 C5.09210286 3.56320845 9.22660027 7.04741286 13 12 C7.03347646 10.42986223 2.17090975 7.24970218 -3 4 C-2.01 3.34 -1.02 2.68 0 2 C0 1.34 0 0.68 0 0 Z " fill="#2F5234" transform="translate(381,1221)"/>
<path d="M0 0 C6.22987798 0.50512524 11.45474233 3.32604123 17 6 C16.01 7.485 16.01 7.485 15 9 C2.23529412 4.47058824 2.23529412 4.47058824 0 0 Z " fill="#35573F" transform="translate(741,79)"/>
<path d="M0 0 C0.33 0.66 0.66 1.32 1 2 C0.22265625 4.1640625 0.22265625 4.1640625 -0.9375 6.625 C-1.31777344 7.44226563 -1.69804687 8.25953125 -2.08984375 9.1015625 C-2.54037109 10.04128906 -2.54037109 10.04128906 -3 11 C-3.66 10.34 -4.32 9.68 -5 9 C-6.98 9.99 -6.98 9.99 -9 11 C-8.06558465 9.72689688 -7.12732889 8.456612 -6.1875 7.1875 C-5.66542969 6.47980469 -5.14335937 5.77210938 -4.60546875 5.04296875 C-3.16871123 3.21468607 -1.68184237 1.60103312 0 0 Z " fill="#324F39" transform="translate(364,482)"/>
<path d="M0 0 C3.96 0 7.92 0 12 0 C12.33 1.32 12.66 2.64 13 4 C11.68 4.33 10.36 4.66 9 5 C9.33 4.34 9.66 3.68 10 3 C6.7 2.67 3.4 2.34 0 2 C0 1.34 0 0.68 0 0 Z " fill="#536B59" transform="translate(828,399)"/>
<path d="M0 0 C-1.87144695 0.82065069 -3.74734336 1.6311584 -5.625 2.4375 C-6.66914062 2.88996094 -7.71328125 3.34242188 -8.7890625 3.80859375 C-11.88685251 4.95801705 -14.73210054 5.57311223 -18 6 C-15.14160085 3.69740069 -12.39581962 2.13731655 -9 0.75 C-8.154375 0.39421875 -7.30875 0.0384375 -6.4375 -0.328125 C-3.81117065 -1.05204912 -2.52787043 -0.9128421 0 0 Z " fill="#516857" transform="translate(948,661)"/>
<path d="M0 0 C2 3 2 3 3 6 C1.6875 8.6875 1.6875 8.6875 0 11 C-0.66 11 -1.32 11 -2 11 C-1.125 3.375 -1.125 3.375 0 0 Z " fill="#2B4933" transform="translate(78,426)"/>
<path d="M0 0 C2.64 0 5.28 0 8 0 C8 0.66 8 1.32 8 2 C6.02 2 4.04 2 2 2 C3.32 3.65 4.64 5.3 6 7 C4.68 7 3.36 7 2 7 C2 6.34 2 5.68 2 5 C1.34 5 0.68 5 0 5 C0 3.35 0 1.7 0 0 Z " fill="#47604D" transform="translate(864,391)"/>
<path d="M0 0 C2.64 0 5.28 0 8 0 C8 1.65 8 3.3 8 5 C6.68 5 5.36 5 4 5 C4 5.66 4 6.32 4 7 C2.68 6.67 1.36 6.34 0 6 C1.98 4.68 3.96 3.36 6 2 C4.02 2 2.04 2 0 2 C0 1.34 0 0.68 0 0 Z " fill="#536B58" transform="translate(323,267)"/>
<path d="M0 0 C3.96 0 7.92 0 12 0 C12 0.33 12 0.66 12 1 C4.08 2.485 4.08 2.485 -4 4 C-4 3.34 -4 2.68 -4 2 C-2.68 2 -1.36 2 0 2 C0 1.34 0 0.68 0 0 Z " fill="#546C59" transform="translate(307,269)"/>
<path d="M0 0 C0.99 0.33 1.98 0.66 3 1 C0.03 4.96 0.03 4.96 -3 9 C-3.33 8.01 -3.66 7.02 -4 6 C-2.84338843 3.79192337 -1.77322566 1.77322566 0 0 Z " fill="#23402C" transform="translate(885,1364)"/>
<path d="M0 0 C3.67420866 0.30618405 4.78135513 0.75771784 7.3125 3.5625 C8.1478125 4.7690625 8.1478125 4.7690625 9 6 C5.59687262 4.94124926 2.98646769 3.99097846 0 2 C0 1.34 0 0.68 0 0 Z " fill="#37503B" transform="translate(385,1227)"/>
<path d="M0 0 C1.32 0 2.64 0 4 0 C3.88601335 1.62580966 3.75844341 3.25067157 3.625 4.875 C3.52058594 6.23238281 3.52058594 6.23238281 3.4140625 7.6171875 C3 10 3 10 1 12 C1.33 8.7 1.66 5.4 2 2 C1.34 2 0.68 2 0 2 C0 1.34 0 0.68 0 0 Z " fill="#566E5C" transform="translate(1250,713)"/>
<path d="M0 0 C1.29608947 0.93137592 2.58671632 1.8703566 3.875 2.8125 C4.59429688 3.33457031 5.31359375 3.85664063 6.0546875 4.39453125 C8 6 8 6 10 9 C6 9 6 9 4.296875 7.5390625 C3.78640625 6.90742188 3.2759375 6.27578125 2.75 5.625 C2.22921875 4.99851562 1.7084375 4.37203125 1.171875 3.7265625 C0 2 0 2 0 0 Z " fill="#496653" transform="translate(994,387)"/>
<path d="M0 0 C0.99 0.33 1.98 0.66 3 1 C2.67 3.97 2.34 6.94 2 10 C1.34 9.67 0.68 9.34 0 9 C0 6.03 0 3.06 0 0 Z " fill="#325838" transform="translate(588,641)"/>
<path d="M0 0 C1.32 0 2.64 0 4 0 C4 1.65 4 3.3 4 5 C3.34 5 2.68 5 2 5 C2 5.66 2 6.32 2 7 C0.68 6.67 -0.64 6.34 -2 6 C-0.68 4.68 0.64 3.36 2 2 C1.34 2 0.68 2 0 2 C0 1.34 0 0.68 0 0 Z " fill="#4D6552" transform="translate(329,423)"/>
<path d="M0 0 C0.33 0 0.66 0 1 0 C1 1.65 1 3.3 1 5 C1.66 5 2.32 5 3 5 C3 5.99 3 6.98 3 8 C1.68 8 0.36 8 -1 8 C-1.125 2.25 -1.125 2.25 0 0 Z " fill="#617666" transform="translate(128,899)"/>
<path d="M0 0 C0.66 0 1.32 0 2 0 C2 0.66 2 1.32 2 2 C2.66 2 3.32 2 4 2 C4 4.64 4 7.28 4 10 C1.81024227 6.71536341 1.00193437 3.79303725 0 0 Z " fill="#5C7463" transform="translate(681,389)"/>
<path d="M0 0 C2.625 0.9375 2.625 0.9375 5 2 C4.01 3.485 4.01 3.485 3 5 C0.525 4.01 0.525 4.01 -2 3 C-2 2.34 -2 1.68 -2 1 C-1.34 0.67 -0.68 0.34 0 0 Z " fill="#2E4832" transform="translate(753,83)"/>
<path d="M0 0 C0.66 0.99 1.32 1.98 2 3 C-1.75 6 -1.75 6 -4 6 C-2.84826645 3.53199953 -1.95216435 1.95216435 0 0 Z " fill="#334F3C" transform="translate(750,1508)"/>
<path d="" fill="#596F5E" transform="translate(0,0)"/>
<path d="" fill="#305040" transform="translate(0,0)"/>
</svg>