<?xml version="1.0" encoding="UTF-8"?>
<svg id="Layer_1" xmlns="http://www.w3.org/2000/svg" version="1.1" viewBox="0 0 1358 1629">
  <!-- Generator: Adobe Illustrator 30.0.0, SVG Export Plug-In . SVG Version: 2.1.1 Build 123)  -->
  <defs>
    <style>
      .st0 {
        fill-rule: evenodd;
      }

      .st0, .st1 {
        fill: #ffcc6a;
      }

      .st1 {
        font-family: Tinos-Regular, Tinos;
        font-size: 146px;
      }
    </style>
  </defs>
  <path class="st0" d="M586.55.96c-.7,1.1.1,1.5,13.7,6.5,16.3,5.9,38.5,17,57.9,28.8,33.5,20.5,73.1,59.1,94.2,91.9,17.7,27.4,24.4,41.4,33.8,70.2,4.2,12.8,4.8,17.6,2.4,19.6-1.5,1.2-23,3.4-24.5,2.5-.5-.3-1.8-2.5-3-5-5.1-10.6-24.8-37.4-41.4-56.5-58.7-67.3-118-110.7-174.4-127.5-13.6-4.1-37.6-8.3-55.1-9.6-43.5-3.3-101.6,6.3-150.1,24.9-31.1,11.9-78.8,37.6-75.7,40.8.7.8,7.1-.9,18.7-5.1,23.5-8.3,55.5-15.1,83.5-17.7,18.3-1.6,59.6-1.6,76,0,7.2.8,18,2.3,24,3.3,6.1,1.1,12.4,2.2,14,2.5,1.7.3,6.4,1.4,10.5,2.5,38.5,10.3,75.8,27.8,105.3,49.6,9.3,6.9,11.3,10.1,8.3,13.1-2,2-4.9,1.2-18.1-4.6-21.7-9.5-57.4-19.7-88-25.1-28.2-5-43.8-6.4-76.8-6.9-29.8-.4-33.2-.2-53.5,2.3-31.6,3.8-50.5,7.9-74.7,16-35.2,11.9-65.1,27.9-104.6,55.9-21.6,15.3-57.8,51.6-80.9,81.1-18.9,24.2-42.8,63.1-52.3,85-1.9,4.4-5.3,11.8-7.4,16.5-8.3,17.8-13.4,34.8-10.2,33.8.8-.2,4.2-4.7,7.6-9.9,23.8-36.4,58.7-71.8,96-97.4,21.7-15,52.6-31.7,72.8-39.4,18.2-7,23.3-8.8,37-13.1,19.7-6.2,25.3-7.1,27.5-4.5,2.1,2.5.2,5-6.8,9-17.2,9.8-33.1,19.7-49,30.4-9.5,6.4-19,12.7-21.1,14.1-8.4,5.5-38.7,30.1-50.1,40.7-4.7,4.3-10.1,9.2-12,10.8-4.5,3.9-23.4,24.4-33.6,36.5-36.1,43-61.9,90.4-81.6,150-11,33.3-16.6,58-21.9,97.5-3,22.2-4.1,75.5-1.5,75.5.9,0,1.6-.1,1.6-.3,0-2.8,4.9-21.4,8.5-32.1,15.9-47.7,64.4-114.2,123.4-169,25.8-23.9,28.9-26.6,47.6-40.6,20.7-15.5,40.9-29,57.2-38.1,12.5-7,15-7.8,17.1-5.7,2.6,2.6,1.1,4.9-8,11.8-37.2,28-55.1,43.3-78.4,66.5-22.3,22.3-34.5,36.7-49.9,58.5-28.3,40.5-45.5,76.9-60.3,127.5-5.1,17.3-10.8,47.1-14.4,74.5-2,15.2-2.3,21.9-2.3,50.5s.3,35.8,2.3,52.5c4.4,37.1,10.3,67.3,18.9,96.5,4.8,16.5,7.1,22.9,18.1,51.7,7.4,19.2,19.8,45.3,31.8,66.9,9.6,17.3,12.8,19.3,10.5,6.6-.7-4-1.6-9.7-2.1-12.7s-1.5-9.6-2.3-14.5c-5.4-32.5-5.4-88.4,0-125,.8-5.5,1.8-13.1,2.3-16.8,2.8-20.9,16.5-69.2,27.7-97.7,3-7.6,3.9-9,6.3-9,3.9,0,4.3,2.4,2.1,12.7-7.6,36.1-7.6,93.7,0,132.3,5.2,26.9,17.9,67.2,27.4,87.5.7,1.6,2.8,6.1,4.6,10,9.4,20.8,27.8,49.7,48.7,76.5,10.2,13,41.3,43.5,58.6,57.4,23.8,19.2,48.1,35.1,72.6,47.6,4.7,2.4,12.3,6.4,17,9,4.7,2.5,12.8,6.8,18,9.5,49,24.8,87.1,49.3,114,73.4,54.2,48.4,81.3,96.5,86.6,153.7,1.6,16.8,1.6,19.5.2,37-1.9,22.4-6,41-14.4,65.9-3.8,11.1-4,12.5-2.1,12.5,4,0,35.7-27.1,59.7-51,35.1-35.1,55.1-62.3,73.4-100.3,4.4-9.3,14.6-36.1,14.6-38.6,0-.7,1.1-5.1,2.4-9.9,7.7-28.2,9.5-68.8,4.6-109.4-4.6-38.8-17.6-88.5-33-125.8-2.9-6.9-5.8-14.1-6.5-16s-5.6-12.1-10.8-22.5c-8.3-16.6-11.8-22.9-21.3-39.4-3.7-6.5-26-39.7-31.6-47.1-19.8-26.2-21.4-28.2-44.8-54.1-11.1-12.2-28.2-30-62-64.4-25.4-25.8-41-43-52.9-58.4-2.5-3.3-7.5-9.6-11-14.1-14.2-18.4-34-52-41-69.7-1-2.6-3.4-8.6-5.3-13.3-7.5-18.3-15.9-45.5-20.1-65.5-6-28.1-6.7-36.1-6.7-77.6,0-28.9.4-41,1.6-48.9.8-5.8,1.9-13.9,2.4-18,2-15.8,8.9-43.1,15.7-62.3l3.5-9.9-4-9.1c-6.4-14.5-12.3-30.5-15.2-41.7-5.5-21.1-7.6-23.3-8.2-8.3l-.3,9.8-6.5,9.5c-22.5,33.2-43.5,78-52.8,113-17,63.7-20.1,124.8-9.6,189,5.7,34.8,15,74.9,23.4,101,1,3,3,9.3,4.5,14s3.7,11.4,5,15c7.7,20.9,9.8,26.6,13.8,36.5,11.1,27.5,31.8,68.2,50.1,98.5,12.3,20.5,51,76.6,84.7,123,14.7,20.1,35.3,50.4,40.8,60,1.8,3,4.6,7.7,6.3,10.5,7,11.2,20.5,37.6,24.8,48.5,13.6,34.3,20.5,61.3,24,93.6,1.4,12.8,1,15.4-2.6,15.4-2.2,0-3.1-1.2-7.1-9.8-11.5-24.7-37.9-77.1-45.5-90.2-12.6-21.8-26.4-42.3-43.8-65-3.6-4.6-9.2-12.1-12.5-16.6s-8.5-11.4-11.7-15.5c-3.1-4.1-8.2-10.8-11.5-15-17.8-23.3-48.3-64.4-57.5-77.4-19.5-27.7-48.3-78.1-62-108.7-26.8-59.8-50.2-127.3-61.1-176.8-8.2-36.8-11-62.7-11-101-.1-16.2.5-34,1.1-39.5s1.6-14.5,2.2-20c2.2-22.3,8-47.6,18.1-80,5.8-18.6,12.3-34.7,23-56.4,6-12.3,10.9-22.7,10.9-23.2,0-6.7-24.2,24.8-61.1,79.6-27.3,40.5-41.1,63.3-79.1,130.5-19.2,34-51.9,97.1-63.7,123-2.4,5.2-5,10.8-5.8,12.5-.8,1.6-2.1,4.6-2.8,6.5-.8,1.9-2.8,6.9-4.5,11-1.8,4.1-5.8,14.9-9,24-3.2,9-6.4,16.9-7.2,17.4-.9.5-2.3.6-3.3.2-1.6-.6-1.7-1.5-1.2-7.9,2-23.1,3-29.1,8.3-53.2.9-3.9,2.2-9.9,3-13.5.7-3.6,2.7-11.2,4.3-17s3.5-12.5,4.2-15c10.6-38.5,37.7-99.9,65.7-149,15.6-27.5,37.8-60.8,58.1-87.7,4.7-6.1,43.5-53.5,50.3-61.3,25.4-29.4,57.2-62.4,90.5-94.2,10-9.5,19.1-18.5,20.3-20.1,1.2-1.5,3.9-7.6,5.9-13.5,5.9-16.7,11.5-26.9,25.8-46.9,6.9-9.6,8.3-12.3,6.5-12.3-1,0-21.1,7.7-31.2,11.9-7.1,3-26.1,10.5-43.3,17.2-8.9,3.4-27.8,11.2-32.2,13.4-1.6.7-6.1,2.8-10,4.6-24.1,10.9-71.6,35.5-90.3,46.8-17.8,10.6-34.5,21.2-56.5,35.8-17.6,11.7-22.3,14.4-24.3,13.9-6-1.5-.9-10.1,17.9-30.4,33.7-36.3,58.2-56.7,101.7-84.8,35.6-23,89-48.4,128.5-61.4,15.6-5.1,21.4-6.9,30-9.3,5-1.4,11.7-3.3,15-4.3,3.3-.9,7.8-2,10-2.4s7.6-1.7,12-2.8c20.7-5.3,49.1-10.2,72-12.3,16.1-1.5,69.1-.5,79.9,1.5,22.9,4.3,36.9,8.9,57.9,18.9,10.2,4.9,12.9,6.6,13.4,8.6.9,3.7-.6,5.2-11.2,10.6-15.1,7.7-13.9,9.1,4.8,5.6,21.8-4.1,56.1-6.6,77.2-5.7,37.9,1.7,66.2,7.5,104.5,21.4,29.7,10.8,72.8,37.2,91.3,56,6.2,6.2,7.1,9.3,3.4,11.6-1.9,1.2-1,1.6-14.9-7.1-22.1-13.8-45.6-23.1-70.8-28.3-15.5-3.1-42.2-3.2-58-.1-18.1,3.5-31.3,8.5-55.5,20.7l-16,8,.3,4.7c.3,5.3,1.2,4.5-11.3,9.1-11.5,4.3-17.1,7.7-23.7,14.3-3.4,3.5-7,6.3-8,6.3-2.6,0-4.5-3.6-6.7-13-4.1-16.8-14-38.6-23.5-51.3-6.4-8.5-18.3-21-26.8-28.1-16.2-13.6-28.8-20.3-50.8-26.9-10.3-3.1-11-3.1-30.5-3.1h-20l-13.6,4.6c-20.9,7.2-35,15.2-52.3,29.8-25.4,21.6-37.1,39.2-45.9,69-3.1,10.4-3.1,10.6-3.1,33.5.1,22.5.1,23.3,3.1,34.5,7.4,27.3,19.7,54.5,35.8,78.5,10.5,15.6,39.8,45.5,44.6,45.5,2.3,0,3.1-1.9,6.4-15,3.1-12.8,7.8-24,16.6-39.7,9.2-16.4,14.7-24.1,26.6-37.5,9.2-10.4,26.3-25.7,36.5-32.6,5.5-3.8,8.8-9.9,8.8-16.3,0-9.1-5.9-23.8-13.3-33.4-6.7-8.5-12.3-14.6-15.2-16.5-1.6-1.1-5.4-3.6-8.4-5.6-5-3.3-18.5-9.4-20.9-9.4-1.9,0-4.2-3.1-4.2-5.6,0-3,3.9-5,15-7.4,9.9-2.2,10.2-3.7,1.3-7.7-8-3.6-18.6-6.6-30.3-8.8-4.6-.8-9.1-2.1-9.9-2.9-1.7-1.8-.8-6.1,1.6-7.1,16.4-6.8,30.2-9.1,47.1-8,25.8,1.6,50.5,16.4,70.4,41.9,15.9,20.5,23.2,38.3,27.3,67.1,1,6.6,2.4,12.6,3.1,13.4,1.1,1.2,2.8.9,12.1-2.7,13.5-5.1,36-12.5,47.8-15.7,19.9-5.4,57.9-12.9,65.5-12.9,4.3-.1,4.5,0,4.5,2.9s-.7,3.3-19,12.6c-10.4,5.3-21.1,10.7-23.6,12.1-9.2,5.1-27.3,16.9-34,22.2-1.5,1.2-5.5,4.1-9,6.6-23.1,16.5-58.6,50.7-73.3,70.5-4.4,6.1-9.1,12.4-10.3,14-6.9,9.3-19.1,33.6-24.5,49-5.8,16.3-11.5,44.2-9.4,46.2,1,1,3.9-2.6,9.6-11.8,19-30.6,43.9-54.5,76.6-73.2,10.4-6,14.4-6.1,14.4-.2,0,.7-3.7,4.4-8.2,8.3-17.7,15.1-23.3,21.1-32.5,35.4-5.2,8.1-13.3,24-16.3,32.3-6.2,16.6-11.3,45.4-7.9,44.3.8-.2,4.3-6,8-12.9,6.1-11.6,8.1-14.9,16.9-27.3,11.3-16,25.1-30.1,41.5-42.6,9-6.8,11.9-8,14.2-5.7s1.1,5.5-3.7,10.9c-4.7,5.4-12,17.4-16.7,27.8-15.1,32.9-16.9,63.9-5.6,97,11,32.4,37.9,58.8,72.6,71,13.7,4.8,24.8,6.3,46.2,6.3,26.6-.1,40.4-2.7,64-12.1,6.4-2.6,16.2-8.1,35-19.7,19.4-12,25.5-15,28.9-14.1,4.1,1,3.4,5.1-2.5,14.2-7.1,10.9-13.1,22.4-17.9,34.4-6.4,16-14.9,43.8-16.5,53.5-.4,2.2-1.6,8.7-2.8,14.5-2,9.5-2.2,13.6-2.2,44,0,32.9.1,33.8,2.8,47.5,3.4,16.6,6.4,27.2,11.9,41.5,5.3,13.8,8.5,20,10.2,20,2.1,0,2.5-2,3.5-17.7,2.4-35.1,15.2-72.4,35.1-102.1,4.4-6.7,9-12.7,10.1-13.3,1.2-.6,3.2-.8,4.6-.4,2.3.5,2.5,1,2,4.8-.2,2.3-2.3,11.4-4.5,20.2-10.8,42.9-7.3,79.4,11.2,116.2,5.2,10.5,8,14.2,9.5,12.8.6-.6,1.5-6.4,2.1-13,1.3-13.2,4.9-32.4,8.2-42.5,5.4-17,15.4-33.6,30.6-50.8,6.5-7.3,9.3-8.9,13.1-7.7,2.9.9,2.7,5-.8,16-5.3,16.7-6.4,23.1-6.9,40.5-.3,14-.1,18.3,1.8,28.5,4,22,8.8,37.2,11,34.9.5-.5,2-5.7,3.4-11.7,6.2-26.1,18.6-44.3,41.8-61.7,8.1-6.1,15.2-10.4,47.3-28.7,22.5-12.9,42.4-27.2,50.9-37,5.9-6.6,13.4-20,16.2-28.7,2.3-7.1,2.6-9.9,2.8-23.1l.1-15-3.3-7c-3.8-8.1-7.1-11.8-12.7-14.8-6.4-3.3-22.5-2.8-38,1.3-14.6,3.7-20.9,5.5-30,8.6-10.9,3.6-65.2,20.9-73.1,23.3-13.1,3.9-35.2,5.3-48,3-6.5-1.2-23-8.9-28.8-13.5-2-1.6-5.7-6-8.3-9.8-8.2-12.4-11.1-20.9-8-23.3,1.4-1.1,28.6-4.3,36.4-4.3,6.3,0,22.9,3.2,30.3,5.8,17.5,6.2,22.5,7.5,31.3,7.9,15.8.8,28.3-1.2,50.7-8.2,20.6-6.4,38.2-12,44-14.1,3.6-1.2,10.8-3.6,16-5.3,16-5.1,31.8-12.7,39.8-18.9,4.1-3.3,12.9-11.8,15.9-15.6,1.7-2,3-2.7,5-2.4,4.7.5,4.1,4.1-3.1,19.5-3.7,7.6-6.6,14.9-6.6,16.1,0,5.8,12.8-.8,20.5-10.5,12.8-16.2,25.5-50.2,25.5-68.1,0-7.8-.9-8.5-9.9-7.6-10.9,1-12.2-.3-20-20.9-9.1-23.8-10.3-25.3-24.6-32.3-6.3-3-9.7-5.5-16-12-9-9.2-19-24.4-20-30.5-.9-5.2.6-6.9,6-6.9,4.7,0,8.6,2.4,19.4,11.6,3.2,2.9,8,6,10.6,7,4.3,1.6,5.6,1.6,17.3.3,19-2.1,32.8-1.6,43.7,1.5,5,1.4,12.3,2.8,16.2,3.2,6.6.6,7.8.4,12.8-2,7.9-3.9,9.8-6.7,9.3-13.7-.9-12.1-13.2-27.8-41.4-52.8-7.2-6.4-14.8-13-17-14.6-26.7-20.6-51-35.5-84.6-51.8-54-26.3-62.7-30.7-63.4-31.9-.4-.7-.9-8-.9-16.3-.3-27.1-4.5-43-19-71.5-12-23.5-27.2-43.8-48.2-64.1-33.6-32.5-69.5-53.6-113.3-66.5-4.6-1.4-9-3-9.8-3.6-.7-.6-4.2-6.8-7.7-13.7-28.3-55.7-77.2-103-140.9-136.6-5.9-3.1-12.4-6.3-14.4-7-2.1-.7-7.5-3-12.2-4.9-8-3.4-11-3.9-11-1.7,0,.5,6.6,4.7,14.8,9.4,15.9,9.2,44.5,28.5,55.6,37.6,9.3,7.5,37.2,34.8,41.6,40.6,1.9,2.5,5.9,7.4,8.8,10.7,12.5,14.4,30.6,46.1,38.6,67.3,1.5,3.8,3.7,9.3,5,12.1,2.7,5.6.6,4.5,21.6,11.8,8.7,3.1,20.3,7.3,27,9.8,5.9,2.3,32.7,15.4,40,19.6,19.7,11.5,34.4,23.2,54.3,43.5,24.5,25,38.7,48.7,45.1,75.3,3,12.6,3.5,24.4,1.1,26.4-2.1,1.7-5.3.3-7.1-3.3-9.3-18.4-22.4-35.5-42.7-56-32.8-32.9-69-56-124.2-79.2-20.2-8.5-43-16.5-61.1-21.5-8.2-2.2-15.6-4.5-16.4-4.9-1.2-.6-1.7-4-2.2-15.7-1-20.3-4.2-33.3-14-56.7-18.9-45.2-49.7-84.9-89.2-114.8-28.7-21.7-58.2-33.1-101.9-39.4-18.5-2.6-31.1-3.2-32.2-1.5ZM853.55,391.96c3.9.5,10.3,1.6,14.4,2.5,4.1.8,15.8,2.2,26,3s21,1.7,23.9,1.9c3.6.3,8.5,2,15,5.1,5.3,2.6,14.2,5.8,19.7,7.2,11.5,2.9,16.6,2.7,31-1.3,36.7-10.2,46.6-10.8,51.4-3.2,1.8,2.9,11.1,24.5,11.1,25.8,0,1.2,8.9,16.3,13.5,23,4,5.8,9.7,13,14.8,18.5,5.4,5.9,6.3,10.1,2.4,11-1.6.4-4.5-.6-9.3-3.3-3.8-2.2-8-4.3-9.2-4.7-1.3-.4-4.3-1.9-6.5-3.4-5-3.3-17.2-9.2-31.7-15.4-10.8-4.7-23.6-8-37.3-9.7-9.1-1.1-25.4-5.7-35.8-10.1-4.1-1.7-8.7-3.5-10.4-4.1-1.6-.6-3.7-1.6-4.5-2.3s-5.3-3.4-10-6c-4.7-2.5-10.3-5.9-12.5-7.4-4.2-2.9-14.3-6.5-28.5-10.1-4.7-1.2-11.9-3.3-16-4.5-4.1-1.3-9.1-2.7-11-3-1.9-.4-4.6-1.4-6-2.3-1.4-1-3.6-1.9-4.9-2.2-3.4-.7-4.9-3.4-3.1-5.5.9-1.1,2.2-1.5,3.9-1.1,1.4.4,5.8,1.1,9.6,1.6ZM1037.55,608.56c16.4,1.6,45.2,6.6,48.6,8.5,1.2.6,1.9,2,1.9,3.9,0,3.4-5.2,8.3-13.5,12.6-6,3.2-5,3.2-24.5-2.1-22.3-6.1-46-9.5-67.5-9.5-16.7,0-41.1,2.4-51.4,5-9.5,2.4-12.4,2.5-14.1.5-1-1.2-1-2.2-.2-3.9,1.2-2.7,12-6.4,32.2-10.9,24.8-5.6,58-7.2,88.5-4.1ZM1077.55,658.06c7,1.2,8.5,2.2,8.5,5.6,0,4.1-2.9,7.7-9.4,11.8-7.8,4.9-12.1,5.3-27.3,2.7-28.8-5.1-73.4-3-94.8,4.4-2.2.7-6.5,2-9.5,2.8-6,1.6-14.5,4.8-20.1,7.7-4.5,2.3-7.2,2.4-8.9.4-1.8-2.2.2-6.3,3.6-7.1,1.4-.4,4.7-2.1,7.3-3.8,4.7-3.2,16.9-8.4,27.1-11.7,3-.9,8.4-2.8,12-4.1,3.6-1.4,10.1-3,14.5-3.7s12.5-2.2,18-3.3,15.6-2.4,22.5-2.8c15-1,48.1-.3,56.5,1.1ZM250.85,769.16c.9.9,1.2,6.9,1.2,20.9,0,46.9,10.7,97.4,31.3,147.4,4.4,10.5,7.9,18.9,9.7,23,.9,2.2,2.5,6,3.5,8.5,3.2,7.9,17.8,35.9,27,51.9,15.4,27,49.3,75.3,64,91.1,2.3,2.5,5.4,6.3,7,8.5,2.9,3.9,20.1,21.7,76,78.5,28.9,29.3,37.9,38.8,49,51.4,3.9,4.4,8.8,10,11.1,12.5,8.8,9.9,19.3,23.1,19.9,25.1.4,1.2.4,3.2.1,4.6-1.1,4.1-4.9,3.1-13.9-3.7-4.5-3.4-28-19.3-52.2-35.5s-48.3-32.6-53.5-36.4c-5.2-3.9-10.8-7.8-12.4-8.8-1.6-.9-5.9-4.2-9.5-7.2s-9.3-7.5-12.6-10c-9.2-6.9-31.5-27.3-46.6-42.7-14.6-14.9-23.4-25.2-34.9-40.8-4-5.5-9.2-12.5-11.4-15.5-2.3-3-7.5-11.1-11.5-18-4.1-6.9-9.1-15.2-11.2-18.6-2.2-3.3-3.9-6.3-3.9-6.7,0-.3-2.5-5.8-5.6-12.2-3-6.4-6.2-13.3-6.9-15.3-.8-2-2.8-7.1-4.5-11.2-3.5-8.4-14-39.7-14-41.8,0-.8-.9-4.4-1.9-8-2.3-7.9-6.6-31.9-8.1-45-3.2-28.3-3.5-67.6-.5-89.7.7-5.5,1.6-12.7,1.9-16,.4-3.3,1.5-10.7,2.6-16.5,4.7-24.5,4.9-25,7.8-25,1,0,2.3.5,3,1.2ZM664.25,1188.16c.9.7,2.6,3.8,3.8,6.8,4.6,11.8,7.2,18.6,8.1,22,8.6,30,9.9,34.7,9.9,36.5,0,1,1.1,7.1,2.4,13.4,3.6,17.3,4.6,29.8,4.6,59.1s-1,42.6-4.7,61c-4,20.3-8,34-15.3,53-6.9,17.8-24.8,48.6-28.7,49.6-5.7,1.5-6.8-2.9-3.2-13.2,1.1-3.2,2.4-7.7,2.9-9.9.7-3.7,1.6-7.4,7-28.5,11.2-44.7,16.9-98.1,15.6-146.5-.7-27.7-3.6-63.4-6.5-81.7-1.2-7-2.1-14.5-2.1-16.6,0-5.5,2.7-7.7,6.2-5ZM763.55,267.06c-21,4.9-35.7,10.2-51.5,18.3-11,5.7-8.6,7.7,5.4,4.5,5-1.1,13.6-3.1,19.1-4.4,5.5-1.2,14.7-3.3,20.5-4.5s15-3.2,20.5-4.5,16.7-3.6,24.8-5.1c15.9-3.1,17.3-3.6,16.3-5.3-.5-.8-7.9-1.1-23.9-1-18.9.1-24.7.5-31.2,2ZM602.35,461.86c-8.6,5.8-20.3,16.2-29.1,26-5.1,5.5-9.2,10.5-9.2,10.9,0,.5-1.2,2.5-2.8,4.4-4.5,5.7-14.5,27-18.7,39.5-5,15.2-6.7,27.2-7.2,50.4-.5,21.4-.4,23.5,2.1,36.5,5.1,27.1,9.7,39.7,21.1,57.4,6.5,10,17.2,29.6,27.8,50.7,14.8,29.7,26.6,50.1,39.9,69.4,13.4,19.5,46.2,53.9,51.4,53.9,2.2,0,1.7-1.4-2.3-6.9-7.7-10.3-12.9-17.5-14.8-20.6-1.1-1.8-3.8-5.8-6-9-9.9-14.2-23.2-35.4-29.5-47-11-20-27.4-54.5-36.2-76-1.1-2.8-3.1-7.5-4.3-10.5-2.2-5.3-5.8-14.9-9.5-25.5-2.9-8.2-6.7-21.6-7.9-28-.7-3.3-1.9-9.2-2.8-13-1.1-5.2-1.5-12.5-1.5-28.5,0-18.2.3-23.1,2.2-32,1.2-5.8,2.6-12.5,3-15,1.8-9.2,9.4-29.9,16-43.5,3.8-7.7,11.4-20.8,16.9-29.2,5.6-8.3,10.1-15.6,10.1-16.2,0-2-4.5-1.1-8.7,1.8ZM437.65,514.86c-1.1,1.7-2.7,55.4-2.1,70.6,1.3,32.7,6.2,70.1,12.1,92.5,3.5,13.1,12.3,39.7,14.5,44.2,1.1,2.1,1.9,4.2,1.9,4.8s3.2,7.7,7.2,15.8c7.8,16,18,33.3,25.8,43.9,2.7,3.8,6,8.3,7.2,10.1,9.3,13.4,41.9,49.6,58.5,64.8,25.1,23,115.3,114.4,120.2,121.8.9,1.3,2.8,3.4,4.2,4.7,2.7,2.5,18.1,20.1,23.4,26.8,2.9,3.7,15.3,18.5,23.8,28.6,11.1,13,30.5,39.5,43.2,58.7,16.2,24.9,36.8,72.6,41.5,96.3.5,2.7,1.4,6.8,2,9,.5,2.2,1.7,9.6,2.7,16.5,2.2,15.4,2.4,53,.5,70-3.6,30.6-16.1,72-30.9,101.4-14.5,29-31.6,55.1-53.8,82.1-14.8,18-15.9,19.6-13.2,19.4,3-.1,26.6-20.8,42.2-37,18.4-19,42.4-51.4,54.6-73.4,14.8-26.9,26.3-60.7,28.9-85,3.3-30.9,3.3-32,1.1-52.8-1.1-10.8-3-24.1-4.1-29.5-4.7-21.9-14.2-50.5-25.9-78.2-1.8-4.1-3.8-9.1-4.6-11-3.4-9-29.6-60-36-70-13.9-22-22.5-35.1-25.9-39.5-2.3-3-7.5-10-11.7-15.7-13.3-17.9-39.2-47.1-53.6-60.3-13.1-12.1-47-46-56.3-56.4-4.1-4.6-9.8-10.9-12.6-14s-9.9-11.7-15.7-19.1-11.7-14.9-13-16.5c-2.7-3.4-24.1-35.4-27.1-40.6-25.9-44.7-41.4-80.4-52.9-121.4-5.3-19.2-11.7-54-11.7-64.2,0-11.4-1.5-15-10.4-24.3-21.3-22.2-31.8-37-45.1-63.5-4.7-9.2-7.4-12.2-8.9-9.6ZM1283.55,606.16c-7.8,7.9-10.3,12.2-16.5,28-4.1,10.5-5.1,16.8-2.7,16.8,3.6,0,11.9-12.2,22.4-33.1,10.4-20.8,9.5-24.3-3.2-11.7ZM662.35,723.56c-1.3,3.4.5,37.9,2.7,49.9,4.3,24.5,9.9,45.9,15.5,60.1,3.5,8.9,12.2,23.7,20,34.4,1.1,1.5,2.9,4,3.9,5.6,3.1,4.5,10.4,13.3,17,20.3,11.6,12.3,41.5,38.1,44.1,38.1s1.6-3.8-2.3-9.8c-3.6-5.2-8.5-12.9-13.4-20.7-7.8-12.5-19.5-31.3-23.5-37.8-2.6-4.3-6-9.7-7.5-12-10.2-16-32.8-58.4-32.8-61.7,0-.6-.8-2.7-1.9-4.8-3.6-7-17.1-50.2-17.1-54.6,0-3.1-2-8.6-3.1-8.6-.5,0-1.2.7-1.6,1.6ZM850.95,777.36c-1,1-26.9,7.5-38.5,9.6-10.5,2-14.4,2.2-28,1.7-10.7-.3-19.1-1.2-25.8-2.7-12.4-2.6-13-2.3-11.1,6.5.7,3.3,2.2,9.1,3.3,13,1.1,3.8,3,10.8,4.3,15.5,4.5,17.2,17.1,53.2,23.5,67.2,9.5,20.8,21.4,42.8,32.9,60.8,1.2,1.9,5.1,8.1,8.6,13.8,3.5,5.6,8.7,13.9,11.6,18.5,2.8,4.5,8.6,14.3,12.9,21.7,4.2,7.4,8.6,15,9.7,16.9,2.8,4.6,13.5,26.5,19.2,39.1,11.4,25,18,47.8,22.9,78.5,2.4,14.6,2.6,18.5,2.6,46,0,29.3-.2,32.3-4,55-5,30.7-14.6,63.6-28.6,98.3-3,7.3-5.4,13.9-5.4,14.7,0,9.4,24.6-32.5,37.3-63.5,8.8-21.6,15.9-46.7,22.3-79.5,2.6-13.5,2.7-15.1,2.7-47.5s-.1-34.1-2.7-48c-3.5-18.9-10.1-44.2-14.8-57-4.5-12-7.1-18.8-10.1-25.5-4.5-10.3-16.5-33.5-18.8-36.3-1-1.4-1.9-2.8-1.9-3.3,0-.8-6.9-12.1-16.5-26.9-3.4-5.2-8.3-13-11.1-17.3-2.7-4.3-6.9-10.8-9.3-14.5-11.9-18.4-19.3-33.7-25.7-52.9-3.3-9.9-3.4-10.9-3.4-25.4s.2-15.6,2.6-21.7c4.4-11.1,8.9-16.9,26.7-34.3,12.3-12,16.8-17.1,16.5-18.5-.3-1.8-2.8-3.1-3.9-2Z"/>
  <text class="st1" transform="translate(1003.62 1560.41)"><tspan x="0" y="0">TM</tspan></text>
</svg>