<?xml version="1.0" standalone="no"?>
<svg version="1.0" xmlns="http://www.w3.org/2000/svg"
 width="6270" height="1416" viewBox="0 0 4096 925"
 preserveAspectRatio="xMidYMid meet">
<metadata>
Created by potrace 1.16, written by Peter Selinger 2001-2019
</metadata>
<g transform="translate(0.000000,925.000000) scale(0.100000,-0.100000)"
fill="#FFCA55" stroke="none">
<path d="M7951 6654 c-7 -42 -11 -77 -9 -78 1 -2 45 -13 96 -26 50 -13 92 -28
92 -32 0 -9 -99 -569 -245 -1393 -35 -198 -71 -398 -79 -445 -8 -47 -49 -278
-91 -515 -42 -236 -79 -445 -82 -462 l-6 -33 430 0 431 0 10 72 c6 40 9 74 7
76 -2 3 -57 15 -121 28 -65 13 -119 26 -122 28 -5 6 -13 -41 303 1741 36 204
75 422 86 485 11 63 40 227 65 364 24 137 44 253 44 258 0 4 -179 8 -399 8
l-398 0 -12 -76z"/>
<path d="M9131 6678 c-21 -109 -28 -99 79 -127 52 -13 96 -25 98 -26 1 -1 -15
-100 -37 -221 -22 -120 -58 -322 -80 -449 -22 -126 -66 -372 -96 -545 -31
-173 -74 -416 -95 -540 -22 -124 -51 -288 -65 -365 -99 -561 -125 -711 -125
-722 0 -10 61 -13 294 -13 l294 0 20 113 c12 61 45 246 74 410 l52 298 110 71
c60 40 111 68 113 62 2 -5 82 -220 177 -479 l172 -470 346 -3 345 -2 12 72 c6
39 8 74 4 78 -4 4 -42 16 -83 28 -41 12 -77 26 -81 30 -4 4 -50 111 -102 237
-52 127 -156 380 -232 562 -75 183 -135 337 -133 343 1 5 117 115 257 244
l254 233 98 22 c108 24 103 18 115 124 l7 57 -375 0 -375 0 -12 -69 c-6 -39
-11 -74 -11 -79 0 -5 39 -19 87 -32 l88 -23 -360 -353 c-198 -194 -361 -352
-362 -350 -3 2 -2 9 112 656 42 239 83 473 91 520 40 230 87 497 104 600 11
63 22 125 25 138 l5 22 -399 0 -400 0 -10 -52z"/>
<path d="M19912 6658 c-6 -40 -9 -75 -7 -79 3 -3 45 -17 95 -29 65 -17 90 -28
90 -39 0 -14 -45 -273 -120 -686 -11 -60 -58 -328 -105 -595 -47 -267 -129
-725 -181 -1019 -51 -293 -94 -535 -94 -537 0 -2 193 -4 429 -4 l429 0 7 43
c3 23 9 56 12 74 6 37 18 31 -141 63 -55 11 -102 22 -104 24 -4 4 20 140 128
746 21 118 64 359 95 535 31 176 69 392 85 480 16 88 54 304 85 480 31 176 67
380 81 454 13 74 24 140 24 148 0 11 -72 13 -398 13 l-398 0 -12 -72z"/>
<path d="M30258 6707 c-141 -60 -210 -163 -210 -313 0 -189 129 -324 317 -332
369 -16 490 478 156 640 -70 34 -189 36 -263 5z"/>
<path d="M23935 6584 c-865 -90 -1424 -586 -1576 -1399 -31 -164 -34 -534 -6
-663 161 -732 804 -1025 1855 -847 150 26 515 114 529 129 3 3 20 89 92 462
28 143 51 266 51 273 0 8 -27 11 -97 9 l-98 -3 -81 -234 c-50 -145 -89 -240
-100 -249 -79 -59 -281 -136 -454 -173 -128 -28 -389 -33 -480 -10 -360 90
-552 413 -551 926 1 911 503 1545 1223 1545 213 0 428 -61 576 -162 l42 -29 0
-209 0 -210 95 0 c90 0 95 1 99 23 3 12 29 177 59 365 l53 344 -24 9 c-38 15
-350 66 -512 84 -137 16 -604 28 -695 19z"/>
<path d="M3046 6173 c-37 -214 -70 -398 -73 -411 -5 -23 -5 -23 98 -20 l102 3
78 259 c43 142 81 262 86 267 20 20 593 64 593 45 0 -4 -45 -262 -100 -574
-55 -312 -143 -812 -196 -1112 -52 -300 -103 -588 -112 -640 l-17 -95 -210
-26 c-116 -15 -221 -28 -235 -30 -22 -4 -26 -11 -37 -74 -6 -38 -12 -76 -12
-82 -1 -10 162 -13 782 -13 l783 0 12 81 c7 45 12 83 10 84 -2 2 -100 15 -218
30 -118 15 -217 29 -219 31 -3 2 8 75 23 162 42 239 52 297 230 1304 91 515
166 940 166 943 0 16 579 -11 597 -29 2 -1 -1 -72 -6 -157 -6 -85 -13 -205
-16 -267 l-6 -113 102 3 103 3 67 380 c38 209 68 392 69 408 l0 27 -1188 0
-1188 0 -68 -387z"/>
<path d="M17035 6523 c-4 -21 -10 -58 -15 -83 -5 -25 -7 -47 -4 -49 2 -2 73
-15 156 -27 203 -31 199 -30 193 -57 -3 -12 -25 -137 -49 -277 -251 -1435
-375 -2132 -378 -2135 -2 -1 -86 -15 -188 -30 -102 -15 -186 -28 -186 -28 -5
-6 -24 -114 -24 -137 l0 -30 1203 0 1203 0 88 392 c48 215 90 398 93 405 4 11
-15 13 -103 11 l-109 -3 -109 -262 c-125 -303 -87 -267 -300 -283 -71 -6 -305
-10 -521 -10 l-392 0 13 68 c7 37 29 162 49 277 20 116 49 282 65 370 16 88
37 208 47 268 l17 107 298 0 297 0 3 -157 3 -158 102 -3 c100 -3 103 -2 107
20 3 13 26 142 51 288 74 424 96 544 101 563 5 15 -4 17 -99 17 l-105 0 -48
-122 c-25 -68 -53 -138 -60 -155 l-13 -33 -294 0 -294 0 28 163 c16 89 43 239
59 332 17 94 45 254 63 358 l32 187 260 0 c244 0 542 -12 664 -26 l53 -6 -6
-86 c-3 -48 -7 -152 -8 -232 l-2 -145 104 0 105 0 12 70 c6 39 34 199 62 356
28 157 51 293 51 302 0 16 -75 17 -1135 17 l-1134 0 -6 -37z"/>
<path d="M37396 6503 c-3 -32 -13 -166 -21 -298 -8 -132 -20 -305 -25 -385 -5
-80 -19 -287 -30 -460 -11 -173 -27 -416 -35 -539 -8 -124 -15 -231 -15 -238
0 -10 26 -13 110 -13 61 0 110 2 110 5 0 3 126 444 280 982 154 537 280 982
280 990 0 11 -60 13 -324 13 l-324 0 -6 -57z"/>
<path d="M12728 6033 c-45 -71 -114 -175 -153 -233 l-70 -105 -149 -40 c-167
-45 -156 -36 -170 -142 l-7 -53 121 0 c73 0 120 -4 120 -10 0 -5 -45 -259
-100 -562 -118 -649 -130 -724 -130 -821 0 -223 117 -375 330 -428 86 -21 276
-16 390 11 159 38 368 133 357 163 -2 7 -14 43 -28 80 -26 78 -12 74 -148 37
-143 -38 -232 -16 -280 70 -38 67 -33 155 28 495 29 160 79 439 112 620 32
182 59 333 59 338 0 4 76 7 170 7 168 0 170 0 175 23 7 30 35 197 35 208 0 5
-76 9 -168 9 l-169 0 39 213 c21 116 38 220 38 230 0 15 -14 17 -159 17 l-160
0 -83 -127z"/>
<path d="M31336 5928 l-153 -233 -147 -39 c-165 -44 -160 -40 -172 -142 l-7
-54 122 0 123 0 -6 -27 c-3 -16 -54 -291 -113 -613 -105 -573 -107 -588 -107
-735 -1 -180 15 -231 96 -320 166 -182 547 -189 885 -16 100 51 97 45 67 126
-36 93 -32 91 -113 66 -203 -64 -328 -16 -346 134 -8 64 -4 101 41 355 62 356
164 924 175 978 l10 52 170 0 c93 0 169 3 169 8 0 4 9 57 20 117 11 61 20 111
20 113 0 1 -76 2 -170 2 -93 0 -170 1 -170 3 0 1 18 99 40 217 22 118 40 221
40 228 0 9 -39 12 -160 12 l-161 0 -153 -232z"/>
<path d="M6415 5736 c-564 -94 -970 -587 -1027 -1248 -40 -464 127 -787 440
-854 224 -47 442 30 649 229 l83 80 0 -45 c0 -25 3 -86 6 -136 l7 -92 378 0
377 0 9 63 c5 34 7 65 4 68 -3 4 -56 21 -117 39 -88 26 -111 36 -108 49 2 9
17 97 34 196 17 99 40 227 50 285 11 58 49 276 85 485 37 209 84 481 106 605
21 124 42 235 44 248 9 39 -125 28 -222 -18 l-72 -33 -89 27 c-188 58 -466 80
-637 52z m243 -231 c34 -8 80 -24 101 -34 l38 -20 -13 -78 c-8 -43 -30 -168
-49 -278 -19 -110 -49 -276 -65 -370 -17 -93 -42 -237 -56 -320 -20 -114 -32
-160 -51 -190 -41 -63 -183 -198 -242 -229 -218 -116 -377 114 -357 515 18
373 125 690 295 871 125 134 237 171 399 133z"/>
<path d="M14310 5735 c-503 -96 -866 -485 -955 -1023 -22 -129 -17 -402 9
-497 112 -412 449 -633 897 -586 537 56 932 435 1046 1002 27 136 24 408 -6
524 -75 291 -259 487 -532 566 -97 27 -346 35 -459 14z m260 -235 c109 -55
160 -212 160 -492 0 -548 -194 -1043 -448 -1138 -314 -118 -455 361 -296 1002
73 293 227 548 377 622 65 33 150 35 207 6z"/>
<path d="M26191 5734 c-489 -82 -874 -481 -992 -1029 -45 -209 -46 -475 -3
-640 127 -490 645 -595 1049 -213 l92 87 7 -91 c3 -50 6 -111 6 -135 l0 -43
379 0 378 0 10 63 c6 34 9 65 7 68 -2 3 -55 21 -117 38 l-114 33 8 42 c5 22
38 212 74 421 37 209 80 454 95 545 16 91 54 307 85 480 30 173 57 327 60 343
l5 27 -69 0 c-58 0 -81 -6 -145 -36 -83 -40 -77 -40 -208 -1 -180 54 -430 71
-607 41z m284 -238 c33 -10 70 -25 82 -34 l21 -17 -53 -300 c-29 -165 -77
-435 -106 -600 l-52 -300 -42 -55 c-375 -489 -686 -158 -549 584 70 382 245
663 457 732 53 17 162 13 242 -10z"/>
<path d="M28689 5736 c-124 -35 -260 -124 -370 -245 l-61 -66 6 138 7 137
-378 -2 -378 -3 -13 -59 c-7 -33 -11 -65 -8 -71 2 -7 46 -23 98 -35 51 -12 96
-25 100 -29 3 -3 -9 -91 -28 -196 -19 -104 -48 -266 -64 -360 -17 -93 -59
-334 -95 -535 -173 -970 -218 -1223 -236 -1325 -10 -60 -21 -119 -24 -131 -4
-18 -21 -25 -110 -44 -115 -25 -119 -28 -130 -100 -3 -25 -9 -53 -11 -62 -5
-17 27 -18 579 -18 l585 0 12 71 c7 39 8 74 4 79 -5 4 -82 18 -171 31 -154 21
-162 24 -158 43 11 49 85 540 96 632 l12 101 66 -23 c85 -29 234 -47 331 -39
562 47 979 560 1029 1266 33 463 -118 764 -424 845 -62 17 -205 16 -266 0z
m-30 -353 c113 -85 162 -283 141 -579 -33 -455 -197 -819 -416 -922 -83 -38
-184 -38 -269 1 -92 43 -104 58 -93 115 4 26 26 148 48 272 21 124 64 365 95
536 30 171 55 314 55 316 0 22 167 198 225 238 79 54 160 62 214 23z"/>
<path d="M33022 5734 c-491 -82 -867 -478 -994 -1046 -33 -150 -34 -492 -1
-615 77 -288 270 -452 534 -453 195 0 432 117 578 288 l40 47 1 -142 0 -143
380 0 380 0 5 23 c2 12 6 42 7 66 3 50 13 44 -151 91 l-73 22 6 36 c6 36 49
281 101 577 14 83 55 314 90 515 35 201 76 433 90 515 15 83 29 165 32 183 l6
32 -67 0 c-56 0 -80 -6 -143 -35 -79 -37 -103 -41 -132 -26 -117 63 -492 98
-689 65z m293 -240 c79 -26 96 -41 90 -78 -14 -86 -107 -613 -170 -970 -40
-223 -47 -238 -156 -347 -193 -193 -338 -192 -439 3 -43 83 -60 177 -60 336 0
522 213 988 487 1068 59 17 181 11 248 -12z"/>
<path d="M35760 5743 c-233 -39 -456 -165 -612 -348 l-49 -58 7 164 c4 90 8
171 8 179 1 13 -46 15 -364 15 l-365 0 -11 -50 c-25 -107 -34 -97 118 -140 35
-10 55 -21 53 -28 -3 -7 -23 -118 -45 -247 -22 -129 -50 -287 -61 -350 -49
-283 -60 -347 -94 -540 -36 -210 -59 -336 -95 -542 -11 -64 -20 -119 -20 -122
0 -3 132 -6 294 -6 l293 0 6 38 c3 20 37 217 77 437 39 220 87 490 106 600 46
255 86 338 239 490 234 235 481 262 526 59 17 -75 10 -129 -96 -715 -47 -261
-101 -564 -121 -674 -19 -110 -37 -208 -40 -217 -5 -17 20 -18 419 -18 l424 0
12 71 c7 39 9 74 5 78 -5 5 -58 18 -118 29 -60 12 -111 24 -114 26 -2 3 6 60
18 128 26 148 117 659 164 928 48 267 58 366 45 459 -24 179 -148 312 -327
350 -50 10 -228 13 -282 4z"/>
<path d="M29756 5653 c-4 -27 -9 -62 -12 -79 l-6 -31 89 -22 c48 -13 92 -27
96 -31 4 -4 -5 -83 -22 -176 -16 -93 -61 -349 -100 -569 -39 -220 -95 -542
-126 -715 -30 -173 -57 -325 -60 -337 l-5 -23 429 0 430 0 11 55 c20 98 22 96
-118 124 -123 24 -123 24 -117 50 5 25 21 117 105 596 59 336 74 422 146 823
35 200 64 368 64 373 0 5 -169 9 -399 9 l-399 0 -6 -47z"/>
<path d="M20876 4888 c-8 -24 -66 -345 -66 -362 0 -15 47 -16 575 -16 452 0
576 3 579 13 8 24 66 343 66 360 0 16 -38 17 -575 17 -452 0 -576 -3 -579 -12z"/>
<path d="M37163 4312 c-301 -107 -330 -526 -47 -670 216 -109 491 30 522 265
30 229 -118 411 -341 420 -61 3 -95 -1 -134 -15z"/>
</g>
</svg>
