<?xml version="1.0" encoding="UTF-8"?>
<svg xmlns="http://www.w3.org/2000/svg"
  width="1310" height="1581" viewBox="0 0 1310 1581"
  shape-rendering="geometricPrecision">
  <g id="lion-head" fill="#FFCA55" stroke="none">
    <g transform="translate(0,1581) scale(0.1,-0.1)">
<path d="M5845 15784 c11 -8 31 -17 45 -20 69 -14 339 -127 450 -187 188 -103
213 -117 231 -133 8 -8 19 -14 22 -14 7 0 144 -91 195 -129 154 -116 405 -347
395 -364 -3 -5 -2 -7 4 -4 21 13 278 -300 358 -435 6 -9 34 -57 64 -105 62
-100 145 -256 165 -311 8 -20 26 -68 41 -107 40 -105 92 -275 99 -322 l6 -41
-68 -6 c-62 -6 -292 -31 -372 -41 l-35 -5 25 9 c14 5 53 17 88 27 77 21 80 26
50 72 -14 20 -28 44 -31 52 -9 19 -132 192 -209 293 -129 170 -426 492 -634
686 -43 41 -78 79 -76 84 1 4 -1 6 -6 3 -4 -2 -46 27 -92 66 -100 83 -301 234
-379 283 -9 6 -41 27 -72 47 -54 36 -87 55 -179 106 -71 39 -89 48 -194 96
-54 25 -103 46 -110 46 -6 0 -33 9 -61 19 -154 60 -424 114 -661 132 l-162 12
-188 -12 c-355 -23 -824 -123 -1075 -228 -31 -12 -61 -23 -68 -23 -6 0 -37
-12 -68 -27 -32 -14 -76 -34 -98 -44 -74 -33 -370 -179 -425 -210 -30 -17 -64
-37 -75 -43 -39 -22 -144 -96 -150 -106 -9 -14 -7 -13 77 16 40 14 82 28 93
31 11 3 49 15 85 28 531 186 1258 244 1815 144 61 -11 124 -22 140 -25 112
-19 351 -94 530 -166 66 -26 331 -156 375 -183 214 -133 386 -261 519 -387 92
-88 98 -98 39 -63 -413 242 -943 406 -1568 487 l-165 21 -308 5 -308 4 -217
-27 c-226 -27 -347 -49 -517 -91 -158 -40 -257 -74 -485 -164 -198 -78 -588
-302 -755 -434 -54 -43 -98 -71 -107 -68 -5 1 -7 -2 -5 -6 1 -5 -41 -44 -93
-87 -52 -44 -165 -149 -250 -234 -85 -85 -158 -154 -162 -153 -5 1 -7 -2 -5
-8 1 -5 -14 -26 -34 -47 -37 -40 -117 -136 -159 -192 -14 -18 -46 -59 -71 -90
-60 -75 -146 -197 -189 -271 -11 -19 -43 -71 -72 -115 -53 -83 -68 -110 -151
-265 -27 -52 -54 -99 -58 -104 -5 -6 -9 -16 -9 -23 0 -7 -20 -57 -45 -111 -25
-53 -55 -117 -66 -142 -39 -83 -108 -294 -109 -332 0 -18 21 -6 30 16 111 292
659 862 1120 1163 104 68 125 81 210 128 47 25 96 53 110 61 26 15 109 55 215
104 33 15 87 38 120 50 33 12 79 31 103 41 23 11 59 23 80 29 20 5 89 27 152
48 108 37 218 65 440 111 52 11 96 19 97 17 2 -2 -56 -34 -129 -71 -143 -73
-272 -143 -328 -180 -19 -12 -80 -50 -135 -84 -55 -34 -109 -67 -119 -74 -11
-7 -49 -33 -85 -58 -36 -25 -73 -48 -81 -52 -8 -4 -35 -23 -60 -42 -25 -19
-55 -39 -67 -44 -11 -6 -24 -15 -28 -21 -3 -5 -11 -8 -16 -4 -5 3 -8 1 -7 -5
2 -6 -18 -25 -44 -43 -83 -59 -311 -247 -412 -341 -54 -51 -103 -91 -108 -89
-5 1 -7 -2 -4 -6 5 -9 -22 -40 -36 -41 -5 -1 -8 -4 -9 -8 -1 -16 -32 -42 -42
-36 -5 3 -7 2 -4 -4 8 -13 -37 -56 -47 -46 -4 5 -6 3 -4 -3 2 -6 -31 -49 -74
-95 -125 -137 -355 -426 -378 -474 -3 -5 -30 -49 -62 -96 -102 -154 -263 -462
-348 -664 -191 -454 -300 -863 -371 -1390 l-21 -160 -5 -281 c-7 -368 6 -444
42 -245 9 51 21 105 26 120 6 14 17 49 24 76 37 135 115 314 195 450 16 28 32
57 36 65 4 8 28 47 53 85 25 39 48 75 51 80 29 58 368 511 401 535 4 3 23 25
44 50 221 267 712 732 938 890 12 8 58 42 102 75 82 61 294 205 302 205 2 0
19 11 36 24 18 13 91 56 162 95 72 40 141 78 155 87 63 37 461 227 466 221 2
-2 -65 -49 -149 -105 -290 -194 -422 -287 -528 -372 -31 -25 -69 -54 -84 -65
-335 -240 -821 -729 -1045 -1051 -283 -408 -459 -760 -583 -1164 -91 -300
-143 -548 -189 -900 l-23 -175 0 -320 0 -320 23 -195 c44 -367 110 -706 187
-960 13 -41 25 -86 28 -100 9 -49 156 -441 208 -556 11 -22 19 -44 19 -48 0
-11 206 -425 240 -481 17 -27 39 -68 50 -90 23 -46 76 -112 83 -105 3 3 -5 57
-18 120 -54 267 -63 336 -86 670 -14 200 3 592 37 830 9 58 19 136 24 173 19
141 110 493 186 722 88 268 145 411 261 653 53 111 78 143 50 66 -86 -243
-145 -497 -174 -759 l-17 -160 0 -260 1 -260 21 -155 c11 -85 28 -193 37 -240
45 -226 153 -581 233 -765 89 -206 123 -275 211 -428 76 -134 299 -457 366
-533 50 -56 90 -109 87 -116 -1 -4 1 -7 5 -6 5 2 76 -65 159 -148 139 -139
315 -293 421 -370 24 -17 41 -34 38 -37 -3 -4 -2 -5 1 -3 3 2 24 -9 47 -25 67
-47 119 -83 136 -94 9 -6 48 -31 86 -56 90 -59 193 -119 319 -184 56 -29 128
-67 161 -85 33 -18 124 -66 202 -106 77 -40 156 -82 175 -92 18 -11 69 -38
113 -62 44 -23 92 -51 107 -61 14 -11 28 -19 31 -19 14 0 216 -128 411 -260
112 -75 282 -217 279 -231 -2 -5 1 -8 6 -6 14 3 201 -175 194 -186 -3 -6 -1
-7 4 -4 21 13 250 -260 355 -423 133 -205 215 -394 279 -635 l28 -110 17 -181
17 -181 -15 -189 c-9 -104 -26 -229 -38 -279 -47 -199 -99 -375 -140 -469 -10
-25 -15 -48 -11 -50 8 -5 150 95 221 157 311 267 575 531 737 737 6 8 24 30
38 48 129 156 373 575 416 712 4 14 24 70 44 125 21 55 40 116 45 135 4 19 16
69 27 110 166 613 35 1589 -329 2445 -163 383 -421 831 -663 1149 -33 43 -67
88 -75 100 -26 38 -217 270 -269 325 -27 30 -47 59 -44 65 3 5 2 6 -4 3 -6 -4
-37 24 -69 61 -75 85 -267 284 -604 627 -310 315 -560 600 -552 627 1 5 -1 7
-5 5 -29 -18 -300 401 -426 658 -50 101 -65 134 -126 280 -26 62 -49 126 -66
185 -8 25 -23 72 -34 105 -34 98 -71 229 -71 247 0 10 -9 50 -19 90 -11 40
-23 96 -26 123 -4 28 -15 104 -26 170 l-19 120 0 375 0 375 16 105 c8 58 19
139 24 180 20 159 79 400 142 580 55 158 55 148 13 236 -21 44 -46 102 -55
129 -10 28 -24 68 -33 90 -41 110 -54 154 -103 343 l-17 62 -15 0 -14 0 4 -97
5 -98 -76 -115 c-42 -63 -81 -124 -87 -135 -163 -283 -236 -424 -284 -545 -61
-153 -73 -185 -116 -310 -69 -200 -145 -574 -181 -885 l-17 -150 0 -250 -1
-250 18 -170 c48 -463 202 -1163 328 -1489 11 -27 19 -54 19 -60 0 -6 11 -40
25 -76 13 -36 40 -108 59 -160 19 -52 49 -129 66 -170 17 -41 35 -86 40 -100
23 -70 214 -460 304 -620 32 -58 68 -123 81 -145 12 -22 30 -54 41 -72 51 -83
89 -149 93 -157 10 -23 330 -494 455 -669 142 -200 165 -233 211 -297 56 -79
73 -102 130 -181 138 -191 128 -176 254 -363 70 -103 154 -232 186 -288 6 -9
26 -43 45 -75 72 -119 203 -378 240 -473 71 -181 116 -315 158 -470 40 -150
90 -479 107 -710 l5 -75 -35 70 c-20 39 -56 115 -81 170 -73 161 -129 275
-254 525 -115 230 -146 290 -187 360 -11 19 -42 71 -67 115 -105 180 -231 362
-436 631 -58 76 -112 148 -120 160 -8 12 -42 57 -76 100 -285 370 -558 734
-680 909 -72 104 -174 257 -199 300 -17 28 -34 58 -40 67 -123 205 -166 282
-284 513 -81 157 -196 410 -261 575 -12 30 -30 75 -40 100 -42 104 -85 217
-140 375 -10 28 -30 80 -44 118 -14 37 -26 73 -26 79 0 7 -11 42 -24 78 -121
330 -231 807 -277 1210 l-22 185 0 285 c0 157 5 330 11 385 6 55 16 145 22
200 18 181 61 392 127 620 41 146 85 288 99 320 6 17 24 64 39 105 36 96 231
514 292 623 8 13 -4 7 -28 -16 -51 -48 -262 -324 -384 -501 -11 -16 -29 -41
-40 -56 -51 -70 -310 -456 -389 -580 -27 -41 -57 -87 -67 -102 -11 -15 -19
-30 -19 -34 0 -4 -11 -22 -25 -40 -14 -18 -25 -35 -25 -38 0 -3 -20 -37 -45
-76 -25 -39 -45 -72 -45 -74 0 -2 -18 -34 -41 -71 -45 -75 -44 -73 -154 -265
-42 -74 -93 -164 -112 -200 -20 -36 -39 -69 -43 -75 -5 -5 -19 -30 -32 -55
-14 -25 -36 -65 -50 -90 -14 -25 -44 -81 -68 -125 -23 -44 -46 -84 -50 -90
-25 -33 -376 -727 -448 -885 -77 -168 -105 -232 -161 -365 -52 -124 -141 -407
-192 -605 -11 -47 -22 -89 -24 -95 -7 -23 8 211 21 340 8 77 19 180 24 230 8
83 26 179 66 360 9 39 22 97 29 130 15 75 51 212 74 290 78 255 90 292 136
410 48 125 87 221 100 250 8 17 40 88 71 159 146 333 503 988 596 1092 10 11
18 23 18 26 0 7 139 216 170 256 12 15 48 63 80 107 148 203 598 752 612 747
5 -1 7 2 4 6 -5 9 108 137 328 375 50 52 94 93 99 90 6 -3 7 -2 4 4 -6 9 70
92 86 93 4 0 6 2 5 4 -6 9 35 45 45 39 5 -3 7 -2 4 4 -3 5 73 86 171 179 97
93 218 210 268 260 l92 91 11 44 c32 126 125 318 221 454 74 104 133 181 146
188 48 27 0 34 -58 8 -24 -10 -70 -29 -103 -41 -59 -22 -128 -50 -235 -95 -99
-41 -174 -71 -250 -99 -41 -16 -97 -37 -125 -48 -27 -11 -70 -28 -95 -38 -225
-91 -639 -287 -845 -400 -33 -18 -96 -52 -140 -75 -176 -93 -304 -169 -515
-303 -30 -20 -77 -50 -105 -67 -27 -17 -63 -40 -79 -51 -16 -10 -36 -24 -45
-29 -15 -10 -163 -109 -216 -145 -49 -34 -102 -71 -138 -97 -21 -15 -66 -48
-100 -73 l-62 -44 25 31 c14 18 36 48 50 68 49 70 77 104 84 100 3 -3 4 -2 1
1 -2 4 28 45 67 93 118 144 161 190 171 184 6 -3 7 -1 3 5 -8 13 312 335 325
326 5 -3 8 -1 7 4 -4 13 214 205 302 265 14 9 43 30 64 45 22 15 49 34 62 42
12 8 63 43 113 78 51 34 94 62 98 62 4 0 14 6 22 14 67 59 452 270 721 394 30
14 68 32 83 39 15 8 40 18 55 23 15 5 61 23 102 40 133 56 323 125 480 174 47
14 120 37 164 51 43 14 86 25 96 25 10 0 37 7 61 16 24 8 64 19 89 24 25 4 81
17 125 28 472 121 1162 171 1499 108 235 -44 395 -96 606 -198 177 -86 203
-108 144 -122 -33 -9 -242 -110 -269 -130 l-20 -15 26 -1 c15 0 85 11 155 24
768 143 1562 30 2169 -309 28 -15 66 -36 85 -47 19 -10 51 -29 70 -41 19 -12
50 -31 69 -42 233 -138 534 -430 719 -700 52 -75 47 -81 -14 -14 -248 267
-527 465 -795 564 -152 57 -259 89 -369 111 l-125 25 -180 0 -180 0 -120 -24
c-120 -25 -226 -57 -320 -97 -98 -43 -396 -194 -407 -207 l-11 -14 69 7 c38 4
112 17 164 30 111 26 118 26 47 -6 -99 -44 -125 -54 -257 -101 -247 -87 -326
-139 -392 -256 -32 -57 -48 -67 -48 -30 -1 166 -170 567 -312 737 -228 275
-442 419 -753 506 l-100 28 -190 0 -190 1 -105 -34 c-275 -89 -522 -245 -720
-457 -30 -32 -59 -58 -63 -56 -5 1 -6 -1 -4 -5 2 -5 -11 -28 -29 -53 -88 -119
-162 -273 -211 -440 l-27 -95 0 -230 1 -230 31 -115 c17 -63 45 -153 62 -200
18 -47 38 -102 46 -123 37 -99 149 -309 240 -448 80 -124 253 -315 387 -427
l79 -65 9 14 c4 8 20 62 34 121 36 150 83 269 156 398 18 30 40 71 51 90 62
117 177 265 323 416 48 50 201 178 270 226 28 19 60 52 72 74 l23 39 0 50 c0
127 -78 289 -208 430 -20 22 -36 44 -34 50 2 5 0 7 -4 3 -4 -4 -26 7 -48 25
-91 73 -151 102 -323 163 l-83 29 36 18 c58 30 182 67 245 74 75 8 74 15 -8
56 -120 58 -369 119 -500 121 -60 1 -59 3 30 50 158 85 344 124 527 111 92 -7
116 -13 230 -53 254 -91 517 -357 648 -657 49 -112 112 -392 112 -497 0 -45
-1 -45 170 21 58 22 109 41 115 41 5 0 39 11 75 24 64 24 183 61 290 90 139
38 525 112 651 126 46 5 117 14 156 20 94 15 124 8 57 -12 -158 -49 -545 -237
-740 -359 -78 -49 -186 -122 -225 -153 -15 -12 -55 -41 -90 -66 -173 -123
-444 -370 -594 -540 -27 -30 -52 -54 -57 -53 -4 2 -7 0 -6 -5 5 -12 -28 -52
-36 -44 -4 4 -6 2 -4 -3 1 -6 -24 -46 -57 -90 -116 -154 -141 -195 -230 -372
-41 -83 -75 -157 -75 -162 0 -6 -11 -39 -24 -73 -42 -111 -106 -399 -106 -478
0 -30 43 21 80 95 55 110 320 443 342 429 4 -3 7 -2 6 3 -7 20 167 165 317
265 173 114 331 189 513 243 110 32 127 27 46 -13 -201 -99 -358 -211 -514
-363 -30 -30 -59 -53 -65 -51 -5 2 -7 0 -3 -4 4 -4 -7 -26 -26 -48 -81 -99
-197 -307 -246 -441 -49 -133 -117 -481 -98 -500 2 -2 37 62 78 143 80 159
172 306 184 294 4 -4 6 -2 4 4 -12 38 251 319 412 440 146 110 310 207 402
239 l43 14 -25 -20 c-43 -34 -105 -73 -112 -71 -5 1 -7 -1 -6 -6 2 -4 -26 -34
-61 -67 -35 -33 -85 -86 -111 -117 -27 -31 -51 -54 -55 -50 -4 4 -5 2 -4 -3 2
-6 -9 -30 -25 -53 -52 -82 -81 -136 -119 -227 -43 -101 -55 -139 -84 -257
l-27 -113 0 -140 -1 -140 23 -105 c27 -121 65 -240 93 -288 10 -18 19 -38 19
-43 0 -24 115 -180 187 -255 179 -185 401 -304 653 -350 l95 -17 190 0 190 0
117 21 c189 34 347 95 528 202 41 25 83 49 92 55 10 5 62 37 115 71 127 78
299 160 322 153 6 -2 -15 -42 -47 -89 -73 -107 -172 -269 -172 -280 0 -5 -9
-24 -19 -42 -72 -124 -191 -505 -242 -778 l-24 -125 0 -335 0 -335 24 -120
c46 -235 114 -444 199 -612 42 -83 46 -73 61 153 24 347 147 712 340 1009 54
83 185 248 231 290 l33 30 -8 -20 c-257 -648 -236 -1289 56 -1684 23 -32 45
-42 36 -17 -3 7 -2 31 3 52 5 22 13 91 19 155 20 224 87 445 186 608 47 77 66
105 114 166 73 92 321 334 321 312 0 -2 -19 -44 -41 -93 -45 -98 -97 -248
-124 -364 l-18 -75 -5 -175 -4 -175 22 -120 c33 -178 90 -375 110 -375 4 0 10
26 14 57 9 79 43 208 67 254 10 21 19 43 19 49 0 10 11 28 79 135 87 136 243
272 458 397 49 28 102 58 118 68 17 10 80 46 140 80 61 34 126 72 145 84 115
73 233 156 283 200 32 28 63 50 68 48 6 -1 8 1 5 6 -3 5 8 22 25 38 29 27 69
84 117 164 11 19 32 67 47 105 l26 70 11 112 11 112 -12 76 c-18 123 -74 215
-156 258 l-40 20 -110 0 -110 -1 -120 -31 c-166 -43 -210 -57 -595 -181 -460
-149 -492 -159 -596 -171 -49 -6 -143 -9 -209 -6 l-120 5 -45 17 c-88 33 -106
41 -163 74 -65 37 -137 105 -163 154 -10 17 -39 75 -66 127 l-47 95 27 7 c41
10 320 38 379 38 63 0 229 -32 303 -58 30 -11 93 -32 138 -47 l84 -28 91 -4
c158 -8 283 12 507 82 206 64 382 120 440 141 36 12 108 36 160 53 173 55 322
128 406 198 25 21 50 37 55 35 5 -1 8 1 7 5 -4 14 35 52 46 46 6 -3 8 -3 4 2
-4 4 7 27 25 49 65 81 148 238 211 401 l15 40 0 -25 c1 -34 -30 -156 -67 -265
-39 -118 -65 -178 -151 -357 -28 -59 -51 -117 -51 -129 l0 -21 30 6 c180 35
414 459 437 789 l6 89 -14 9 c-8 5 -49 6 -92 3 l-78 -7 -24 23 c-29 27 -52 73
-95 190 -87 237 -102 257 -240 320 -65 29 -90 48 -162 122 -94 95 -186 233
-205 306 l-14 54 12 14 12 15 46 -7 c58 -8 99 -32 181 -107 36 -33 85 -68 110
-79 l45 -20 75 6 c41 3 118 10 170 16 121 12 223 5 330 -25 47 -14 120 -27
162 -31 l77 -7 55 27 c31 15 65 39 77 54 l21 27 -4 50 c-12 130 -164 322 -448
565 -41 35 -74 68 -72 73 1 5 -1 6 -6 3 -5 -3 -27 9 -48 27 -57 48 -378 277
-389 277 -1 0 -32 17 -66 38 -129 78 -251 141 -694 357 -132 64 -268 130 -302
148 l-62 31 7 45 c41 268 -47 601 -255 961 -134 233 -338 462 -617 694 -73 60
-236 176 -261 185 -5 2 -17 9 -25 16 -30 25 -279 154 -346 178 -87 32 -273 96
-334 114 l-65 19 -60 119 c-86 168 -104 199 -168 295 -44 64 -160 220 -192
255 -113 128 -223 242 -294 305 -46 41 -95 86 -110 99 -45 41 -310 235 -363
266 -10 6 -64 38 -120 71 -176 106 -391 206 -568 267 -25 8 -53 18 -62 22 -35
14 -18 -15 20 -33 20 -10 53 -28 72 -39 19 -11 83 -48 142 -81 136 -78 342
-214 488 -323 182 -135 545 -499 522 -524 -4 -5 -2 -5 4 -2 16 9 188 -225 252
-343 74 -136 105 -199 147 -300 89 -215 98 -235 100 -238 3 -4 226 -82 260
-91 17 -4 53 -17 80 -28 28 -12 86 -34 130 -51 112 -43 427 -203 466 -238 8
-8 18 -14 22 -14 3 0 37 -21 74 -47 259 -179 550 -484 672 -703 80 -145 126
-260 155 -385 26 -116 42 -311 30 -360 l-7 -29 -32 64 c-18 36 -45 88 -60 115
-16 28 -36 64 -45 80 -9 17 -32 55 -51 85 -18 30 -32 60 -31 65 2 6 1 7 -3 3
-4 -4 -34 28 -68 70 -64 81 -105 126 -202 225 -33 33 -59 64 -58 69 2 4 0 7
-5 5 -6 -2 -52 36 -113 95 -9 9 -51 43 -93 76 -41 32 -73 62 -71 66 3 3 2 4
-1 2 -3 -2 -24 9 -47 25 -66 47 -199 134 -232 153 -17 9 -48 27 -70 40 -89 51
-145 81 -250 133 -179 88 -208 102 -250 119 -22 9 -67 27 -100 41 -220 91
-525 194 -705 236 l-55 13 -7 155 -7 154 -26 105 c-37 148 -94 298 -179 470
-199 399 -471 726 -831 998 -119 89 -367 232 -404 232 -6 0 -30 9 -53 19 -44
19 -161 54 -303 90 -121 30 -424 71 -528 71 l-92 -1 20 -15z m1605 -3400
c-229 -110 -340 -168 -394 -206 -88 -63 -41 3 54 76 86 66 174 106 320 146 98
27 102 23 20 -16z m810 -427 c318 -93 420 -112 700 -133 226 -17 315 -30 335
-51 8 -7 20 -13 29 -13 8 0 17 -4 21 -9 3 -5 19 -12 35 -16 18 -4 27 -11 24
-17 -4 -7 -2 -8 4 -4 6 4 22 1 34 -5 13 -7 39 -16 58 -20 19 -4 55 -13 80 -19
l45 -11 4 12 3 11 9 -13 8 -13 68 11 c97 15 203 41 217 52 6 5 29 12 51 16 22
4 72 15 110 25 39 10 92 21 118 25 l48 6 43 -21 c28 -13 48 -31 56 -50 7 -17
16 -30 21 -30 5 0 9 -11 9 -24 0 -14 4 -27 9 -31 5 -3 12 -18 16 -34 3 -16 13
-35 21 -41 7 -7 11 -16 8 -21 -3 -5 -1 -9 4 -9 5 0 13 -20 16 -44 4 -23 16
-53 26 -64 11 -12 20 -27 20 -35 0 -8 9 -24 20 -37 11 -13 20 -29 20 -37 0 -7
5 -13 10 -13 6 0 10 -4 10 -9 0 -6 11 -22 25 -37 14 -15 25 -33 25 -40 0 -7
18 -32 40 -54 22 -22 40 -44 40 -49 0 -12 78 -91 90 -91 5 0 10 -8 10 -17 0
-10 10 -27 23 -38 45 -41 59 -87 20 -66 -10 5 -38 17 -62 26 -24 9 -55 25 -69
35 -13 11 -28 18 -32 15 -4 -2 -15 4 -25 15 -10 11 -35 25 -55 30 -20 5 -47
19 -60 30 -13 11 -31 20 -42 20 -10 0 -17 5 -16 11 2 6 -3 14 -11 17 -9 3 -11
0 -7 -7 4 -6 -9 0 -30 14 -20 14 -43 25 -50 25 -8 0 -14 5 -14 11 0 5 -4 8 -9
4 -6 -3 -14 3 -20 12 -5 10 -11 17 -13 15 -7 -6 -68 11 -68 19 0 5 -7 9 -15 9
-8 0 -43 13 -77 29 -67 31 -203 65 -219 56 -5 -4 -9 -2 -9 4 0 5 -30 12 -67
15 -67 6 -264 54 -333 80 -19 8 -68 28 -108 45 -40 17 -79 31 -87 31 -8 0 -15
5 -15 11 0 5 -15 17 -32 25 -18 8 -51 25 -73 39 -22 13 -48 24 -57 25 -10 0
-18 6 -18 13 0 25 -151 95 -255 117 -46 10 -70 16 -305 84 -30 9 -64 16 -76
16 -12 0 -24 6 -27 14 -3 7 -21 16 -39 20 -69 13 -222 83 -273 126 -17 14 -42
33 -55 42 l-25 17 40 -14 c22 -7 78 -24 125 -38z m2110 -2242 c246 -25 529
-79 545 -105 10 -16 -87 -105 -154 -144 l-64 -37 -41 14 c-511 181 -1195 179
-1646 -4 -119 -48 -203 -85 -295 -131 -105 -51 -100 -43 30 50 71 51 139 91
240 141 17 8 42 20 56 27 321 160 857 236 1329 189z m413 -496 c33 -6 70 -14
83 -19 l24 -10 0 -22 c0 -13 -9 -29 -20 -36 -11 -7 -20 -18 -20 -25 0 -16
-110 -88 -159 -105 l-34 -12 -131 24 -131 24 -166 6 c-253 9 -529 -19 -664
-65 -16 -6 -59 -19 -95 -29 -90 -26 -203 -74 -325 -137 -11 -6 -51 -26 -90
-45 -38 -20 -95 -50 -125 -68 -30 -18 -64 -36 -75 -41 -11 -5 -31 -16 -45 -26
-14 -9 6 14 45 50 38 37 73 67 77 67 4 0 8 4 8 8 0 4 15 16 33 27 17 10 52 35
77 56 25 21 83 57 130 82 47 24 101 54 120 65 19 12 42 25 50 28 8 3 24 10 35
14 64 27 155 60 165 60 6 0 33 9 59 21 27 11 55 22 62 23 8 2 25 7 39 13 14 5
61 16 105 23 44 6 125 21 180 32 178 36 623 45 788 17z m-8225 -1745 c40 -285
117 -610 178 -755 13 -31 24 -61 24 -68 0 -13 49 -140 115 -301 103 -249 191
-435 294 -620 35 -63 77 -140 93 -170 17 -30 34 -57 39 -60 4 -3 12 -17 18
-32 5 -14 28 -53 51 -85 22 -32 68 -98 100 -148 89 -135 138 -205 178 -255 49
-60 42 -51 129 -165 42 -55 103 -129 134 -164 32 -35 56 -68 52 -74 -3 -5 -1
-7 5 -3 12 7 55 -48 44 -58 -4 -4 -2 -6 3 -4 8 2 275 -262 421 -417 20 -22
162 -166 314 -320 152 -154 320 -328 372 -386 53 -59 107 -118 120 -132 13
-13 48 -55 78 -91 30 -37 74 -87 98 -112 23 -25 42 -50 42 -55 0 -5 9 -14 20
-21 11 -7 20 -17 20 -21 0 -7 115 -172 130 -187 3 -3 10 -13 15 -22 6 -10 26
-39 45 -65 l35 -48 -90 76 c-78 65 -288 226 -352 269 -11 8 -215 146 -453 305
-237 160 -446 300 -463 313 -18 12 -48 33 -67 46 -19 13 -55 40 -78 60 -24 20
-49 36 -54 36 -6 0 -20 9 -32 21 -12 11 -64 53 -116 94 -52 41 -104 82 -114
91 -11 10 -51 44 -90 78 -195 167 -483 472 -629 667 -133 179 -180 244 -199
277 -18 32 -65 110 -95 158 -7 10 -22 36 -33 56 -11 20 -33 57 -50 81 -16 25
-30 49 -30 54 0 5 -27 64 -60 131 -33 66 -60 126 -60 132 0 6 -9 28 -20 49
-30 60 -170 470 -170 499 0 8 -9 44 -19 80 -94 328 -134 948 -86 1327 8 61 17
135 20 165 10 97 99 537 121 600 1 3 6 16 10 30 6 15 11 -114 15 -340 l6 -365
21 -151z m4083 -3504 c4 -14 22 -59 40 -100 38 -91 77 -193 90 -240 86 -300
99 -347 99 -365 0 -10 11 -71 24 -134 100 -475 50 -1178 -114 -1621 -56 -152
-61 -164 -75 -190 -7 -14 -32 -63 -56 -110 -58 -116 -72 -140 -147 -255 -55
-82 -170 -235 -178 -235 -1 0 13 48 32 107 19 60 41 131 49 158 7 28 19 64 25
80 6 17 15 48 20 70 7 37 16 72 70 285 43 175 101 489 115 625 2 28 9 91 15
140 41 378 36 851 -15 1340 -16 153 -66 454 -106 632 -5 23 -9 45 -9 50 1 11
110 -205 121 -237z"/>
<path d="M7640 13128 c-133 -32 -268 -74 -355 -111 -125 -53 -238 -111 -243
-124 l-4 -13 33 0 c18 0 69 9 114 19 84 20 246 56 400 90 50 11 142 31 205 45
172 38 372 76 397 76 27 0 40 19 22 31 -8 5 -120 8 -249 8 l-235 -1 -85 -20z"/>
<path d="M6100 11223 c-14 -9 -43 -28 -65 -42 -93 -60 -234 -188 -322 -293
-17 -20 -34 -34 -38 -30 -4 4 -5 3 -4 -3 2 -5 -10 -30 -26 -54 -125 -186 -201
-364 -252 -593 l-25 -113 -5 -226 -5 -227 26 -138 c38 -202 96 -389 144 -462
8 -13 22 -37 31 -53 9 -16 41 -69 71 -117 67 -107 64 -101 220 -407 70 -137
142 -277 160 -310 19 -33 41 -73 50 -90 43 -80 109 -185 195 -311 44 -65 112
-153 166 -215 32 -37 55 -70 51 -74 -4 -3 -2 -5 3 -3 6 2 49 -37 95 -86 47
-49 126 -123 175 -164 50 -42 93 -81 97 -86 4 -6 10 -7 14 -3 4 4 -20 41 -52
83 -32 41 -68 88 -79 104 -11 15 -42 59 -69 96 -27 37 -49 73 -49 81 0 7 -3
11 -6 8 -2 -3 -23 22 -45 56 -23 34 -62 94 -88 133 -73 111 -148 235 -216 356
-94 170 -269 537 -354 745 -11 28 -31 75 -43 105 -22 53 -58 149 -95 255 -29
82 -67 216 -79 280 -7 33 -19 92 -28 130 l-15 70 0 215 0 215 22 105 c12 58
25 123 29 145 35 197 171 491 352 763 60 90 109 165 109 167 0 10 -26 3 -50
-12z"/>
<path d="M4386 10668 c-47 -235 -18 -1046 50 -1418 38 -205 144 -571 195 -672
11 -21 19 -42 19 -48 0 -22 178 -371 219 -428 11 -17 21 -33 21 -36 0 -5 25
-42 111 -161 27 -38 57 -81 67 -95 53 -80 192 -239 366 -420 56 -57 100 -108
99 -112 -2 -4 1 -7 5 -5 34 10 1336 -1314 1314 -1338 -4 -5 -2 -5 4 -2 7 4 44
-32 90 -86 43 -50 91 -105 106 -121 50 -50 88 -103 80 -110 -4 -4 -2 -6 4 -4
12 3 200 -221 196 -234 -1 -5 1 -7 5 -5 8 5 37 -31 180 -217 34 -45 73 -95 87
-112 15 -18 26 -36 26 -41 0 -5 11 -20 25 -33 14 -13 25 -27 25 -32 0 -5 19
-35 43 -68 193 -272 422 -777 476 -1050 5 -25 16 -79 24 -120 63 -302 59 -759
-8 -1067 -40 -183 -117 -426 -203 -638 -28 -69 -150 -305 -200 -389 -23 -37
-42 -70 -42 -71 0 -2 -19 -32 -42 -67 -24 -35 -47 -71 -53 -80 -77 -118 -245
-336 -423 -546 -56 -65 -42 -66 41 -3 36 28 66 49 68 48 2 -1 3 0 2 2 -1 1 35
35 80 74 198 173 417 409 543 584 17 24 34 40 38 36 4 -5 6 -3 4 3 -1 6 33 67
78 135 116 178 134 208 134 216 0 5 10 24 23 43 13 19 38 69 56 110 18 41 37
84 41 95 55 123 110 290 139 415 21 94 30 158 52 395 l11 120 -21 198 c-38
355 -112 623 -294 1062 -14 33 -32 78 -41 100 -20 50 -34 79 -139 290 -112
225 -195 379 -258 475 -16 25 -32 52 -35 60 -4 8 -13 22 -20 30 -7 8 -19 26
-26 40 -23 44 -163 242 -265 376 -34 45 -59 86 -55 90 4 5 3 6 -2 2 -9 -8 -43
31 -38 44 1 5 -2 7 -6 5 -5 -1 -33 27 -62 63 -30 36 -92 107 -139 159 -48 51
-85 98 -83 103 1 5 -2 7 -6 4 -9 -5 -50 32 -44 40 1 2 0 3 -2 2 -9 -6 -45 35
-39 45 3 5 2 7 -4 4 -13 -8 -56 37 -46 48 5 4 3 5 -3 2 -15 -9 -577 551 -568
565 4 6 3 8 -3 5 -11 -7 -90 81 -86 95 2 4 0 7 -5 6 -8 -3 -62 55 -132 142
-25 30 -49 60 -55 66 -5 7 -32 42 -60 79 -27 36 -62 81 -76 98 -28 34 -211
304 -222 328 -4 8 -21 34 -37 59 -17 25 -36 56 -42 70 -7 14 -32 57 -54 95
-52 88 -234 457 -234 473 0 7 -6 23 -14 35 -32 51 -146 372 -199 562 -55 197
-104 465 -118 648 -5 64 -14 127 -21 140 -7 12 -11 27 -9 32 1 6 0 7 -4 4 -3
-4 -32 21 -63 54 -31 33 -64 68 -72 76 -66 70 -260 319 -260 335 0 2 -17 33
-38 67 -21 35 -65 119 -97 186 -66 133 -69 138 -79 91z"/>
<path d="M12894 9787 c-85 -73 -137 -141 -172 -222 -207 -487 -18 -325 214
182 51 113 47 117 -42 40z"/>
<path d="M6633 8604 c-3 -9 -3 -106 0 -217 l5 -202 21 -120 c81 -450 176 -708
335 -917 12 -15 32 -43 46 -63 38 -56 163 -206 203 -244 20 -19 34 -38 31 -43
-3 -5 -1 -7 4 -6 5 2 47 -31 93 -73 158 -144 335 -284 342 -272 4 8 -12 36
-115 196 -73 115 -95 149 -142 227 -25 41 -52 84 -59 95 -6 10 -32 52 -57 91
-75 121 -141 227 -165 264 -97 151 -224 394 -323 621 -42 95 -172 512 -172
550 0 24 -29 129 -36 129 -3 0 -7 -7 -11 -16z"/>
<path d="M8520 8024 c-95 -30 -270 -73 -387 -94 l-122 -23 -163 6 -163 6 -110
25 c-129 28 -120 31 -101 -36 22 -79 61 -222 85 -313 28 -104 68 -234 98 -313
12 -34 23 -68 23 -74 0 -53 226 -536 330 -708 25 -41 49 -82 53 -90 4 -8 21
-35 37 -60 16 -25 35 -56 42 -70 7 -14 23 -39 35 -56 13 -17 23 -34 23 -37 0
-3 19 -34 43 -69 24 -35 62 -94 85 -133 49 -82 61 -101 83 -135 34 -51 153
-269 204 -370 220 -438 296 -661 359 -1055 l26 -160 0 -295 0 -295 -14 -90
c-26 -168 -37 -230 -58 -330 -24 -120 -62 -266 -90 -355 -12 -36 -25 -78 -29
-95 -14 -56 -91 -268 -121 -335 -9 -19 -21 -48 -26 -65 -6 -16 -24 -63 -41
-104 -37 -88 -39 -106 -5 -66 76 90 289 463 339 595 8 19 28 69 45 110 81 192
153 450 216 775 l27 140 0 335 0 335 -27 145 c-35 189 -101 442 -148 570 -49
133 -70 188 -87 225 -42 91 -144 293 -171 340 -16 28 -35 61 -42 75 -7 14 -31
54 -54 90 -22 36 -43 70 -45 75 -2 6 -30 49 -61 98 -334 506 -392 613 -478
874 l-30 92 0 152 0 151 26 66 c43 110 89 169 256 332 144 140 198 201 198
223 0 9 -6 8 -60 -9z"/>
<path id="tm-mark-t" d="M8580 800 l0 -70 19 0 20 0 7 45 6 45 74 0 74 0 0 -230 0 -230 -29 0
c-39 0 -61 -9 -61 -26 l0 -14 135 0 135 0 0 14 c0 14 -29 26 -67 26 l-23 0 0
230 0 230 75 0 75 0 0 -29 c0 -42 10 -61 31 -61 l19 0 0 70 0 70 -245 0 -245
0 0 -70z"/>
<path id="tm-mark-m" d="M9092 853 l3 -18 33 -3 32 -3 0 -234 0 -234 -32 -3 -33 -3 -3 -17 -3
-18 100 0 101 0 0 14 c0 16 -21 26 -56 26 l-24 0 0 190 c0 105 2 190 4 190 2
0 43 -95 92 -210 l89 -211 18 3 19 3 94 205 c53 113 97 207 100 209 2 2 4 -82
4 -187 l0 -191 -32 -3 -33 -3 -3 -18 -3 -17 115 0 116 0 0 14 c0 15 -21 26
-51 26 l-19 0 0 234 0 235 32 3 33 3 3 18 3 17 -86 0 -86 0 -64 -137 c-36 -76
-77 -164 -92 -196 l-28 -58 -84 196 -83 195 -90 0 -89 0 3 -17z"/>
    </g>
  </g>
</svg>
