<?xml version="1.0" standalone="no"?>
<svg version="1.0" xmlns="http://www.w3.org/2000/svg"
 width="4418" height="779" viewBox="0 0 4096 722"
 preserveAspectRatio="xMidYMid meet">
<metadata>
Created by potrace 1.16, written by Peter Selinger 2001-2019
</metadata>
<g transform="translate(0.000000,722.000000) scale(0.100000,-0.100000)"
fill="#FFCA55" stroke="none">
<path d="M11277 5243 c-4 -3 -7 -25 -7 -48 l0 -42 113 -19 112 -19 3 -1057 2
-1056 -95 -22 -95 -22 0 -44 0 -44 350 0 350 0 0 43 0 44 -52 11 c-29 7 -77
17 -105 23 l-53 11 0 613 0 614 53 10 c368 73 515 35 562 -144 13 -50 15 -143
15 -576 l0 -518 -57 -11 c-32 -7 -79 -16 -105 -22 l-48 -10 0 -44 0 -44 345 0
345 0 0 44 0 44 -94 22 -95 21 -3 582 c-3 579 -3 582 -26 646 -56 154 -149
228 -318 252 -126 17 -352 -34 -519 -119 l-60 -30 3 451 c3 366 1 451 -10 458
-15 10 -502 12 -511 2z"/>
<path d="M22640 5201 l0 -49 113 -16 c61 -10 120 -20 130 -22 16 -5 17 -64 17
-1060 0 -580 -3 -1054 -7 -1054 -5 0 -48 -7 -98 -15 -49 -8 -105 -18 -122 -21
-31 -5 -33 -7 -33 -49 l0 -45 410 0 410 0 0 45 c0 25 -3 45 -7 45 -5 0 -62 9
-128 20 -66 11 -123 20 -127 20 -5 0 -8 504 -8 1119 0 1032 -1 1119 -17 1125
-9 4 -132 6 -275 6 l-258 -1 0 -48z"/>
<path d="M23527 5243 c-14 -4 -17 -13 -15 -46 l3 -42 90 -17 c50 -10 100 -20
112 -23 l23 -5 2 -1083 3 -1082 115 -33 c271 -78 556 -99 723 -54 357 97 533
404 514 897 -19 485 -235 727 -652 729 -145 1 -240 -19 -346 -72 l-74 -37 3
429 c2 339 0 431 -10 438 -13 8 -459 9 -491 1z m913 -954 c236 -38 344 -230
342 -609 -1 -312 -70 -525 -199 -620 -71 -52 -136 -64 -328 -57 -93 4 -182 9
-197 13 l-28 6 0 609 0 609 27 11 c41 15 117 30 197 39 105 11 115 11 186 -1z"/>
<path d="M28233 5243 c-8 -3 -13 -23 -13 -48 l0 -43 113 -16 c61 -10 120 -20
129 -22 16 -5 18 -33 20 -335 3 -326 3 -330 -17 -325 -125 31 -416 41 -515 17
-255 -61 -398 -187 -480 -425 -95 -273 -76 -685 41 -918 139 -276 531 -377
859 -222 41 19 83 43 93 51 22 21 29 13 36 -40 l6 -42 228 -3 227 -2 0 44 0
44 -95 22 -95 22 -2 1121 -3 1122 -260 2 c-143 1 -266 -1 -272 -4z m215 -929
l32 -6 -2 -612 -3 -611 -70 -25 c-63 -22 -87 -24 -230 -25 -156 0 -161 1 -213
28 -179 94 -264 352 -233 707 29 322 125 497 301 547 45 13 341 11 418 -3z"/>
<path d="M19568 5131 c-133 -43 -177 -226 -76 -317 90 -83 219 -68 289 34 38
56 35 157 -7 209 -53 66 -137 96 -206 74z"/>
<path d="M26721 5118 c-76 -39 -106 -87 -106 -167 0 -55 5 -74 24 -103 107
-156 344 -89 344 97 0 141 -143 236 -262 173z"/>
<path d="M10622 4630 c-45 -93 -82 -173 -82 -178 0 -5 -45 -21 -100 -36 -111
-31 -123 -40 -118 -88 l3 -33 102 -3 102 -3 3 -602 c3 -567 5 -605 23 -656 23
-63 82 -134 134 -161 108 -55 308 -44 479 26 l62 26 0 65 0 65 -32 -8 c-53
-11 -202 -20 -242 -13 -48 8 -85 36 -110 85 -20 38 -21 55 -24 607 l-3 567
181 0 180 0 0 75 0 75 -180 0 -180 0 0 180 0 180 -58 0 -59 0 -81 -170z"/>
<path d="M20491 4738 c-136 -294 -137 -296 -183 -308 -24 -6 -71 -20 -105 -31
l-63 -21 0 -44 0 -44 105 0 104 0 3 -607 c3 -603 3 -608 25 -663 24 -60 86
-127 141 -155 102 -51 317 -34 485 37 l47 20 0 65 0 65 -29 -7 c-53 -11 -206
-20 -244 -14 -49 8 -86 35 -111 85 -20 38 -21 55 -24 607 l-3 567 181 0 180 0
0 75 0 75 -180 0 -180 0 0 180 0 180 -60 0 -60 0 -29 -62z"/>
<path d="M30310 4539 l-174 -90 -91 15 c-145 25 -243 29 -345 16 -342 -43
-514 -222 -514 -535 1 -227 82 -396 228 -472 l28 -15 -25 -26 c-13 -15 -73
-81 -132 -147 -101 -114 -106 -122 -100 -155 15 -80 92 -181 165 -216 22 -10
40 -21 40 -24 0 -3 -22 -22 -48 -43 -75 -57 -161 -152 -185 -204 -32 -69 -31
-199 1 -265 86 -175 367 -264 749 -237 258 18 439 80 561 193 244 225 218 631
-48 749 -104 47 -130 49 -505 56 -483 9 -480 8 -399 173 l49 99 80 -8 c446
-44 706 81 781 377 37 147 6 392 -63 492 l-26 38 112 116 c73 76 110 122 107
131 -10 24 -50 72 -61 72 -5 -1 -89 -41 -185 -90z m-372 -213 c143 -38 196
-140 197 -376 1 -284 -82 -400 -290 -408 -131 -6 -183 9 -249 69 -81 74 -101
138 -100 329 0 197 25 276 109 342 69 54 219 74 333 44z m302 -1485 c142 -55
160 -260 35 -399 -163 -181 -677 -220 -834 -63 -96 96 -72 292 55 439 l37 43
336 -3 c249 -3 345 -7 371 -17z"/>
<path d="M13625 4480 c-268 -38 -451 -216 -517 -500 -33 -141 -33 -487 0 -640
70 -322 259 -478 613 -505 151 -12 353 26 504 94 l65 30 0 57 0 57 -32 -7
c-202 -42 -464 -49 -570 -16 -74 23 -152 78 -197 140 -54 75 -100 267 -101
422 l0 38 478 2 477 3 0 170 c-1 242 -42 375 -157 500 -111 121 -346 186 -563
155z m240 -169 c110 -50 175 -210 175 -432 l0 -79 -320 0 -320 0 0 65 c0 168
66 343 156 411 73 56 226 73 309 35z"/>
<path d="M15203 4479 c-177 -23 -303 -80 -407 -184 -153 -151 -218 -338 -218
-625 -1 -533 223 -800 697 -835 168 -12 385 25 523 91 l72 35 0 59 c0 63 -3
66 -44 50 -106 -40 -464 -56 -580 -25 -231 61 -338 233 -353 565 -16 376 94
642 290 704 135 42 453 -3 471 -67 2 -7 19 -70 37 -140 l32 -128 51 3 51 3 0
225 0 225 -100 17 c-200 34 -395 44 -522 27z"/>
<path d="M18285 4475 c-88 -16 -154 -38 -227 -76 l-58 -29 0 35 0 35 -230 0
-230 0 0 -40 c0 -47 8 -52 115 -71 l65 -12 0 -1022 0 -1022 -52 -7 c-29 -4
-75 -12 -101 -18 l-48 -10 3 -46 3 -47 380 0 380 0 0 44 c0 53 0 53 -165 73
l-105 13 -5 295 c-3 162 -5 296 -5 296 0 1 36 -5 80 -13 134 -25 373 -22 470
5 321 92 480 338 492 764 10 347 -49 543 -211 704 -72 71 -92 85 -164 113
-130 50 -252 61 -387 36z m190 -206 c134 -50 217 -181 245 -387 16 -117 8
-439 -14 -537 -37 -165 -128 -291 -242 -335 -67 -26 -233 -30 -376 -9 l-78 11
0 614 0 614 33 14 c32 13 128 32 207 40 63 7 172 -5 225 -25z"/>
<path d="M26195 4470 c-124 -32 -270 -99 -377 -172 l-58 -39 0 44 c0 24 -3 65
-6 91 l-7 46 -233 0 -234 0 0 -43 0 -44 75 -16 c42 -10 84 -17 95 -17 20 0 20
-10 20 -659 0 -620 -1 -660 -17 -664 -10 -3 -53 -13 -95 -22 l-78 -16 0 -45 0
-44 380 0 380 0 0 39 c0 22 -4 42 -10 46 -8 5 -229 44 -252 45 -5 0 -8 260 -8
579 l0 578 73 21 c71 21 240 52 284 52 19 0 31 -17 68 -90 l45 -90 45 0 45 0
0 220 0 220 -32 -1 c-18 0 -64 -8 -103 -19z"/>
<path d="M31375 4480 c-366 -54 -555 -332 -555 -815 0 -364 102 -619 291 -732
221 -131 591 -131 859 0 l65 32 3 53 c4 60 9 58 -102 37 -112 -21 -303 -32
-404 -23 -247 22 -372 182 -389 500 l-6 118 479 2 479 3 -2 155 c-3 288 -74
465 -230 577 -111 79 -316 118 -488 93z m261 -185 c90 -56 154 -232 154 -426
l0 -69 -326 0 -326 0 7 88 c14 183 58 297 144 374 63 57 96 67 207 65 82 -2
95 -5 140 -32z"/>
<path d="M33800 4480 c-271 -36 -470 -184 -564 -419 -80 -204 -79 -594 4 -814
29 -78 110 -197 168 -247 193 -168 571 -215 892 -111 148 48 160 58 160 131 0
33 -1 60 -3 60 -2 0 -26 -6 -53 -14 -134 -39 -445 -51 -557 -21 -179 47 -274
147 -329 350 -30 111 -33 429 -5 549 66 277 184 387 417 387 170 0 311 -42
324 -98 4 -15 21 -79 38 -141 l31 -113 51 3 51 3 0 225 0 225 -100 17 c-196
33 -403 44 -525 28z"/>
<path d="M35281 4480 c-424 -60 -632 -386 -591 -927 37 -479 275 -716 720
-715 420 0 658 202 715 607 27 188 13 453 -31 590 -52 161 -182 318 -309 376
-139 63 -346 91 -504 69z m265 -166 c189 -52 279 -267 277 -664 -1 -289 -44
-451 -148 -556 -79 -81 -143 -106 -270 -106 -285 0 -404 197 -405 672 0 361
75 573 228 642 79 36 215 41 318 12z"/>
<path d="M37214 4479 c-77 -13 -229 -66 -318 -110 -43 -22 -81 -38 -84 -35 -3
3 -7 28 -10 56 l-5 50 -238 0 -239 0 0 -40 c0 -48 7 -51 123 -71 l77 -13 0
-657 0 -657 -50 -11 c-27 -6 -72 -16 -100 -22 l-50 -11 0 -44 0 -44 365 0 365
0 0 44 0 44 -120 22 -120 22 0 608 0 608 93 17 c327 61 474 22 522 -137 13
-43 15 -135 15 -574 l0 -522 -27 -6 c-16 -3 -67 -13 -115 -22 l-88 -17 0 -43
0 -44 380 0 380 0 0 44 0 43 -87 17 c-49 9 -100 19 -115 22 l-28 6 0 501 c0
446 -7 630 -25 687 -5 15 9 20 107 39 342 64 453 42 520 -104 23 -50 23 -51
26 -586 l3 -536 -63 -12 c-35 -6 -87 -16 -115 -22 l-53 -10 0 -45 0 -44 360 0
360 0 0 44 0 44 -47 11 c-27 5 -72 15 -100 21 l-53 12 0 546 c0 362 -4 568
-11 611 -49 280 -270 386 -612 293 -122 -34 -233 -74 -317 -117 l-48 -24 -15
22 c-77 116 -260 177 -443 146z"/>
<path d="M16580 4474 c-64 -8 -292 -45 -306 -51 -12 -4 -14 -37 -12 -182 l3
-176 29 -3 c63 -8 72 1 97 95 13 48 31 95 40 104 46 46 231 82 338 67 137 -20
181 -113 181 -390 l0 -148 -150 0 c-526 0 -722 -133 -721 -488 0 -315 137
-466 421 -465 160 0 299 46 410 134 55 44 53 45 70 -44 l11 -57 222 2 222 3 3
42 3 41 -48 11 c-26 5 -72 15 -100 21 l-53 12 0 573 c0 543 -1 576 -20 636
-39 125 -130 208 -268 244 -65 18 -288 29 -372 19z m370 -1082 l0 -269 -27
-12 c-258 -118 -460 -100 -525 46 -39 88 -33 276 12 364 50 98 164 135 423
138 l117 1 0 -268z"/>
<path d="M21675 4473 c-52 -5 -283 -43 -301 -50 -11 -4 -14 -41 -14 -184 l0
-179 43 0 c59 0 62 4 89 105 23 85 26 91 64 112 123 68 332 74 407 12 62 -51
79 -114 85 -321 l5 -178 -154 0 c-341 0 -512 -47 -623 -171 -147 -164 -130
-545 31 -690 159 -144 506 -120 710 47 48 39 46 41 63 -49 l11 -57 222 2 222
3 3 37 c4 45 -3 49 -120 73 l-77 17 -3 591 -3 592 -31 65 c-42 89 -84 134
-158 169 -110 53 -277 72 -471 54z m375 -1082 l0 -269 -89 -35 c-177 -71 -333
-71 -411 0 -59 52 -75 106 -75 243 1 257 95 325 458 329 l117 1 0 -269z"/>
<path d="M2070 4401 c0 -48 -1 -48 102 -70 l83 -18 17 -44 c19 -47 112 -301
228 -619 150 -414 185 -510 241 -660 l58 -155 66 0 67 0 42 110 c23 61 75 200
116 310 179 486 219 589 224 575 7 -20 105 -281 309 -825 l64 -170 70 -3 70
-3 58 163 c124 347 207 584 395 1120 l73 208 36 6 c20 3 59 11 86 17 43 10 64
9 144 -9 l94 -21 72 -194 c39 -107 102 -277 139 -379 119 -329 178 -491 256
-700 l76 -205 68 0 68 0 70 190 c109 296 172 468 228 620 82 228 66 224 139
29 34 -93 84 -227 111 -299 149 -393 178 -472 185 -495 13 -44 24 -50 91 -50
75 0 69 -9 129 169 24 69 80 230 125 356 45 127 101 286 125 355 50 145 200
567 210 592 6 16 34 24 138 43 36 7 37 8 37 51 l0 44 -305 0 -305 0 0 -39 c0
-50 -3 -49 135 -69 63 -9 115 -21 115 -27 -1 -5 -76 -237 -169 -514 l-168
-505 -26 70 c-15 38 -51 137 -81 219 -30 83 -92 254 -139 380 -46 127 -93 254
-103 283 l-18 52 -78 0 c-54 0 -80 -4 -83 -12 -14 -43 -294 -802 -335 -908
l-28 -75 -12 30 c-7 17 -32 86 -55 155 -24 69 -80 229 -125 355 -125 352 -161
459 -156 470 2 6 58 18 125 29 l121 18 0 44 0 44 -685 0 -685 0 0 -43 0 -44
100 -16 c54 -10 111 -17 125 -17 14 0 25 -1 25 -2 -1 -2 -79 -236 -174 -522
-141 -423 -174 -513 -180 -490 -4 15 -32 94 -61 174 -30 80 -92 251 -140 380
-47 129 -102 279 -122 333 l-36 97 -76 0 -76 0 -42 -113 c-23 -61 -79 -211
-123 -332 -45 -121 -110 -295 -144 -388 l-63 -167 -41 117 c-22 65 -70 202
-106 306 -36 103 -96 271 -132 375 -36 103 -68 195 -71 204 -6 19 -8 19 145
44 l102 17 0 44 0 43 -380 0 -380 0 0 -39z"/>
<path d="M6990 4396 l0 -44 71 -16 c39 -9 79 -16 89 -16 18 0 27 -22 185 -455
36 -99 88 -241 115 -315 50 -136 203 -556 242 -662 l20 -58 63 0 c38 0 66 5
72 13 5 6 40 95 77 197 59 161 148 402 258 700 17 47 34 88 38 92 3 4 21 -34
39 -85 19 -50 58 -155 87 -232 29 -77 95 -255 148 -395 52 -140 98 -263 101
-272 6 -15 20 -18 76 -18 63 0 70 2 78 23 5 12 39 106 75 210 82 233 174 493
264 747 38 107 93 263 122 345 29 83 56 153 59 157 4 5 44 15 89 24 l82 17 0
43 0 44 -305 0 -305 0 0 -44 0 -43 104 -17 c58 -9 114 -16 126 -16 13 0 20 -5
18 -12 -2 -7 -78 -237 -168 -510 -91 -274 -167 -498 -170 -498 -6 0 -32 70
-156 410 -37 102 -100 273 -140 380 l-73 195 -77 0 -78 0 -22 -60 c-13 -33
-59 -159 -104 -280 -44 -121 -105 -285 -135 -365 -29 -80 -63 -173 -76 -208
-12 -34 -25 -64 -28 -67 -7 -4 -27 50 -186 505 -53 151 -114 324 -135 384 -22
60 -38 112 -35 114 2 2 57 13 122 24 124 20 133 24 133 76 l0 32 -380 0 -380
0 0 -44z"/>
<path d="M19280 4396 l0 -43 89 -17 c49 -9 98 -16 110 -16 l21 0 0 -659 0
-659 -72 -12 c-40 -7 -100 -17 -133 -23 l-60 -12 0 -40 0 -40 413 -3 412 -2 0
44 0 44 -62 11 c-35 6 -94 15 -133 22 l-70 11 3 719 2 719 -260 0 -260 0 0
-44z"/>
<path d="M26460 4396 l0 -44 98 -17 c53 -9 103 -18 110 -20 14 -5 19 -1315 5
-1315 -5 0 -62 -9 -128 -20 -66 -11 -123 -20 -127 -20 -5 0 -8 -20 -8 -45 l0
-45 415 0 415 0 0 44 0 44 -62 10 c-35 6 -96 16 -135 22 l-73 12 0 719 0 719
-255 0 -255 0 0 -44z"/>
<path d="M9817 3230 c-145 -44 -192 -246 -80 -352 80 -76 204 -79 282 -5 164
155 13 421 -202 357z"/>
<path d="M32531 3214 c-97 -49 -137 -162 -97 -269 61 -158 292 -168 373 -16
96 182 -93 376 -276 285z"/>
</g>
</svg>
